<svg id="e2939556-4c85-4682-97ce-70b56a1c0197" data-name="Layer 1" xmlns="http://www.w3.org/2000/svg" width="19.84in" height="14.85in" viewBox="0 0 1428.75 1069.31"><title>shapes</title><path d="M1201,974.55a4,4,0,0,1-1.83-5.21c.57-1.21,1.15-2.42,1.72-3.64.29-.61.55-1.22.82-1.84l.39-.93c.31-.42.33-.55.07-.41.27-2.85,3.83-4.25,6.2-3.11s3.53,4.82,1.42,6.79a12.41,12.41,0,0,0-1.74,2.94c-.62,1.19-1.23,2.39-1.84,3.59A4,4,0,0,1,1201,974.55Zm24.87-32.81a5.19,5.19,0,0,0-1.85-6.52,5.13,5.13,0,0,0-6.72.92,25.78,25.78,0,0,0-3,5.92,28.09,28.09,0,0,0-2.14,6.07,4.48,4.48,0,0,0,2.39,4.76,4.42,4.42,0,0,0,5.21-1.09,57.19,57.19,0,0,0,3.09-5.3C1223.78,945,1225.1,943.6,1225.87,941.74ZM1189,1000.25c2.56.5,4.53-1.21,5.23-3.52a89.84,89.84,0,0,1,3.73-10.59c2.22-5-5.4-8.74-7.72-3.71a81.12,81.12,0,0,0-4.76,12.6C1184.83,997.35,1186.74,999.82,1189,1000.25Zm30.47-13.06a61.9,61.9,0,0,1,2.54-10.05,4.41,4.41,0,0,0-2-5.74,4.33,4.33,0,0,0-5.73,2,71.12,71.12,0,0,0-4,12C1209.1,991.3,1218.25,993.07,1219.45,987.19ZM1200.28,1019a39.34,39.34,0,0,0,3.52-15.45c0-3.61-6-5-7.15-1.39-1.45,4.37-2.88,8.59-4.68,12.84C1189.66,1020.47,1197.82,1024.48,1200.28,1019ZM1178,1032.5c2.42.81,4.46-.38,5.77-2.41a18.16,18.16,0,0,0,1.83-5.45,18.83,18.83,0,0,0,.81-5.42c-.1-3.3-4.54-4.67-6.61-2.21a23.31,23.31,0,0,0-2.8,4.77,20.15,20.15,0,0,0-2.18,5.34A4.76,4.76,0,0,0,1178,1032.5Zm-40.93-60.91c-2.16-.93-5.82,1.13-7.34,5.35-.56,1.57-1.31,3.07-2,4.61a4.49,4.49,0,0,0,8.09,3.89c.66-1.54,1.34-3.06,2-4.61C1139.91,975.64,1139.34,972.57,1137.05,971.59Zm5.84,71c2.38,1.14,4.69,0,6-2.09,2.27-3.62,3.89-7.77,5.76-11.61,2.43-5-5.12-8.58-7.75-3.73-2,3.76-4.45,7.51-6.07,11.46A4.58,4.58,0,0,0,1142.89,1042.61ZM1144.35,942a30.77,30.77,0,0,0,5.64-10.87,4.54,4.54,0,0,0-3.06-5.16c-2-.63-4.73.15-5.54,2.31a54.38,54.38,0,0,1-4,9.2C1135,941.52,1141.5,945.76,1144.35,942Zm24.34,60.32q-2.88,5.7-5.86,11.35c-2.8,5.34,5.88,9.56,8.46,4.07q2.71-5.78,5.51-11.52C1179.35,1001,1171.3,997.13,1168.69,1002.31Zm-7.11,50.27a4.17,4.17,0,0,0,5.49-1.92c.41-1,.81-2,1.2-3a5.33,5.33,0,0,0,1.52-1.67,10.06,10.06,0,0,0,.9-2.57c.09-.32.18-.63.28-.94l.22-.59c.5-1.35,1.07-2.68,1.69-4,1.86-3.93-3.78-8-6.57-4.28-1.9,2.5-3.89,5.58-4.61,8.76-.69,1.55-1.38,3.11-2,4.69A4.18,4.18,0,0,0,1161.58,1052.58Zm-.46-52.1c2.33-5.28-5.4-9-8.09-3.89-2.19,4.18-4.57,8.3-6.4,12.65-2.38,5.64,5.62,9.51,8.57,4.12C1157.47,1009.22,1159.22,1004.8,1161.12,1000.48ZM1313.34,473c-2.95-1.65-6.51-3.29-10-3.58-1.76-.51-3.51-1-5.28-1.48a4.49,4.49,0,0,0-5.54,2.86c-.6,2.21.47,4.92,2.86,5.55,1.11.29,2.23.56,3.34.83a5.72,5.72,0,0,0,2,1.36,11.09,11.09,0,0,0,2.87.58c.35,0,.69.1,1,.16l.66.14c1.5.33,3,.74,4.48,1.2C1314.23,482,1317.65,475.39,1313.34,473ZM1311.11,570c.75-2.13,0-5.08-2.28-6a58.54,58.54,0,0,1-9.71-4.59c-4.25-2.71-9,4.06-5.11,7.26a32.92,32.92,0,0,0,11.44,6.44A4.88,4.88,0,0,0,1311.11,570ZM1135.43,993.83c-2.31-1-4.8-.59-7.68,4.94-.68,1.3-1.23,2.66-1.85,4a4.71,4.71,0,0,0,8.49,4.08l1.85-4C1137.27,1000.62,1137.79,994.85,1135.43,993.83Zm164.65-96c3.66-2.61,6.33-6.86,8.27-10.85,2.51-5.15-5.42-9-8-3.86-1.61,3.16-4,5.33-6.24,8C1290.77,894.91,1295.84,900.84,1300.08,897.8Zm-1.55-265.1c1.41-3,.25-5.76-2.34-7.52a26,26,0,0,0-5.46-2.45c-2-.8-4.09-1.57-6.16-2.31s-4.62,1-5.31,2.9,0,4.81,2.14,5.65a24.05,24.05,0,0,1,5.06,2.56c1.21.83,3,2.49,4.55,3.52C1293.43,636.7,1297.36,635.21,1298.53,632.7Zm-284,410.71c-1.05,1.75-1.5,4.1-2.1,6.06a26.36,26.36,0,0,0-1.29,6.13c-.12,1.91,1.8,3.68,3.53,4a4.57,4.57,0,0,0,4.78-2.4,29.2,29.2,0,0,0,2-5.09,31.63,31.63,0,0,0,2-5.76,4.75,4.75,0,0,0-8.93-3Zm10.42-23.19c1.29-3,2.68-6,3.86-9.06a4.85,4.85,0,0,0-2.21-6.32,4.8,4.8,0,0,0-6.34,2.21c-1.27,3-2.32,6.16-3.48,9.24a4.64,4.64,0,0,0,2.12,6.05A4.59,4.59,0,0,0,1025,1020.22Zm219.85-110.33c2.12-6-5.5-9.7-8.91-4.29-1.34,2.14-2.08,4.77-3,7.11s-1.89,4.79-3,7.13c-2.21,4.83,5,8.32,7.44,3.58,1.16-2.3,2.44-4.53,3.73-6.76S1244,912.27,1244.84,909.89Zm11.94-28.38c-2.36-1-5.56-.24-6.62,2.32l-3.18,7.68c-.94,2.28-.23,5.26,2.21,6.3a4.82,4.82,0,0,0,6.31-2.21l3.6-7.47A5,5,0,0,0,1256.78,881.51Zm-5.85,60.85a54.52,54.52,0,0,0,4.26-13.09l.32-.64a4.53,4.53,0,0,0-2.1-6c-2.08-.89-5.09-.25-6,2.1l-1.84,4.83h0a27,27,0,0,1-1.29,3.1c-.9,1.73-1.8,3.47-2.71,5.18C1238.44,943.74,1248.12,948.46,1250.93,942.36Zm-26.35,23.18a4.07,4.07,0,0,0,5.35-.73c1.35-1.84,6-7.84,7.16-9.78a4.56,4.56,0,0,0-2.14-6.11,4.68,4.68,0,0,0-6.12,2.14c-.89,1.67-5,7.55-5.72,9.29A4.12,4.12,0,0,0,1224.58,965.54Zm37.35-50a4.78,4.78,0,0,0,6.29-2.2c1.94-4.4,3.65-9.17,6.27-13.21,1.85-2.84-.49-6.76-3.29-7.68a5.58,5.58,0,0,0-7.23,4.19c-.83,4.3-2.74,8.52-4.24,12.62C1258.86,911.66,1259.48,914.38,1261.93,915.56ZM998.88,1027.67c-2,4.87-3.41,10-5,15s6.84,7.73,8.6,2.85,3.73-9.85,5.16-14.91S1000.85,1022.78,998.88,1027.67Zm288.7-150.25,3.21-8.26c.86-2.22.25-5.07-2.14-6.09a4.63,4.63,0,0,0-6.09,2.13c-1.17,2.71-2.33,5.41-3.49,8.12a4.78,4.78,0,0,0,2.21,6.3C1283.48,880.57,1286.62,879.88,1287.58,877.42Zm-12.47,51.85c3.66-2.62,6.33-6.86,8.28-10.85,2.51-5.16-5.43-9-8-3.86-1.61,3.16-3.95,5.33-6.24,8C1265.8,926.37,1270.88,932.3,1275.11,929.27ZM1190.38,379.9a4.89,4.89,0,0,0,2.39,5.22,32.31,32.31,0,0,0,5.38,2.37,33.55,33.55,0,0,0,6.11,2.33,5.09,5.09,0,0,0,3.5-9.46c-1.83-1.19-4.34-1.76-6.41-2.47a28,28,0,0,0-6.53-1.62C1192.78,376.07,1190.81,378.06,1190.38,379.9Zm-2,30.79c5.24,2.1,10.43,4.37,15.81,6.09s8.6-7,3.43-9.27-10.56-4-15.86-5.93S1183.19,408.62,1188.35,410.69Zm27.22-82.09c-1.83-1.19-4.34-1.76-6.41-2.47a28,28,0,0,0-6.53-1.62c-2-.2-4,1.79-4.44,3.63a4.9,4.9,0,0,0,2.39,5.22,32,32,0,0,0,5.39,2.37,33.18,33.18,0,0,0,6.1,2.33,5.12,5.12,0,0,0,5.87-3.2A5.18,5.18,0,0,0,1215.57,328.6ZM1193.25,355a4.9,4.9,0,0,0,2.39,5.21,31.3,31.3,0,0,0,5.39,2.38c2,.79,4,1.94,6.1,2.32a5.11,5.11,0,0,0,5.87-3.2,5.17,5.17,0,0,0-2.37-6.25c-1.83-1.19-4.34-1.76-6.41-2.48a28.5,28.5,0,0,0-6.53-1.62C1195.65,351.15,1193.68,353.14,1193.25,355Zm-35,29c-1.13,2.16-.1,4.29,1.74,5.56,3.3,2.28,6.27,5.08,9.93,6.81a5,5,0,0,0,4.65-8.85c-3.49-1.92-7.37-3.12-10.75-5.26C1162,381,1159.24,382.09,1158.27,384Zm-13.58,14.85c-1.25,2.39-.14,4.8,1.93,6.19,3.63,2.43,7,5.24,10.46,7.86,2.2,1.64,5.2,1.87,7.2-.31a5.16,5.16,0,0,0-.3-7.21,80.52,80.52,0,0,0-13.11-8.45A4.65,4.65,0,0,0,1144.69,398.8Zm39.5-31.27c-1.83-1.19-4.34-1.76-6.41-2.47a27.51,27.51,0,0,0-6.53-1.62c-2-.2-4,1.79-4.44,3.63a4.91,4.91,0,0,0,2.4,5.22,31.6,31.6,0,0,0,5.38,2.37,33.46,33.46,0,0,0,6.1,2.33,5.12,5.12,0,0,0,5.87-3.2A5.18,5.18,0,0,0,1184.19,367.53Zm28.69,39.11a66.6,66.6,0,0,0,6.19,3.15,50.46,50.46,0,0,0,6.84,3.18c5.3,1.7,9.26-6.12,4.23-9a50.65,50.65,0,0,0-6.94-3,66.47,66.47,0,0,0-6.52-2.45C1211.86,397.23,1208.44,403.81,1212.88,406.64Zm18.36-110.06c-.82,2.56.7,4.75,3,5.75,4,1.77,7.76,4,11.66,5.93,2.46,1.24,5.45.94,7.05-1.55a5.16,5.16,0,0,0-1.55-7,80.33,80.33,0,0,0-14.38-6.05A4.65,4.65,0,0,0,1231.24,296.58Zm-8.69,45.35c-.46,2.53,1,4.39,3.18,5.43l1.18.53c.38.13.77.24,1.16.36l2.29.77a30.74,30.74,0,0,0,5.3,1.58,4.64,4.64,0,0,0,4.65-3.22,4.87,4.87,0,0,0-1.92-5.3,22.58,22.58,0,0,0-5.28-2.48,27.78,27.78,0,0,0-5.59-1.63C1225.15,337.57,1222.94,339.81,1222.55,341.93Zm3.25,5.47-.07,0C1225.55,347.28,1225.51,347.26,1225.8,347.4Zm-89.63,673.2a3.81,3.81,0,0,0-2.55-4.3,3.87,3.87,0,0,0-4.6,1.93,55.77,55.77,0,0,0-3,5.82c-.94,2-2,3.88-2.77,5.91-2,5.32,5.25,9,8,3.86a48.91,48.91,0,0,0,2.66-6.39A43.78,43.78,0,0,0,1136.17,1020.6ZM1221,369a4.58,4.58,0,0,0,2.9,5.63c3.8,1.61,7.41,3.83,11.33,5.16a5,5,0,0,0,6-2.67c.92-2,.49-5.26-1.8-6.34-4.12-1.95-8.58-3.05-12.83-4.68A4.51,4.51,0,0,0,1221,369Zm.12,24.33a66.51,66.51,0,0,0,6.18,3.16,51.76,51.76,0,0,0,6.85,3.17c5.29,1.7,9.26-6.12,4.22-9a50.7,50.7,0,0,0-6.94-3,69.13,69.13,0,0,0-6.52-2.45C1220.09,384,1216.67,390.53,1221.12,393.36Zm-116.28,637.29c2.78.92,5.1-.82,5.91-3.43.16-.51.27-.8.56-1.52s.58-1.4.89-2.09a44.21,44.21,0,0,1,2.14-4c1.21-2.05,0-4.92-2.06-5.88-2.35-1.13-4.62,0-5.89,2.06a48.13,48.13,0,0,0-4.24,8.61C1101.18,1026.91,1102.09,1029.74,1104.84,1030.65Zm7.68-128.56a4.26,4.26,0,0,0-5.63,2,46,46,0,0,1-2.12,4.63c-.78,1.5-1.79,2.94-2.42,4.5A4.62,4.62,0,0,0,1104,919c1.74,1.1,4.69,1.1,6-.82,2.09-3.15,3.21-6.92,4.54-10.45A4.33,4.33,0,0,0,1112.52,902.09Zm-.31,156.84a43.23,43.23,0,0,0,3.88-10.48c.93-5.32-6.6-7.94-9-3a43.4,43.4,0,0,0-3,10.76C1103.15,1061,1110.05,1063.44,1112.21,1058.93Zm-7.28-51a4.83,4.83,0,0,0,5.57-3.75c.65-2.78,1.27-5.57,1.88-8.36A4.79,4.79,0,0,0,1103,994c-.62,2.79-1.24,5.58-1.82,8.37A4.82,4.82,0,0,0,1104.93,1008Zm19.47-37.4c1.2-4.47,2.2-9,3.49-13.43.72-2.45-1.39-5.08-3.73-5.54-2.71-.52-4.81,1.28-5.54,3.74a102.42,102.42,0,0,0-3.3,13.46C1114.39,974.74,1122.87,976.3,1124.4,970.57Zm13-548.15a4.94,4.94,0,0,0,2,6.55,108.28,108.28,0,0,0,9.94,5.52,5.2,5.2,0,1,0,4.84-9.21,111.18,111.18,0,0,0-10.28-4.9A5,5,0,0,0,1137.39,422.42Zm-8.45,646.22c1.35-3.43,3.18-6.7,4.43-10.14.89-2.45.26-5.24-2.26-6.45a4.92,4.92,0,0,0-6.45,2.26c-1.88,3.53-2.86,7.78-3.84,11.64C1119.62,1070.63,1127.14,1073.22,1128.94,1068.64Zm-7-129.07c1.77-4,3.2-8.26,4.91-12.35,2.26-5.39-5.24-8.94-8.15-3.91a46.57,46.57,0,0,0-5.39,13.41C1112.33,941.73,1119.85,944.42,1122,939.57ZM1128.26,442c-.89,2.41.22,4.49,2.19,5.9l1.07.72c.35.2.72.37,1.07.56.72.37,1.42.77,2.13,1.16a30.79,30.79,0,0,0,4.94,2.47,4.64,4.64,0,0,0,5.14-2.36,4.87,4.87,0,0,0-1-5.56,22.35,22.35,0,0,0-4.77-3.35,27.25,27.25,0,0,0-5.22-2.58C1131.58,438.11,1129,439.93,1128.26,442Zm2.18,5.9.07,0-.1-.06Zm-12.52,44.26a66.65,66.65,0,0,0,5.55,4.19,51.51,51.51,0,0,0,6.19,4.31c4.91,2.59,10.18-4.42,5.72-8.14a50.71,50.71,0,0,0-6.31-4.13,68.37,68.37,0,0,0-6-3.54C1118.55,482.68,1114,488.57,1117.92,492.12Zm4.1-23.74a4.58,4.58,0,0,0,1.88,6c3.47,2.25,6.64,5.07,10.26,7.05a5,5,0,0,0,6.4-1.58c1.26-1.85,1.39-5.09-.67-6.56-3.72-2.64-7.92-4.49-11.83-6.84A4.52,4.52,0,0,0,1122,468.38Zm106.13-147.27a4.94,4.94,0,0,0,3.14,6.09,111.1,111.1,0,0,0,10.76,3.71,5.2,5.2,0,0,0,3.16-9.91,112,112,0,0,0-11-3A5,5,0,0,0,1228.15,321.11ZM747.46,690.48A42.81,42.81,0,0,0,759,687.34c4.09-1.77,2.62-9.36-2-8.27-3.51.82-7,1.64-10.51,2.41C741.14,682.65,741.88,691.18,747.46,690.48Zm1.18-28.92a4.46,4.46,0,0,0,1-5.53,4.08,4.08,0,0,0-5-1.89,53.23,53.23,0,0,0-8.18,3.55c-5.12,2.59-2.08,10.4,3.32,8.61A28.26,28.26,0,0,0,748.64,661.56ZM717,679.78a27,27,0,0,0,6-4.94c1.36-1.49.9-4.15-.37-5.49a3.85,3.85,0,0,0-5.21-.42c-1.77,1.36-3.5,2.77-5.3,4.08a4.44,4.44,0,0,0-.75,6C712.84,680.93,715,681,717,679.78Zm10.7,12.32c3.21-1.88,6.47-3.7,9.62-5.7,2-1.28,2.11-4.6.79-6.42-1.58-2.18-4-2.1-6.09-.87-2.85,1.72-5.62,3.63-8.41,5.46C719.65,687.13,723.56,694.5,727.65,692.1Zm38-19.78a62.41,62.41,0,0,0,8-5c3.77-3,.25-9.51-4.13-7.62a60.26,60.26,0,0,0-8.2,4.63c-1.86,1.18-2.08,4.15-1.1,6S763.69,673.4,765.63,672.32Zm17-69a5,5,0,0,0,0-5.77,4.45,4.45,0,0,0-5.26-1.53c-2,.93-3.48,2.62-5.09,4.11s-2.42,4.5-.81,6.53a4.38,4.38,0,0,0,6.2.89C779.32,606.31,781.3,605.14,782.58,603.37Zm112.58,64a14.77,14.77,0,0,0,7.83-3.59,5,5,0,0,0,.82-6.62,4.39,4.39,0,0,0-6.28-.9c-.34.29-.69.55-1,.8-.13.08-.38.22-.55.3l-.81.3c.3-.13-.82.17-1,.19a4.77,4.77,0,0,0-4,5.29C890.5,665.62,892.64,667.69,895.16,667.33Zm-189-89.85c1.52,1.92,4.43,2.64,6.37.92s4.15-3.32,6.22-5a5.18,5.18,0,0,0,.86-6.93c-1.78-2.24-4.33-2.38-6.58-.94a33.11,33.11,0,0,0-6,5.26C705.36,572.53,704.48,575.32,706.2,577.48Zm13.9,11.31c-2.55,2.32-5.14,4.61-7.63,7a4.73,4.73,0,0,0-.78,6.23c1.32,1.81,4.21,2.44,5.92.85,2.54-2.36,5-4.83,7.45-7.26a4.58,4.58,0,0,0,.75-6A4,4,0,0,0,720.1,588.79Zm3.26,18.53c-3.14,1.78-6.06,4-9.05,6.06-4.48,3.08.78,10.53,5.13,7.06,2.55-2,5.3-4,7.68-6.2a4.19,4.19,0,0,0,1-5.16C727.2,607.53,725.05,606.36,723.36,607.32Zm-11.61,56c2,1.45,4,.94,5.62-.74-.29.31.07-.07.17-.17l.61-.62q.69-.69,1.41-1.35c.92-.81,1.88-1.56,2.86-2.29a4.18,4.18,0,0,0,1-5.2c-.87-1.61-3-2.7-4.75-1.78A25.86,25.86,0,0,0,711,657.4,4.41,4.41,0,0,0,711.75,663.33Zm77-37.62a70.65,70.65,0,0,1,5.59-6.63,4.37,4.37,0,0,0,.71-5.72,3.79,3.79,0,0,0-5.43-.78,83,83,0,0,0-7.63,7.61c-1.57,1.77-.93,4.92.78,6.31A4.16,4.16,0,0,0,788.75,625.71Zm-65.19-1.35c-1.7,1.7-3.39,3.42-5,5.17-1.37,1.45-.87,4.11.36,5.41s3.7,1.81,5.13.41,2.91-2.91,4.34-4.39a4.57,4.57,0,0,0,1.5-2.69,4.42,4.42,0,0,0-.78-3.12C727.82,623.58,725.15,622.77,723.56,624.36ZM707.72,647.9a31.37,31.37,0,0,0,6.25-6.2,4.53,4.53,0,0,0-.75-6.08c-2-1.48-4.17-1-5.77.76l-2.61,2.87-.23.26-.5.51c-.65.67-1.27,1.35-1.88,2.06a4.26,4.26,0,0,0,.36,5.41A3.8,3.8,0,0,0,707.72,647.9Zm5.34-134.85c-1.69,3.12-3.95,5.81-5.73,8.86-1.23,2.12-1.21,4.84.81,6.49s4.48,1,6.15-.81c2.83-3,4.89-7.25,6.77-10.94,1.11-2.18-.29-5.1-2.32-6C716.37,509.57,714.22,510.9,713.06,513.05Zm75.81,132.32a30.76,30.76,0,0,0,6.57-5c1.6-1.63,2.39-4.3.78-6.32-1.4-1.77-4.21-2.54-6-.87a48.25,48.25,0,0,1-5.61,4.4c-1.78,1.23-2.07,4-1.07,5.84S787,646.47,788.87,645.37ZM726,486.48a4.33,4.33,0,0,0-5.72,2.42q-1.78,3.94-3.55,7.89a4.78,4.78,0,0,0,2.33,6,4.34,4.34,0,0,0,5.73-2.42l3.55-7.89A4.77,4.77,0,0,0,726,486.48Zm-30.37,8.78a102,102,0,0,0-4.85,9.84,5,5,0,0,0,2.43,6.3c2.48,1.11,4.77-.26,6-2.52a91.5,91.5,0,0,0,4.16-8.85,4.89,4.89,0,0,0-1.9-5.91C699.69,493.07,696.79,493.2,695.64,495.26Zm-8.85,23.91A50.23,50.23,0,0,0,681.2,530a5,5,0,0,0,2.44,6.34c2.48,1.12,4.81-.25,6-2.54,1.7-3.24,3.77-6.26,5.4-9.54a5.21,5.21,0,0,0-2-6.34A4.67,4.67,0,0,0,686.79,519.17Zm65.07-33c-2.38-.38-5.52,5.24-5.94,7.65a44.2,44.2,0,0,1-1.7,7.21,5,5,0,0,0,2.39,6.22,4.43,4.43,0,0,0,5.89-2.49c1-3.09,2.9-10.17,3-13.44C755.58,488.9,754.33,486.59,751.86,486.2Zm-40.19-19.7a4.54,4.54,0,0,0-6,2.53,85.35,85.35,0,0,1-4.62,8.59,5,5,0,0,0,.82,6.6,4.37,4.37,0,0,0,6.26-.82,51.59,51.59,0,0,0,6-10.58A5,5,0,0,0,711.67,466.5Zm77.4,73.71a30.66,30.66,0,0,0-4.83,8.24c-.89,2.24.11,5.21,2.34,6.1a4.38,4.38,0,0,0,5.78-2.44c.22-.59.45-1.18.7-1.75.13-.29.28-.57.41-.85l.21-.42c-.15.26-.15.25,0,0a23.94,23.94,0,0,1,2.26-3.26,4.78,4.78,0,0,0-.8-6.41A4.28,4.28,0,0,0,789.07,540.21ZM762.18,510.9a4.4,4.4,0,0,0-5.83,2.47q-2,5.82-3.94,11.63a5,5,0,0,0,2.43,6.3,4.49,4.49,0,0,0,6-2.52l3.74-11.72A4.94,4.94,0,0,0,762.18,510.9Zm15.48-11.56a101,101,0,0,0-3.66,9.55c-2.32,8.46,4.84,9.62,7.47,4.63,1.92-3.63,4.2-7.44,4.82-11.61C787.07,496.6,779.61,494.33,777.66,499.34Zm18.84,73.11c-1.74-1.3-4.69-1.32-6,.79a45.54,45.54,0,0,1-5.16,7c-1.54,1.73-1,5,.79,6.36a4.27,4.27,0,0,0,6-.79,46,46,0,0,0,5.08-7C798.44,576.76,798.51,574,796.5,572.45Zm-30,9.77a4,4,0,0,0,4.82-1.32c.92-1.26,1.68-2.64,2.62-3.89s2-2.4,3-3.57c1.43-1.65,1-4.46-.4-5.94a4.16,4.16,0,0,0-5.63-.45,20,20,0,0,0-6.9,10.58C763.57,579.43,765,581.53,766.5,582.22Zm6.11-47.91c-1.73,2.62-3.56,5.19-5.13,7.92-1.21,2.12-1.21,4.81.8,6.45a4.25,4.25,0,0,0,6.11-.81c1.87-2.51,3.51-5.22,5.23-7.84a5,5,0,0,0-.81-6.54A4.3,4.3,0,0,0,772.61,534.31Zm-59.83,18.44c2.53-2.35,5.14-4.63,7.55-7.11,1.82-1.87,2.55-4.65.87-7-1.49-2-4.7-2.71-6.63-.95-2.56,2.33-4.94,4.89-7.38,7.34a5.16,5.16,0,0,0-.84,6.78C707.77,553.8,710.92,554.49,712.78,552.75Zm119.53-14.08c-2.8,2.61-7.94,9.08-10.42,12-3.49,4.18,2.37,10.09,6.46,6.84,2.67-2.12,7.14-8.76,9.54-11.21,1.77-1.8,2.47-4.5.84-6.75C837.3,537.63,834.17,536.94,832.31,538.67Zm27.77,47.44c2.59-2.82-1.21-8.14-4.51-6.26-2.58,1.47-4.91,3-7.55,4.36a4.81,4.81,0,0,0-2.41,6c.82,2.11,3.62,3.75,5.7,2.56A35.43,35.43,0,0,0,860.08,586.11Zm-14-29.23a56.61,56.61,0,0,0-6.78,6c-1.94,2-2.56,5-.42,7.24s5,1.71,6.88-.4a33.12,33.12,0,0,1,2.51-2.56c1.05-1,2.13-1.91,3.24-2.81a4.91,4.91,0,0,0,.81-6.57A4.39,4.39,0,0,0,846.11,556.88Zm-38.21,46a37,37,0,0,0,8.58-8.68,4.7,4.7,0,0,0-.39-5.9c-1.39-1.43-4-2-5.59-.44-2.63,2.63-5.28,5.05-8.12,7.42a5,5,0,0,0-.83,6.69A4.47,4.47,0,0,0,807.9,602.92Zm-1.06-38.21a38.73,38.73,0,0,0,5.32-8.9,4.38,4.38,0,0,0-1.72-5.33c-1.59-1-4.18-.81-5.23,1-1.54,2.7-3.43,5.11-5.06,7.74a4.74,4.74,0,0,0,.77,6.24C802.87,567.08,805.29,566.47,806.84,564.71Zm5.48,47.46a77.57,77.57,0,0,0-6.37,6.45c-1.47,1.63-1,4.49.4,6s4.08,2,5.65.45a76.15,76.15,0,0,0,6.15-6.67C821.15,614.59,816,609,812.32,612.17Zm87.11,29.89c1.92-1.2,2.13-4.28,1.13-6.13a4.44,4.44,0,0,0-5.6-2.1,30.18,30.18,0,0,0-7,4.11,5.19,5.19,0,0,0-.86,7,4.66,4.66,0,0,0,6.6,1Q896.51,643.87,899.43,642.06Zm-55.06,1.86a66.29,66.29,0,0,0-9.27,2.8c-2.29.79-3.32,3.86-2.46,6.12a4.47,4.47,0,0,0,5.82,2.61,60,60,0,0,0,7.88-3.47,4.31,4.31,0,0,0,2.32-4.91C848.17,645.18,846.35,643.55,844.37,643.92Zm-116.69-86c2.15,1.6,4.43,1,6.17-.82,2.23-2.34,8.33-8.84,10.22-11.5a4.61,4.61,0,0,0-.76-6.13,4.07,4.07,0,0,0-5.81.77c-2.25,2.73-8.34,8.76-10.63,11.16C725.24,553.13,725.9,556.61,727.68,557.93Zm85.13,79.13a21.89,21.89,0,0,0-7.29,4.51c-1.61,1.66-2.43,4.34-.79,6.39a4.25,4.25,0,0,0,6.07.87c.9-.76,1.73-1.61,2.66-2.34.46-.37.93-.71,1.42-1l.58-.37.36-.21A4.37,4.37,0,0,0,818,639.4,4,4,0,0,0,812.81,637.06Zm90.08,49.8c2-.27,3.84-1.12,5.8-1.57a31.06,31.06,0,0,1,5.92-.62c4.84-.15,5-8.78.11-9-4.48-.21-10-.57-14.26,1.23C895.38,679.06,897.31,687.62,902.89,686.86Zm-47.65-81a4.56,4.56,0,0,0-.38-5.75c-1.34-1.42-4-1.94-5.46-.44l-4.19,4.17a5.43,5.43,0,0,0-1.68,3,4.67,4.67,0,0,0,1.28,3.94,4.29,4.29,0,0,0,6.6-.39C852.69,608.85,854,607.33,855.24,605.82Zm-118.41-76a37.44,37.44,0,0,0,4.49-11.57c1-4.79-5.87-6.54-7.66-2.28-1.33,3.14-2.75,6.23-4.07,9.37C727.7,529.87,734.18,534.17,736.83,529.85Zm24.41,88.58a51.31,51.31,0,0,0-7.49,6.19,4.92,4.92,0,0,0-.81,6.48,4.31,4.31,0,0,0,6.16.88,57.84,57.84,0,0,0,7.95-7.39,4.52,4.52,0,0,0-.38-5.73A4.06,4.06,0,0,0,761.24,618.43ZM738.05,567.8c-1.52.9-3,1.78-4.55,2.72a13.19,13.19,0,0,0-4,3.19c-2.22,3,.25,7.43,3.78,7,2.89-.31,5.76-2.48,8.26-3.92,2.11-1.22,3.67-3.74,2.54-6.33C743.14,568.36,740.31,566.47,738.05,567.8Zm4.05,27.6a4.86,4.86,0,0,0,.41,6.13c1.43,1.47,4.21,2.1,5.81.46a49.23,49.23,0,0,1,4.58-4.21c1.62-1.3,3.42-2.32,5-3.64,4.06-3.38.34-10.49-4.58-8.42C748.94,587.57,745,591.59,742.1,595.4Zm14.5-35.93c.84-2.27,1.67-4.54,2.44-6.84s0-5.34-2.43-6.3a4.52,4.52,0,0,0-6,2.52c-.83,2.28-1.57,4.59-2.33,6.89s0,5.27,2.4,6.22A4.46,4.46,0,0,0,756.6,559.47Zm2.08,83.84a4.86,4.86,0,0,0-.8,6.48c1.44,1.81,4.32,2.59,6.16.88,2.32-2.16,4.66-4.28,6.84-6.6,1.44-1.53.92-4.35-.38-5.73a4,4,0,0,0-5.43-.43C762.85,639.58,760.79,641.48,758.68,643.31Zm-19.45-11a93.3,93.3,0,0,0-9.32,5.29c-3.95,2.59-.07,9.84,4.12,7.59a93.48,93.48,0,0,0,9.11-5.68C746.83,637,743.27,630.33,739.23,632.35ZM744,610.62a69.94,69.94,0,0,0-9.48,8.23c-3.26,3.55,2.32,9.5,5.86,6.21,2.81-2.62,5.42-5.45,8.32-8C752.47,613.78,748,607.57,744,610.62ZM819.5,579.5a4.39,4.39,0,0,0,6.24-.82l3.09-3.75a4.81,4.81,0,0,0-.8-6.45,4.24,4.24,0,0,0-3.17-.94,4.83,4.83,0,0,0-3,1.75l-3.23,3.63a4.87,4.87,0,0,0,.82,6.58Zm-117,58.19a73.65,73.65,0,0,1,6.69-5.81,4.24,4.24,0,0,0,.7-5.67,3.77,3.77,0,0,0-5.38-.78,53.58,53.58,0,0,0-6.71,5.8,4.34,4.34,0,0,0-.71,5.69C698.25,638.55,700.94,639.18,702.48,637.69Zm-23.13-56c-1,1.85-1.21,4,.38,5.67a3.94,3.94,0,0,0,5.37.43,40.26,40.26,0,0,0,4.58-5.08c1.38-1.64,2.76-3.27,4.08-5a4.79,4.79,0,0,0-.8-6.38c-2-1.61-4.47-1-6,.8-1.33,1.53-2.6,3.11-3.88,4.68A36.81,36.81,0,0,0,679.35,581.69Zm142.46-56.85c-2-1.27-4.22-.6-5.77,1.13-.45.5-4.9,5.09-5.34,5.6-.11.14-.3.34-.37.43l-.62.6c-1,.94-2.16,1.79-3.27,2.62a5.21,5.21,0,0,0-.87,7c1.83,2.31,4.33,2.33,6.65.95,3.12-1.87,9.85-9.11,11.47-12.47A4.82,4.82,0,0,0,821.81,524.84Zm-23.24-9.77a59.68,59.68,0,0,0-7.24,8.45c-1.41,2.07-1.25,5.29.85,6.86a4.55,4.55,0,0,0,6.5-.86,86.54,86.54,0,0,1,6.09-7.88c1.5-1.68,1-4.6-.4-6.1S800.17,513.48,798.57,515.07ZM691,560a17.43,17.43,0,0,0,4.68-4.11c1.12-1.19,2.25-2.38,3.31-3.62a5.16,5.16,0,0,0-.86-6.95c-2.28-1.7-4.74-1.11-6.58.87-1.06,1.14-2.06,2.33-3.06,3.51a15.67,15.67,0,0,0-3,4.35C684.18,557.47,687.55,561.72,691,560Zm-1.11,51.71a4.09,4.09,0,0,0,5.79-.77c2-2.32,4.19-4.56,6-7.08a4.58,4.58,0,0,0-.38-5.75c-1.33-1.4-4-2-5.46-.43-2.42,2.46-4.53,5.22-6.71,7.92A4.55,4.55,0,0,0,689.9,611.71Zm567.19-62c-1.67-.66-3.25-1.52-4.87-2.28-2.28-1.07-5.36-.4-6.5,2s-.41,5.36,2,6.5c1.63.76,3.24,1.56,4.87,2.29,5.49,2.45,8.8,2,9.94-.47C1263.62,555.46,1261.55,551.45,1257.09,549.67Zm-59,55.94c1.68,1.16,3.84,1.61,5.78,2.17a20.42,20.42,0,0,0,5.78,1.07c3.54,0,5.18-4.69,2.61-7a24.81,24.81,0,0,0-5-3.17,21.51,21.51,0,0,0-5.64-2.54,5.11,5.11,0,0,0-5.89,3.21C1194.75,601.9,1196,604.13,1198.07,605.61Zm51.47,247.21c-1.12,4-3.16,7.58-5,11.32a4.66,4.66,0,0,0,2.14,6.12c2.4,1.15,4.84,0,6.12-2.15,2.48-4.12,3.8-9.07,5-13.68a4.22,4.22,0,1,0-8.28-1.61Zm-63.84,90.43a5.12,5.12,0,0,0-6.66.92,19.47,19.47,0,0,0-3,5.69c-.83,2.11-1.36,3.65-2.09,6-.66,2.1,1.08,4.47,3,5.08s4.7-.14,5.45-2.28a22.69,22.69,0,0,1,2.15-4.6c.06-.1.15-.25.19-.3.24-.35.49-.69.74-1a28.4,28.4,0,0,0,2.09-3A5.1,5.1,0,0,0,1185.7,943.25Zm-7.28,22.61c-2.92,3.77-3.61,9.21-4.24,13.81-.79,5.74,7.62,7.44,8.87,1.72.87-4,3.39-7.25,4.58-11.08C1189.21,965.22,1181.52,961.85,1178.42,965.86ZM1274,486.14a64.8,64.8,0,0,0,7.18,3.82,4.75,4.75,0,0,0,6.34-2,4.81,4.81,0,0,0-2-6.34,64.29,64.29,0,0,0-7-4.06c-2.32-1-5.35-.46-6.52,2S1271.82,484.59,1274,486.14Zm-187.65,542.25c1.47-4.1,3.83-8.39,4.48-12.7.82-5.43-6.88-8.36-9.34-3.09-1.87,4-2.32,8.79-3.38,13.05C1077,1030.39,1084.7,1033.11,1086.39,1028.39Zm62.26-563.54a30.86,30.86,0,0,0,4.54,2.14,39.31,39.31,0,0,0,5.3,2.17c4.61,1.18,8.19-5.23,4.4-8.36a28.8,28.8,0,0,0-5.16-3.07,26.79,26.79,0,0,0-5.58-2.34,5.06,5.06,0,0,0-5.86,3.2A5.15,5.15,0,0,0,1148.65,464.85Zm-44.81,494.54c.88-4,3.39-7.25,4.58-11.08,1.58-5.09-6.11-8.46-9.21-4.45-2.92,3.77-3.6,9.21-4.24,13.81C1094.18,963.41,1102.59,965.11,1103.84,959.39Zm-7.27,30.36a47.7,47.7,0,0,0,4-14.27c.8-5.91-7.89-7.69-9.15-1.78-1,4.42-2.11,9-2.71,13.45S1094.4,994.11,1096.57,989.75Zm-8.7,62.86a4.41,4.41,0,0,0,5.08-3.42,76.88,76.88,0,0,0,1.63-7.9c.28-2.39-1-5-3.64-5.39a4.7,4.7,0,0,0-5.39,3.63,74.31,74.31,0,0,0-1.1,8A4.44,4.44,0,0,0,1087.87,1052.61ZM1276.3,300.7c5.52,1.16,11,2.5,16.62,3.26s7.27-8.36,1.78-9.72-11.1-2.13-16.65-3.1S1270.86,299.56,1276.3,300.7Zm12.78-19.52a5,5,0,0,0,3-9.53c-3.77-1.29-7.8-1.8-11.5-3.31-2.06-.85-4.54.67-5.18,2.67-.74,2.33.64,4.26,2.68,5.19C1281.76,277.87,1285.17,280.11,1289.08,281.18Zm-29.44,365.47c1.1-2.09.36-5.22-1.93-6.22a77.79,77.79,0,0,0-12.73-4.69c-6.26-1.5-8.51,8.24-2.25,9.75a67.07,67.07,0,0,1,10.69,3.1A4.72,4.72,0,0,0,1259.64,646.65Zm1.55-150.1c3.43,3,8.13,4.67,12.21,6.54a4.37,4.37,0,0,0,4.06-7.75,56.21,56.21,0,0,1-5.5-3.11,58.56,58.56,0,0,0-5.29-3.46C1261.92,486.44,1257,492.89,1261.19,496.55Zm-22.44-9.63c-3.53-1.89-7.12-3.64-10.71-5.41-5.1-2.5-9,5-4.1,7.81,3.48,2,6.94,4,10.49,5.83C1239.72,497.92,1244,489.75,1238.75,486.92Zm0,68.25c1.15-2.44.83-5.13-5-8.42-1.37-.77-2.81-1.42-4.21-2.13a5.05,5.05,0,1,0-4.69,9l4.21,2.12C1231.42,556.89,1237.58,557.66,1238.75,555.17Zm-32-62.6c-5-1.44-8.24,6.75-3.24,8.73,4.34,1.73,8.85,4.42,13.45,5.28,5.79,1.08,9.22-7.06,3.67-9.9C1216.44,494.53,1211.31,493.87,1206.78,492.57Zm15,74c-6-2.76-10.4,5.67-4.73,9,4.35,2.58,9,4.63,13.59,6.83,5.57,2.69,9.87-5.45,4.47-8.53C1230.75,571.43,1226.41,568.72,1221.81,566.6Zm-17.93-39.14c.54.19.85.32,1.61.65s1.48.68,2.21,1a47.85,47.85,0,0,1,4.23,2.44c2.15,1.38,5.27.13,6.39-2,1.29-2.47.13-4.94-2-6.39a52.71,52.71,0,0,0-9.07-4.86c-2.69-1.14-5.75-.27-6.83,2.65S1201.11,526.5,1203.88,527.46ZM1196,549.27a55,55,0,0,0,6.76,3.09A45.58,45.58,0,0,0,1210,555a4.06,4.06,0,0,0,4.7-2.56,4.16,4.16,0,0,0-1.89-5,59.78,59.78,0,0,0-6.13-3.39c-2.06-1.08-4.08-2.29-6.24-3.19C1194.85,538.45,1190.66,546.1,1196,549.27Zm48.1-116.67c-1.33,2.84.24,5.45,2.88,6.66a145.16,145.16,0,0,0,14.06,5.57c5.33,1.81,7.66-6.09,2.62-8.21a136.26,136.26,0,0,1-12.6-6.06A4.86,4.86,0,0,0,1244.13,432.6Zm-5,23.93c2.3,1.69,4.81,3,7.17,4.65s4.62,3.53,7.1,5c5,3,9.72-4.28,5.77-8.19a34.29,34.29,0,0,0-7.69-5.3,38.1,38.1,0,0,0-8.41-3.67C1239.12,448,1235.57,453.88,1239.18,456.53Zm5.41,57.13a51,51,0,0,0,15.15,4.86c6.31,1.08,8.54-8.16,2.25-9.74-4.7-1.18-9.56-2.59-14.32-3.41S1240,511.17,1244.59,513.66Zm24.48-108.4c.79-2.48-.67-4.63-2.88-5.59-3.94-1.7-8.09-3.51-12.4-4-5.41-.58-7,7.94-1.71,9.4,3.85,1.06,7.67,1.53,11.41,3.05C1265.71,409,1268.38,407.42,1269.07,405.26Zm-13.91,169.07a36.81,36.81,0,0,0-7.78-2,4.5,4.5,0,0,0-4.49,3.05,4.65,4.65,0,0,0,1.79,5.11,36.07,36.07,0,0,0,6.64,3.74,70.29,70.29,0,0,0,7.55,3.57,5.79,5.79,0,0,0,7.22-3.65c1.06-3.21-.83-5.94-3.65-7.23A66.14,66.14,0,0,0,1255.16,574.33Zm-24.31-56.22a5.1,5.1,0,0,0-2.29,9.94c3,.81,5.92,1.57,8.89,2.33a5.13,5.13,0,0,0,2.31-10C1236.79,519.6,1233.83,518.84,1230.85,518.11Zm-545.22-48.8c-2.3-.36-4.07,1.33-4.56,3.57-.69,3.23-1.47,6.45-2,9.71a4.37,4.37,0,0,0,3.48,4.91c2.37.38,4.1-1.36,4.64-3.63.75-3.22,1.26-6.49,1.85-9.74A4.29,4.29,0,0,0,685.63,469.31Zm462.19,21.22c4,1.93,8,3.47,11.82,5.69a4.9,4.9,0,0,0,4.56-8.68,51.71,51.71,0,0,0-13-6.15C1145.84,479.93,1142.79,488.09,1147.82,490.53ZM1375,787a14.8,14.8,0,0,0,5.3.8,19,19,0,0,0,4.06.07,4.32,4.32,0,0,0,3.8-3.34,4.16,4.16,0,0,0-2.27-4.51,21.6,21.6,0,0,0-4.77-1.1l-2-.32a9.44,9.44,0,0,0-3.59.13c-1.71.35-2.89,2.37-3,4A4.48,4.48,0,0,0,1375,787Zm22.53-69.51c-2.14-.15-4.22-.53-6.33-.85-2.6-.38-5.48,1.21-5.9,4a5.11,5.11,0,0,0,4,5.89,44.31,44.31,0,0,0,7.64.47,4.78,4.78,0,0,0,4.44-4.48C1401.46,720.35,1399.87,717.66,1397.49,717.49Zm-23.58,45.1a4.87,4.87,0,0,0,3.79,5.62c3.36.77,7.66,1,11-.18a4.57,4.57,0,0,0,3-4.52c-.12-1.84-1.66-3.93-3.61-4.1-3-.27-5.6-.1-8.56-.61A4.88,4.88,0,0,0,1373.91,762.59Zm28.61,56.64a60.14,60.14,0,0,0,8.45,1.11c2.4.16,4.74-1,5.24-3.54a4.51,4.51,0,0,0-3.54-5.24c-2.8-.42-5.57-1-8.33-1.65a4.75,4.75,0,0,0-1.82,9.32ZM1388,803.67l6.6.23c2,.06,3.65-2,3.77-3.81a4.06,4.06,0,0,0-3.26-4.26l-6.55-.89a4.44,4.44,0,0,0-5.21,4C1383.13,801.8,1385.33,803.58,1388,803.67ZM1259,280.11c-3.76-1.29-7.8-1.8-11.49-3.31-2.06-.85-4.55.67-5.19,2.67-.74,2.33.65,4.25,2.68,5.18,3.65,1.67,7.06,3.91,11,5a5,5,0,1,0,3-9.52Zm120.18,455.71c-2.34-.12-4.71-.36-7.05-.28a4.77,4.77,0,0,0-4.41,4.46c-.14,2.14,1.44,4.78,3.81,5,2.74.22,5.49.14,8.24.11a4.68,4.68,0,0,0,4.34-4.93C1383.78,737.41,1381.74,736,1379.15,735.82Zm47.31-19.94-10.88-1.52a4.66,4.66,0,1,0-.59,9.24l11-.17a3.31,3.31,0,0,0,2.77-1.5v-4.69A3.33,3.33,0,0,0,1426.46,715.88ZM1425,731.61c-1.89,0-3.86-.49-6-.22a5.59,5.59,0,0,0-5.07,5.22,5.49,5.49,0,0,0,4.46,5.75,27.62,27.62,0,0,0,7.08-.42c1.07-.13,2.18-.25,3.28-.42v-10C1427.5,731.55,1426.25,731.6,1425,731.61Zm-.9,21.79a5.5,5.5,0,0,0,4.64,5V747.45C1426,747.69,1423.79,750.81,1424.11,753.4Zm-23.64-17.61c-1.5-.18-3-.46-4.49-.62a5.26,5.26,0,0,0-6,4.05,5.2,5.2,0,0,0,4,6,22.87,22.87,0,0,0,11.47-.38c4.17-1.33,4-8.16-.58-8.75C1403.41,735.9,1401.9,736,1400.47,735.79Zm5.35,17.37a14.28,14.28,0,0,0-5.37.62,4.35,4.35,0,0,0,1.66,8.43,31.06,31.06,0,0,0,4.25-.68,22.9,22.9,0,0,0,4.61-.78c2.9-1,3.34-5.34.41-6.68A13.45,13.45,0,0,0,1405.82,753.16Zm15.08-55.94a95.68,95.68,0,0,0-10-1.42,5.14,5.14,0,0,0-5.89,4c-.49,2.47,1.25,5.63,4,5.89a107.21,107.21,0,0,0,11.32.75C1425.71,706.37,1425.92,698.33,1420.9,697.22Zm-385.29,353.25c-1.58,2.6-2.82,5.44-4.19,8.16a4.45,4.45,0,0,0,2.06,5.88,4.52,4.52,0,0,0,5.89-2.06c1.44-2.68,3.06-5.33,4.28-8.12a4.52,4.52,0,0,0-2.09-5.94A4.59,4.59,0,0,0,1035.61,1050.47Zm35.64-99.91a4.47,4.47,0,0,0-5.84,2.05,59.61,59.61,0,0,0-3.55,6.7c-.85,2.19-.26,5,2.1,6s4.64,0,6-2.11a59.58,59.58,0,0,0,3.33-6.81A4.43,4.43,0,0,0,1071.25,950.56Zm7.18,9.16a50.73,50.73,0,0,1-2.71,5.23,53,53,0,0,0-3.06,5c-2,4.49,4.16,8.92,7.43,4.84,2.64-3.29,4.09-7.72,5.7-11.58a4.08,4.08,0,0,0-7.36-3.54Zm5.31-18.79.21.12a4.47,4.47,0,0,0,4.52-.33c2-1.54,2.67-4,3.59-6.28l2.7-6.71c2.06-5.1-5.46-8.85-7.77-3.74-1.4,3.08-2.62,6.39-4.21,9.42C1080.39,935.24,1081.07,939.43,1083.74,940.93Zm-30.61,57.61c-2.46,4.1,4.4,8.68,7.11,4.64l4-6c.67-1,1.35-2,2-3q.59-.87,1.14-1.74c4.19-1.18,4.32-7.76-.38-8.74-4.21-.88-6.43,2.37-8.34,5.53S1055,995.42,1053.13,998.54ZM1421,796.77a4.4,4.4,0,0,0-4.57-3.56c-1.55.13-3.11.25-4.67.32s-3.15-.12-4.68.06a5,5,0,0,0-4.58,5.21c.19,2.9,2.56,4.43,5.21,4.57,3.33.19,7.18-.84,10.41-1.58C1420.18,801.31,1421.37,798.72,1421,796.77Zm-352.63,264.78c1.09-1.88,1.6-4.25,2.41-6.28a60.54,60.54,0,0,1,2.81-6.07c2-3.79-3.74-7.69-6.39-4.16a68.14,68.14,0,0,0-4.31,6.44,22.52,22.52,0,0,0-3.18,7.2C1058.74,1064,1065.75,1066,1068.32,1061.55Zm-13.08-19.06a4.42,4.42,0,0,0,5.09-3.44c1-3.7,2.4-7.3,3.5-11,1.49-5-6.84-7.78-8.68-2.88a91.86,91.86,0,0,0-3.35,12.21A4.39,4.39,0,0,0,1055.24,1042.49ZM1428.75,792a5.84,5.84,0,0,0,0,7.12Zm-384.5,185.95a31.7,31.7,0,0,0-4.69,7.34,35.76,35.76,0,0,0-3.14,8c-.85,3.76,4.74,6.87,7.1,3.43,1.5-2.2,2.68-4.59,4.1-6.83s3.14-4.42,4.45-6.78C1054.72,978.23,1047.76,974.13,1044.25,977.93Zm382.56-195,1.94-.47v-9.21l-3.8.26a4.85,4.85,0,0,0-4.4,5.76C1421.14,782.23,1424,783.6,1426.81,782.9Zm.87-100.36a4,4,0,0,0,1.07,3.12v-5.73A4.23,4.23,0,0,0,1427.68,682.54Zm-388.22,330.8c-1.91,4.21-3.35,8.62-5.28,12.83-2.4,5.24,5.52,9.08,8.09,3.88a82.26,82.26,0,0,0,5.82-13.84C1049.5,1011.17,1041.58,1008.66,1039.46,1013.34Zm40.19-13.52c2.41-5-5.34-8.77-7.8-3.76-1.65,3.35-3.16,6.75-4.69,10.16-2.17,4.82,4.95,8.25,7.41,3.56C1076.3,1006.47,1078,1003.18,1079.65,999.82Zm320.68-214.9c3.72-.53,7.85-1,11.33-2.48a4,4,0,0,0-1.54-7.84c-3.46,0-6.94.64-10.41.81C1393.52,775.7,1394.3,785.77,1400.33,784.92ZM1154.11,989.33a4.33,4.33,0,0,0,4.7-1.84,33.9,33.9,0,0,0,3.27-6.3,67.25,67.25,0,0,0,3.08-7.15,5.4,5.4,0,0,0-3.64-6.61c-3-.88-5.5,1-6.61,3.63a62.91,62.91,0,0,0-2.16,6.87,34.74,34.74,0,0,0-1.63,7.32A4.19,4.19,0,0,0,1154.11,989.33Zm-5.75-23.75a4.7,4.7,0,0,0,6.13-2.15c2.21-3.88,5-7.5,7-11.47a5.28,5.28,0,0,0-2.44-7c-2.71-1.31-5.51,0-7,2.44-2.26,3.8-3.81,8.07-5.89,12A4.65,4.65,0,0,0,1148.36,965.58Zm20.76-30c.86-1.83,1.69-3.64,2.39-5.54.43-1.17,2-7.24,1.55-8.46a4.8,4.8,0,0,0-2.41-2.73c-2.25-1-6.52,4.74-7.57,7.14-.81,1.86-1.46,3.75-2.1,5.67a4.92,4.92,0,0,0-.22,3.4,4.53,4.53,0,0,0,8.36.52Zm23-4.54c1.27-4.08,3.48-7.76,5.24-11.63,2.61-5.74-6.08-10-8.86-4.25-2.17,4.49-3.25,9.5-4.55,14.29a4.19,4.19,0,0,0,3.29,4.87C1189.67,934.75,1191.47,933.15,1192.14,931Zm-14-37.86c1.67-5,3.16-10.1,4.71-15.15,1.48-4.84-6.84-7.66-8.48-2.81-1.69,5-3.46,10-5,15S1176.43,898.18,1178.11,893.14Zm-24.43,24.34a5,5,0,0,0,3.71.23,4.8,4.8,0,0,0,2.87-2.53l1.46-4.22c.43-1.24,1.78-7.17,1.34-8.47a5,5,0,0,0-2.51-2.84c-2.24-1-5.57-.28-6.51,2.28-.52,1.39-2.15,7.58-2.66,9a5.28,5.28,0,0,0-.23,3.71A5,5,0,0,0,1153.68,917.48Zm-1.35-375.12a135.87,135.87,0,0,1-11.35-8.17,4.86,4.86,0,0,0-7.21.81c-1.81,2.56-.72,5.41,1.67,7a148.09,148.09,0,0,0,12.89,7.94C1153.26,552.68,1156.93,545.32,1152.33,542.36Zm-25.79,331.85c-1.12,3.19-2.75,6.07-4.12,9.14a4.54,4.54,0,0,0,8.18,3.93,47.57,47.57,0,0,0,3.77-9.3c.75-2.22.27-4.7-2-5.8C1130.41,871.25,1127.32,872,1126.54,874.21ZM1137,915.16a107.16,107.16,0,0,0,5.22-14.68c1.49-5.12-6.44-7.48-8.68-2.88a108,108,0,0,0-5.87,14.47C1125.91,917.48,1134.65,920.2,1137,915.16Zm-4.35-392.71c3.82,1.83,7.81,3.17,11.54,5.23,4,2.23,8.64-3.89,4.76-6.76s-8.22-5.85-13-7.33C1130.72,512,1127.75,520.12,1132.6,522.45Zm18.09,338.26c2.41.75,4.4-.35,5.7-2.38a27.55,27.55,0,0,0,2.06-4.91l1.91-5a4.57,4.57,0,0,0-2.08-5.93,4.5,4.5,0,0,0-5.93,2.08c-1.65,3.47-3.87,7.06-4.8,10.81A4.67,4.67,0,0,0,1150.69,860.71Zm46.91,93.18c1.85.58,4.48-.14,5.2-2.18a22.18,22.18,0,0,1,2.22-4.79c.74-1.16,2.22-2.93,3.13-4.36,1.46-2.31-.06-5.91-2.43-6.93-2.83-1.21-5.37,0-6.93,2.42a25.06,25.06,0,0,0-2.11,5.17c-.68,1.93-1.33,3.86-1.94,5.82S1195.76,953.31,1197.6,953.89ZM1151.91,887a4.67,4.67,0,0,0,5.37-3.62c1.09-4,2-8,3-12a4.39,4.39,0,0,0-3.44-5.09c-2.49-.48-4.42,1.18-5.09,3.43-1.18,4-2.4,7.91-3.49,11.89C1147.64,884,1149.61,886.5,1151.91,887Zm64.87,37.3a39.45,39.45,0,0,1,2.08-6.65c.94-2.24,2.26-4.31,3.15-6.54,2.5-6.26-5.87-10.15-9.33-4.49-2.77,4.52-3.85,10.8-4.62,16C1207.23,928.2,1215.5,929.84,1216.78,924.25Zm88.94-570.62a99.69,99.69,0,0,0-13.46-1.73,4.66,4.66,0,1,0-.49,9.31c4.09.52,8.12,1.46,12.19,2.08C1309.46,364.13,1311.21,354.86,1305.72,353.63Zm-6,39.63a5,5,0,0,0-4.66-5.18,80.89,80.89,0,0,0-8.67,0,4.65,4.65,0,0,0-.48,9.28,83,83,0,0,0,8.63.56C1297.09,397.87,1299.67,396.06,1299.69,393.26ZM1285.63,454a58.3,58.3,0,0,1-9.66-1.24c-2.24-.43-4.56.39-5.31,2.75a4.27,4.27,0,0,0,2.74,5.3c3.48,1,7,1.73,10.51,2.65a4.84,4.84,0,1,0,1.72-9.46Zm6.31-42.19c-3.64-1.18-8.07-1.47-11.88-1.63-5.25-.21-6.77,7.47-1.66,9.1,3.63,1.15,7.9,2.42,11.71,2.55C1295.9,422,1297.56,413.65,1291.94,411.82Zm-31.22-75.33a4.83,4.83,0,0,0,3.07,5.94c3.06,1.13,6.12,2.46,9.26,3.34a4.85,4.85,0,0,0,6-3.1,4.92,4.92,0,0,0-3.1-6c-3-1.3-6.2-2.19-9.29-3.24A4.78,4.78,0,0,0,1260.72,336.49Zm6.13-25c-2,.16-3.64,2.46-3.73,4.35a4.88,4.88,0,0,0,3.26,4.72,31.33,31.33,0,0,0,5.71,1.4c2.08.45,4.29,1.22,6.41,1.24a5.09,5.09,0,0,0,1.81-9.92c-2-.86-4.58-1-6.75-1.33A28.51,28.51,0,0,0,1266.85,311.47Zm-39.71,552.42c1.17-2.7,2.35-5.38,3.57-8a4.46,4.46,0,0,0-8-3.87c-1.25,2.66-2.53,5.3-3.82,7.93a4.6,4.6,0,0,0,8.28,4Zm-1.4,33.08a3.84,3.84,0,0,0,5.09-1.78c2-4.94,5.07-9.16,7.64-13.76,3.15-5.61-6-10.09-9-4.35-2.44,4.64-3.67,9.91-5.46,14.81A3.91,3.91,0,0,0,1225.74,897Zm76.88-374.49c.66-2.88-1.19-5.2-3.8-6.08a109.4,109.4,0,0,0-14.31-4c-6.33-1.22-8.32,7.82-2.23,9.67,4.75,1.45,9.55,2.69,14.27,4.25C1299.14,527.13,1302,525,1302.62,522.48Zm-37,113.45c2,2.32,6,1.18,7.34-1.28s-.06-6.36-3.11-6.76c.15.28,0,.25-.43-.09l-1-.46c-.66-.3-1.3-.61-2-.94l-3.84-2a4.19,4.19,0,1,0-3.89,7.42c1.25.7,2.52,1.4,3.77,2.11A12.75,12.75,0,0,1,1265.6,635.93Zm-60.89-69.67c-4-2.32-7.87-5.06-12-6.94a4.93,4.93,0,0,0-6.48,2c-1.31,2.51-.14,5,2,6.48,3.79,2.57,8.18,4.46,12.23,6.61C1205.69,577.22,1209.82,569.25,1204.71,566.26Zm75.21,43.24c.37.27.73.55,1.08.83a28.49,28.49,0,0,0,3.11,2.35,5.49,5.49,0,0,0,6.26-8.9,20.86,20.86,0,0,0-6-3.46c-2.23-1-3.86-1.6-6.31-2.47-2.23-.79-4.84,1-5.56,3s0,5,2.24,5.93a24.34,24.34,0,0,1,4.85,2.47Zm-3.36,56.11a4.91,4.91,0,0,0,3.68.36,4.92,4.92,0,0,0,.89-9.06c-1.77-1-7.92-5.61-9.75-6.49a4.44,4.44,0,0,0-5.63,1.38,4.38,4.38,0,0,0,.59,5.77C1268.26,659.08,1274.52,664.25,1276.56,665.61ZM1146.37,509.28c3.61,1.72,7.29,2.84,10.71,5,2,1.27,4.94.14,6-1.87,1.2-2.3.14-4.68-1.87-6-3.59-2.36-7.36-4.87-11.52-6.07C1144.46,498.81,1141.44,506.93,1146.37,509.28Zm22.3-28.59c2,1.23,4.49,1.87,6.63,2.81a68.7,68.7,0,0,1,6.41,3.24c4,2.28,8.38-3.72,4.7-6.68a71.77,71.77,0,0,0-6.75-4.87c-2.3-1.47-4.89-3.11-7.59-3.68C1166.41,470.33,1164,477.76,1168.67,480.69Zm36.11,406.91c1.92.63,4.69-.16,5.43-2.27,1-2.76,2-5.5,2.79-8.32a4.74,4.74,0,0,0-3.73-5.53c-2.79-.42-4.72,1.22-5.54,3.73s-1.32,4.88-1.94,7.33A4.46,4.46,0,0,0,1204.78,887.6ZM1201,865c1.09-3.29,2.06-6.61,3.06-9.92.64-2.1-1-4.44-3-5s-4.68.13-5.41,2.26c-1.24,3.64-2.51,7.28-3.66,11-.74,2.36,1.39,4.93,3.62,5.37C1198.29,869.13,1200.21,867.35,1201,865Zm26.52-244.5c-4.64-1.72-9.11-3.41-13.6-5.51-5.73-2.67-10.34,5.93-4.6,8.77a42.27,42.27,0,0,0,16.44,4.35C1229.61,628.26,1231.3,621.9,1227.5,620.49Zm6-2.42a97.24,97.24,0,0,1,11.21,4.4c5.31,2.56,9.58-5.46,4.27-8.14a86.86,86.86,0,0,0-13.33-5.57c-2.46-.77-5.18,1.2-5.73,3.58C1229.24,615.06,1231,617.24,1233.45,618.07Zm-5-27.57c-4-2.19-8-4.44-12-6.7-5.62-3.2-10.47,5.94-4.68,8.92q6.11,3.12,12.14,6.34C1229.42,602,1233.88,593.5,1228.42,590.5Zm-58.59-62.66c3.37,1.77,7.36,3.75,11.09,4.55,5.66,1.2,8.76-6.77,3.54-9.55-3.38-1.8-7.69-2.85-11.42-3.67C1167.91,518,1165.08,525.35,1169.83,527.84ZM1267,602.38c-3.94-3.27-9.74-4.2-14.65-5-6.12-1.07-8.27,7.88-2.18,9.44,4.25,1.09,7.65,3.9,11.72,5.32C1267.24,614,1271.14,605.86,1267,602.38Zm-85.44-12.33a11,11,0,0,0,2.73,1.06l1,.34.63.25c1.42.59,2.83,1.25,4.2,2,4.15,2.15,8.66-3.75,4.84-6.87-2.61-2.14-5.83-4.38-9.22-5.27-1.64-.81-3.29-1.61-5-2.37a4.49,4.49,0,0,0-6,1.85c-1,2.07-.39,4.93,1.85,6,1,.48,2.1.94,3.15,1.4A5.82,5.82,0,0,0,1181.52,590.05Zm10.1-90.06a81.78,81.78,0,0,0-8.53-1.49,4.64,4.64,0,1,0-2.09,9.05,81.59,81.59,0,0,0,8.4,2.05c2.55.39,5.4-.94,5.92-3.7A5,5,0,0,0,1191.62,500Zm-32.83,45.42c3.62,1.57,7.06,3.66,10.71,5.13,2.59,1,5.61.47,7-2.18a5.27,5.27,0,0,0-2.18-7c-3.71-2.15-8.24-3.36-12.34-4.56C1157,535.34,1153.94,543.31,1158.79,545.41Zm11.5,310.88a4.53,4.53,0,0,0,3.37.21,5.08,5.08,0,0,0,2.6-2.3l1.65-2.73a4.53,4.53,0,0,0,.21-3.41,4.53,4.53,0,0,0-8.38-.52l-1.54,2.78a4.47,4.47,0,0,0,2.09,6Zm-12.6-288.42c3.25,1.61,6.61,2.92,9.89,4.43a4.84,4.84,0,1,0,3.34-9,57.24,57.24,0,0,1-9.3-2.9c-2.13-.81-4.56-.4-5.7,1.78A4.26,4.26,0,0,0,1157.69,567.87Zm31.18,340.7c.9-2.12,1.76-4.26,2.75-6.33s2.22-4,3-6.2a5.24,5.24,0,0,0-2.39-6.81c-2.3-1.1-5.85-.21-6.81,2.39-1.72,4.67-2.7,9.66-4.2,14.42C1179.85,910.42,1187.07,912.75,1188.87,908.57Zm14.54-454.63a87.25,87.25,0,0,0,14.63,6.75c5.35,1.71,8.33-6.69,3.39-9.14-4.44-2.2-9.11-3.91-13.55-6.14C1202.35,442.64,1197.93,451,1203.41,453.94Zm25.48-22.68c-3.21-1.48-6.51-2.72-9.77-4.09a5,5,0,0,0-6.57,2.05,4.92,4.92,0,0,0,2,6.57c3.19,1.49,6.33,3.09,9.57,4.47a5.22,5.22,0,0,0,6.86-2.14A5.12,5.12,0,0,0,1228.89,431.26Zm41.75,145.48c4.08,2.51,7.85,5.63,12,7.93a5.66,5.66,0,0,0,7.55-2.35c1.5-2.86.2-5.91-2.35-7.54-4-2.57-8.52-4.39-12.64-6.77a4.93,4.93,0,1,0-4.59,8.73ZM1166.8,443.23a4.82,4.82,0,0,0,2,6.38c2.82,1.65,5.6,3.49,8.54,4.89a4.85,4.85,0,0,0,6.45-2,4.92,4.92,0,0,0-2-6.46c-2.73-1.8-5.73-3.23-8.59-4.8A4.77,4.77,0,0,0,1166.8,443.23Zm64.75,31,6.31,4.56,3.16,2.29,1.82,1.29c1.11,4.53,8.16,4.91,9.39-.09,1.09-4.47-2.31-7-5.62-9.15s-6.54-4.23-9.82-6.35C1232.48,464,1227.32,471.15,1231.55,474.21Zm-41.32-50.43c-1.83-1.19-4.34-1.76-6.41-2.48a28.38,28.38,0,0,0-6.53-1.62c-2-.2-4,1.79-4.44,3.64a4.9,4.9,0,0,0,2.4,5.21,31.16,31.16,0,0,0,5.38,2.37c2,.8,4,2,6.1,2.33a5.11,5.11,0,0,0,5.87-3.2A5.17,5.17,0,0,0,1190.23,423.78Zm-.64,43.6a4.76,4.76,0,0,0,3.49,5.59c3.94,1.22,7.74,2.84,11.64,4.16,5.28,1.78,8.61-7,3.42-9.21a99.22,99.22,0,0,0-13-4A4.72,4.72,0,0,0,1189.59,467.38Zm51.21-46.94c4.09,1.15,8.24,1.77,12.28,3.16,4.35,1.49,7.83-5.34,3.51-7.5s-9.11-4.32-14.09-5C1237.13,410.47,1235.62,419,1240.8,420.44ZM1282,441.7c2.74.58,5.6-.5,6.51-3.36a5.28,5.28,0,0,0-3.36-6.52c-4-1.47-8.69-1.87-12.94-2.34-5.16-.57-6.79,7.8-1.65,9C1274.42,439.43,1278.17,440.89,1282,441.7Zm-1,96.85a111,111,0,0,0-14.31-4c-6.33-1.21-8.32,7.82-2.23,9.68,4.75,1.45,9.55,2.68,14.27,4.24,2.59.86,5.49-1.3,6.07-3.79C1285.45,541.74,1283.6,539.42,1281,538.55Zm2-161.8c4.33,1.56,7.62-5.12,3.48-7.4a74.79,74.79,0,0,0-7.49-3.62c-2.53-1.05-5.37-2.21-8.12-2.3-5.78-.18-6.87,7.56-1.76,9.62,2.16.88,4.75,1.07,7,1.63A65.44,65.44,0,0,1,1283,376.75Zm-23-22.27a29.24,29.24,0,0,0-5.61-2.14,27.84,27.84,0,0,0-5.9-1.33,5.09,5.09,0,0,0-5.23,4.17,5.15,5.15,0,0,0,3.41,5.75,31.33,31.33,0,0,0,4.85,1.32,38.58,38.58,0,0,0,5.6,1.22C1261.79,363.84,1264.2,356.9,1259.93,354.48Zm-9.68,31.89c4.22,1.21,8.48,2,12.63,3.55a4.9,4.9,0,0,0,3-9.34,51.59,51.59,0,0,0-13.86-3.8C1246.46,376.28,1244.87,384.84,1250.25,386.37ZM592.7,594.49c2.2,1,4.31-.21,5.37-2.27a47.26,47.26,0,0,0,3.63-10.85c1-4.44-5.9-6.5-7.34-2.19-1.09,3.31-2.52,6.44-3.85,9.64A4.49,4.49,0,0,0,592.7,594.49ZM156.2,159.41a4,4,0,0,0-2.22,5.38l2.4,5.05a4.65,4.65,0,0,0,5.75,2.43,4.1,4.1,0,0,0,2.27-5.48l-2.55-5C160.84,159.82,158.37,158.48,156.2,159.41Zm-6.85,20.8a3.85,3.85,0,0,0-3,4.34c.31,1.5.73,3,1.14,4.46a5.1,5.1,0,0,0,1.69,2.82,4.4,4.4,0,0,0,3.85.82,3.94,3.94,0,0,0,2.58-1.85,4.23,4.23,0,0,0,.24-3.77c-.49-1.47-1-2.93-1.53-4.36A4.4,4.4,0,0,0,149.35,180.21Zm-8.78,49.22c-2.42.36-4.5,2.52-4,5.06s.81,5.26,1.23,7.89a5.17,5.17,0,0,0,5.57,4.21,4.66,4.66,0,0,0,4.11-5.23,33.17,33.17,0,0,0-1.54-7.85C145.28,231.18,143.31,229,140.57,229.43Zm4.68-27.86A3.93,3.93,0,0,0,142.2,206a39.18,39.18,0,0,0,2.1,6.51c.74,2,1.46,4,2.26,6a4.78,4.78,0,0,0,5.92,2.51c2.38-.91,3.12-3.37,2.33-5.64-.66-1.91-1.39-3.8-2.11-5.7a36.75,36.75,0,0,0-2.35-5.61C149.27,202.25,147.46,201,145.25,201.57ZM132.7,162.12a3.84,3.84,0,0,0-3,4.36c.46,2,.93,4,1.4,6a4.66,4.66,0,0,0,5.6,3.68,4,4,0,0,0,2.61-1.87,4.31,4.31,0,0,0,.24-3.82l-1.85-5.87C137.08,162.63,134.51,161.69,132.7,162.12Zm-6,23.61,2,5.16a4.6,4.6,0,0,0,5.73,2.42,4.12,4.12,0,0,0,2.26-5.46l-2.1-5.12a4.56,4.56,0,0,0-5.67-2.4A4.06,4.06,0,0,0,126.74,185.73Zm61.85-62.16a4.5,4.5,0,0,0-6-.94c-2,1.41-2,3.85-.72,5.79a47.76,47.76,0,0,0,7.58,8.57c3.32,3.13,8.58-1.86,5.57-5.26C192.7,129.13,190.7,126.33,188.59,123.57Zm-18.93,6.49a4.37,4.37,0,0,0-4.92-2.42c-1.78.45-3.5,2.32-3,4.29a31.38,31.38,0,0,0,6.38,11.87c3.66,4.23,10.18-.41,6.83-4.91A61.17,61.17,0,0,1,169.66,130.06Zm42.73,88.77a4.47,4.47,0,0,0,6.09,2.13c2.38-1.28,2.51-3.87,1.19-6a75,75,0,0,0-6.26-9.1,3.74,3.74,0,0,0-6.07,4.37A66.93,66.93,0,0,1,212.39,218.83Zm-.71-92.46a4.64,4.64,0,0,0-6.21-1,4.26,4.26,0,0,0-.74,6c1.32,2,2.8,3.92,4.23,5.86a4.57,4.57,0,0,0,6.14,1,4.2,4.2,0,0,0,.73-5.92C214.47,130.31,213.15,128.29,211.68,126.37Zm-1.11-18c-1.56-1.94-4.7-2.59-6.65-1a4.52,4.52,0,0,0-.8,6.42c1.25,1.55,2.59,3,3.93,4.51,1.58,1.74,4.37,2.51,6.3,1a4.31,4.31,0,0,0,.75-6.07C213,111.6,211.81,110,210.57,108.42Zm-34.35,57.4a4.21,4.21,0,0,0-.74,6l2.26,3.27a4.66,4.66,0,0,0,6.28,1,4.27,4.27,0,0,0,.75-6l-2.37-3.19A4.59,4.59,0,0,0,176.22,165.82Zm-48.55,99.9c2.34.26,5.38-1.24,5.36-3.86,0-1.77,0-3.53-.08-5.3a13.09,13.09,0,0,0-.76-5.07c-1.48-3.41-6.56-3.5-8-.25-1.18,2.66-.73,6.23-.74,9.12C123.46,262.79,124.86,265.4,127.67,265.72ZM194,147.55c-3.41-4.24-9.86.42-6.62,4.77a73.93,73.93,0,0,0,10.2,11c4.3,3.84,9.87-2.95,5.39-6.67A64,64,0,0,1,194,147.55Zm-101,98a69.47,69.47,0,0,0-2.39-12.32c-1.44-4.6-9.38-2.73-8.3,2,.86,3.74,2,7.41,2.74,11.19C86,251.35,93.61,250.59,93,245.56ZM78.78,276.23c.26,2.11.29,4.42,1.18,6.4a5,5,0,0,0,5,2.89,4.45,4.45,0,0,0,4-3.79c.17-2.17-.53-4.32-1-6.46a4.92,4.92,0,0,0-5.25-4A4.36,4.36,0,0,0,78.78,276.23Zm5.69-64.55c-1.8.43-3.41,2.31-2.92,4.25s1.07,4,1.63,5.95a4.63,4.63,0,0,0,1.58,2.64,4.42,4.42,0,0,0,3.09.89c2-.3,4-2.2,3.44-4.38-.62-2.33-1.26-4.64-2-6.95C88.77,212.17,86.21,211.27,84.47,211.68Zm-9.09-43.62a3.93,3.93,0,0,0-3.51,4.47c.61,2.84,1,5.69,1.35,8.56a4.6,4.6,0,0,0,4.92,3.72,4.09,4.09,0,0,0,3.63-4.62,50,50,0,0,0-1.63-8.53A4.5,4.5,0,0,0,75.38,168.06Zm14.22-3.82A4.26,4.26,0,0,0,85,160.78a3.79,3.79,0,0,0-3.38,4.3q.55,2.82,1.12,5.66a4.21,4.21,0,0,0,4.52,3.41,3.74,3.74,0,0,0,3.33-4.24Zm-1.85,33.13-.1-.33c-.06-.23-.13-.46-.19-.69-.25-.9-.54-1.77-.85-2.65a4.26,4.26,0,0,0-4.86-2.4,3.81,3.81,0,0,0-2.92,4.25,31.57,31.57,0,0,0,2.24,8.51,4.55,4.55,0,0,0,5.65,2.39c2.27-1,2.94-3.12,2.22-5.38C88.55,199.84,88.15,198.61,87.75,197.37Zm31.33.83a4.09,4.09,0,0,0-2.23,5.4c1,2.92,1.86,5.92,3.14,8.74a4.58,4.58,0,0,0,5.16,2.54c1.88-.44,3.68-2.45,3.11-4.5-.93-3.33-2.27-6.54-3.51-9.78A4.55,4.55,0,0,0,119.08,198.2Zm-14.73-23.78a60.49,60.49,0,0,0,1.88,7.93c.61,2,3.22,2.91,5,2.48s3.57-2.39,3-4.39c-.62-2.28-1.2-4.58-1.64-6.89a4.45,4.45,0,0,0-4.78-3.61A4,4,0,0,0,104.35,174.42Zm-6.11,20.85a4.34,4.34,0,0,0-4.58-3.46c-2,.21-3.89,2.22-3.37,4.29A74.38,74.38,0,0,1,92,204.81a4.24,4.24,0,0,0,4.56,3.44A3.76,3.76,0,0,0,99.9,204,52.9,52.9,0,0,0,98.24,195.27Zm23.34,30.43a4.72,4.72,0,0,0-5-3.78c-2.23.23-4.22,2.42-3.7,4.7.78,3.38,1.69,6.73,2.57,10.08a4.55,4.55,0,0,0,4.83,3.65,4,4,0,0,0,3.56-4.53C123.1,232.45,122.41,229.06,121.58,225.7Zm-8.26-71.17a4.5,4.5,0,0,0-5.59-2.36,4,4,0,0,0-2.2,5.32c.87,2.66,1.74,5.32,2.73,7.94a4.63,4.63,0,0,0,5.77,2.45,4.17,4.17,0,0,0,2.28-5.5C115.39,159.74,114.36,157.14,113.32,154.53ZM101.6,248.86c-2,.5-3.93,2.59-3.31,4.8a51.09,51.09,0,0,1,1.36,6.07c.31,2,.29,4.12.64,6.16.89,5.21,8.91,5.55,9.58.26.6-4.74-.93-10.13-2.76-14.58A4.84,4.84,0,0,0,101.6,248.86Zm-4.85-29.43c.48,3.22.77,6.56,1.53,9.74a4.18,4.18,0,0,0,4,3.4c1.79,0,3.87-1.25,3.88-3.19,0-3.61-.44-7.26-.72-10.87C105,213.09,95.92,213.92,96.75,219.43Zm102,28.35a4.66,4.66,0,0,0,2.05-6,49.87,49.87,0,0,0-6.6-10.27,5,5,0,0,0-6.72-1.06c-2.21,1.59-2.18,4.29-.8,6.48,2,3.09,3.54,6.4,5.57,9.44A5.19,5.19,0,0,0,198.72,247.78Zm86.6-184.11c-1.05,2.45.31,4.93,2.62,6.17a21.67,21.67,0,0,0,15.35,2c2.39-.58,3.47-3.63,2.81-5.74a5.3,5.3,0,0,0-5.59-3.74,14.84,14.84,0,0,1-8.93-1A4.76,4.76,0,0,0,285.32,63.67Zm20.14-20.39A42.85,42.85,0,0,0,294.26,40,4.53,4.53,0,0,0,289,43.75c-.33,2.69,1.64,4.55,4.13,5.25a76.19,76.19,0,0,1,8.45,3.3C307.76,54.86,311.44,46.18,305.46,43.28Zm2.32,91.42c-3.9-1.42-7.87-2.57-11.85-3.7-2.39-.68-4.91,1.33-5.43,3.41a5,5,0,0,0,2.93,5.85c3.91,1.34,7.86,2.6,11.85,3.64C310.77,145.34,313.11,136.64,307.78,134.7Zm-25.68-44a4.06,4.06,0,0,0-3.61,4.6c.37,2.43,2.57,3.73,4.9,3.71a20.62,20.62,0,0,1,7.34,1.35c2.72,1,5.67-.11,6.42-2.88s-1.23-5.18-4-5.94A30.12,30.12,0,0,0,282.1,90.7ZM265.53,77.76c3.85,2,8.59,3.41,12.76,4.63,5.22,1.52,7.55-7,2.39-8.86a69.43,69.43,0,0,0-13-3.57C262.72,69.3,261.33,75.53,265.53,77.76Zm-42.91,98c2.71,1.89,4.86,4.35,7.49,6.3,4.07,3,9.55-1.85,6.25-5.91-2.49-3.07-6.27-5.17-9.7-7.1C222.56,166.69,218.79,173,222.62,175.71Zm34.44-84.79a4.29,4.29,0,0,0,2.47,5,57.77,57.77,0,0,0,8.92,3.6c2.21.61,4.52-1.22,5-3.14a4.68,4.68,0,0,0-2.69-5.4A58.1,58.1,0,0,0,261.65,88,4,4,0,0,0,257.06,90.92Zm6.82,43.28a84.17,84.17,0,0,0,8.79,5.83,4.88,4.88,0,0,0,6.21-1.85c1.09-1.87.89-5-1.29-6.3a82.5,82.5,0,0,0-9.4-4.83C263.64,125,259.81,131.19,263.88,134.2Zm19.51,17.87a98.8,98.8,0,0,1,8.85,5.42,4.78,4.78,0,0,0,6.46-.6c1.37-1.7,1.26-5-.89-6.29a124.57,124.57,0,0,0-11.15-6.15,4.28,4.28,0,0,0-5.64,2.06C280.07,148.72,281.3,150.94,283.39,152.07ZM253.13,168.2c1.47-2.44.23-5.17-2.26-6.53-2.28-1.23-9.42-6.11-11.85-7-4.05-1.43-6.92,2.46-4.75,5.91,1.51,2.42,9.58,7.2,12,8.7S251.63,170.69,253.13,168.2ZM207.7,187.57c3.67,4.53,10.91-.82,7.05-5.08a85.85,85.85,0,0,0-8.59-8.25,4.24,4.24,0,0,0-5.83.54c-1.47,1.81-.86,4.13.8,5.68A70,70,0,0,1,207.7,187.57Zm73.92-22.23c1-2.26-.3-4.46-2.39-5.62-3.09-1.72-6.2-3.38-9.33-5a4.56,4.56,0,0,0-6,2.2,4.67,4.67,0,0,0,2.53,5.93c3.15,1.57,6.31,3.11,9.51,4.59A4.33,4.33,0,0,0,281.62,165.34Zm5.74-42.13c6.45,2.43,9.19-7,2.36-8.74a52.89,52.89,0,0,1-12.22-5,4.19,4.19,0,0,0-5.55,2c-1,2.23.34,4.3,2.33,5.48A84.11,84.11,0,0,0,287.36,123.21ZM257.17,151.6c1.85,1.34,4.72,1.29,6.08-.56a4.24,4.24,0,0,0-.84-5.93c-.63-.41-7.77-3.78-8.4-4.2a4.91,4.91,0,0,0-3.24-.93,4.22,4.22,0,0,0-2.78,1.49c-1.28,1.75,5.39,7.39,7.35,8.81ZM175,232.4c-.46-1.48-1-2.94-1.51-4.41a15.57,15.57,0,0,0-2.25-4.79c-2.32-2.83-7.69-2-7.92,1.82-.13,2.12.6,4.08,1.21,6.11.48,1.57.94,3.13,1.49,4.68a5.17,5.17,0,0,0,6.44,2.73C175.06,237.41,175.79,235,175,232.4Zm7-37.25c1.39-1.31,1.88-4,.34-5.57a35.34,35.34,0,0,1-3.54-4.27,4.65,4.65,0,0,0-6.27-1,4.29,4.29,0,0,0-.75,6,29.71,29.71,0,0,0,4.47,5A4.45,4.45,0,0,0,182,195.15ZM70.77,243.1A4.32,4.32,0,0,0,66.92,248a57.82,57.82,0,0,0,2.43,10.59,4.5,4.5,0,0,0,5.15,2.53,4.06,4.06,0,0,0,3.09-4.49A51.69,51.69,0,0,0,76,247,4.93,4.93,0,0,0,70.77,243.1ZM257.54,72.44c-2.07-1.14-4.14-2.24-6.26-3.26a4.47,4.47,0,0,0-5.91,2.16c-.88,2.36.22,4.61,2.48,5.83,2.07,1.11,4.18,2.14,6.31,3.14A4.4,4.4,0,0,0,260,78.19C260.86,75.84,259.76,73.66,257.54,72.44ZM676.65,557.26c-2.29-1-4.37.24-5.49,2.32-1.42,2.62-2.72,5.3-4.06,8-1,2.05.27,4.79,2.17,5.65,2.24,1,4.25-.24,5.36-2.26,1.42-2.62,2.89-5.22,4.25-7.87C680,561,678.59,558.13,676.65,557.26ZM206,200.84a4.72,4.72,0,0,0-.94-6.57c-.49-.42-1-.84-1.46-1.28-.17-.15-.5-.52-.16-.15-.28-.3-.54-.6-.79-.92a38.14,38.14,0,0,0-2.92-3.69,4.48,4.48,0,0,0-4.89-.43,4.13,4.13,0,0,0-2.12,4.18c.16,2,1.47,3.9,2.63,5.5a18.91,18.91,0,0,0,3.9,4C201.28,203,204.49,202.88,206,200.84Zm-20.16,71.88c1.33,2,4.56,2.3,6.36,1,2.11-1.52,2-4.05.76-6.13-1.86-3-3.07-6.32-4.82-9.39-1.21-2.13-3.58-3.47-6-2.54s-3.07,3.39-2.37,5.73C180.91,265.34,183.57,269.25,185.83,272.72ZM234.57,58.8c-2.75-1.57-5.81-2.71-8.64-4.17-4.78-2.48-9.33,4.87-4.68,7.77,3,1.87,6.15,4.12,9.4,5.54a5.16,5.16,0,0,0,6.76-2.47C238.56,62.77,237,60.21,234.57,58.8Zm-14.64,66.72c2.36,2.73,5.59,5.65,9,7a4.09,4.09,0,0,0,4.2-7c-2.06-1.74-4.26-3.17-6.16-5.11-1.71-1.74-4.26-2.48-6.32-1A4.26,4.26,0,0,0,219.93,125.52ZM172.86,214c2-1.46,2-3.91.74-5.91-1.56-2.54-3.24-5-4.87-7.5a4.45,4.45,0,0,0-6-.94c-2,1.44-1.91,3.8-.72,5.77,1.56,2.54,3.07,5.11,4.7,7.62C168,215,171.13,215.2,172.86,214ZM237.05,86.29a4.48,4.48,0,0,0,.89,6.27c2.66,2,5.44,3.92,8.18,5.84,4.84,3.39,10.3-3.29,5.51-6.82-2.7-2-5.36-4-8.14-5.89A4.77,4.77,0,0,0,237.05,86.29Zm-26.61,60.35a4,4,0,0,0-.34,5.41c2.22,2.5,4.38,5.42,7,7.5a4.21,4.21,0,0,0,6.07-5.74c-1.91-2.71-4.8-5-7.18-7.36C214.52,145,211.75,145.36,210.44,146.64ZM158.7,247.5c.77,3.36,1.44,6.76,2.38,10.09.71,2.51,2.75,4.54,5.61,4.24,2.51-.26,4.7-2.71,4.14-5.26-.74-3.38-1.76-6.72-2.67-10.06a5.15,5.15,0,0,0-5.45-4.12C160.3,242.64,158.12,245,158.7,247.5ZM280.06,50.26c-3.76-1-7.6-2-11.41-2.74-4.59-.93-6.61,6.09-2.08,7.69,4.07,1.43,8.24,2.72,12.4,3.87,2.42.67,4.85-1.51,5.12-3.69C284.42,52.77,282.49,50.93,280.06,50.26Zm-56.18,190.6c1.53-1.9.86-4.26-.84-5.88-2.4-2.31-4.78-4.64-7.27-6.87a4.46,4.46,0,0,0-6.14.57c-1.57,1.94-.87,4.33.84,6,2.4,2.31,4.9,4.52,7.37,6.75A4.41,4.41,0,0,0,223.88,240.86Zm3.38,47.75a5,5,0,0,0,6.7,1.05,4.55,4.55,0,0,0,.8-6.45,84.48,84.48,0,0,1-5.13-8.29,5,5,0,0,0-6.13-2.6,4.37,4.37,0,0,0-2.42,5.84A51.87,51.87,0,0,0,227.26,288.61Zm-24.19,2.48a4.79,4.79,0,0,0,6.41,1,4.35,4.35,0,0,0,.76-6.18l-5.05-7a4.79,4.79,0,0,0-6.41-1,4.34,4.34,0,0,0-.76,6.17ZM136.3,311.74a5,5,0,0,0,6.07,2.57,4.31,4.31,0,0,0,2.39-5.78c-1.41-2.8-2.72-5.67-4.3-8.4-1.23-2.11-3.56-3.45-6-2.53a4.26,4.26,0,0,0-2.35,5.7C133.36,306.17,134.89,308.94,136.3,311.74Zm108.24-46c1.46-1.81.88-4.19-.81-5.73-2.45-2.22-4.85-4.5-7.41-6.6a4.39,4.39,0,0,0-6,.56c-1.51,1.87-.87,4.24.83,5.84,2.41,2.25,5,4.34,7.51,6.47A4.29,4.29,0,0,0,244.54,265.71Zm9.89-19.25c-3.18-3.21-6.29-6.52-9.63-9.58-3.85-3.52-10,2.22-6.4,6.06,3.09,3.29,6.44,6.37,9.69,9.51C251.8,256,258.1,250.16,254.43,246.46Zm-90.71,63.72a4.93,4.93,0,0,0,6.52,1,4.38,4.38,0,0,0,.78-6.28l-8.1-9.22a5.05,5.05,0,0,0-6.68-1.05,4.49,4.49,0,0,0-.8,6.43Zm-8.79-29.61a4.07,4.07,0,0,0,2.24-5.41c-1.24-3.32-3.42-11.61-4.36-14.79-.67-2.27-4-3.44-6-2.56-2.47,1.07-3.1,3.33-2.38,5.76.91,3.1,3.49,11.64,4.85,14.6A4.6,4.6,0,0,0,154.93,280.57Zm107.5-85.26c-3.41-2.22-6.85-4.4-10.34-6.47-2.25-1.34-5-1.49-6.73.62a4.65,4.65,0,0,0,.93,6.55c3.79,2.41,7.64,4.69,11.53,6.94C262.44,205.62,266.91,198.23,262.43,195.31ZM139.65,342.72c.7,2.14,3.47,3.18,5.49,2.7s3.88-2.6,3.29-4.79a58.36,58.36,0,0,0-3.69-10.49c-1.09-2.26-4-3.73-6.36-2.69a4.53,4.53,0,0,0-2.51,6.05A89.68,89.68,0,0,1,139.65,342.72ZM166,336.58c4.21,3.33,9.9-2,6.53-6.19a97.92,97.92,0,0,0-6.44-7.94c-6.16-6.25-10.75-.62-7.74,4.16C160.51,330.08,162.67,334,166,336.58ZM180.09,284c-2.05-2.71-4-5.49-6.08-8.2-2.95-3.89-9.92-.42-7.5,4a37.42,37.42,0,0,0,7.77,9.67C177.93,292.71,182.88,287.64,180.09,284Zm10.43,31.25c2.07,1.28,4.7,1.36,6.28-.58s-1.79-7.4-3.66-9a43.24,43.24,0,0,1-5.39-5.08,5,5,0,0,0-6.59-1,4.44,4.44,0,0,0-.79,6.35C182.55,308.28,187.73,313.47,190.52,315.2ZM215.14,267c1.79-1,3.13-3.57,1.92-5.6a103.32,103.32,0,0,0-6.09-9.12,5,5,0,0,0-6.68-1c-2.2,1.58-2.16,4.26-.8,6.43a89.86,89.86,0,0,0,5.59,8A4.88,4.88,0,0,0,215.14,267Zm532.79,787.28c-8.39-15.71-26-18.78-41.44-20.33l-34.75-3.49c-10.18-1-22.92-4.71-24.67-16.86-1.29-8.92,4.51-16.85,10-23,13.66-15.28,28.38-29.35,40.28-46.66s21-38.65,20.72-61.14c-.44-43.66-28.61-80.85-53.76-108.33-55.39-60.52-121.19-107.06-192-135.78-5.84-2.37-12-4.65-18.07-3.23-13.89,3.24-19.95,24.09-18,41s9.2,32.46,11.06,49.4c3.79,34.5-17.69,69.26-45.55,78.11s-59-6.57-76.34-34.37S304.1,703.7,311.88,670.2c10.66-45.85,41.69-91.88,25.56-135.34-10.94-29.48-39.72-42.55-66.23-46.82-82.94-13.37-168.12,32.5-224.53,107.16C31.09,615.83,14.56,637.84-2.5,658.06v413H752.28A38,38,0,0,0,747.93,1054.28Zm241.75,8.82a4.66,4.66,0,0,0-8.4-4c-1.68,3.31-2.67,7-4.55,10.19a3.06,3.06,0,0,0-.39,1.79h8.35A46.44,46.44,0,0,0,989.68,1063.1ZM350.8,98.92c6.07.79,7.23-8.17,1.13-9.1-3.69-.55-7.38-1.16-11.08-1.55-6.08-.63-7.23,8-1.13,9.1C343.4,98,347.1,98.44,350.8,98.92ZM-2.5,179.48a4.21,4.21,0,0,0,4.18-3.6c.4-3,.5-6.11.6-9.1A4.53,4.53,0,0,0-1.48,162a5.09,5.09,0,0,0-1,0Zm1431.25,629.7-.64-.1a5.32,5.32,0,0,0-6.12,4.13c-.59,3,1.42,5.29,4.13,6.12a13.32,13.32,0,0,0,2.63.51ZM1149.9,1068.93c1.39-3.07,2.51-6.24,3.81-9.35a4.52,4.52,0,1,0-8.51-2.82,54.31,54.31,0,0,1-2.39,8.76c-.69,2-.23,4.25,1.84,5.25a3.44,3.44,0,0,0,.76.27h1.77A3.82,3.82,0,0,0,1149.9,1068.93ZM339.34,113.19c1-2.28-.28-4.68-2.48-5.82a44.56,44.56,0,0,0-8.6-3.35c-2.12-.59-4.32,1.16-4.79,3a4.43,4.43,0,0,0,2.58,5.15,60.12,60.12,0,0,1,7.38,3.18A4.48,4.48,0,0,0,339.34,113.19Zm-39.4,81.3a4.76,4.76,0,0,0-.94-6.64c-2.46-2.06-4.8-4.24-7.12-6.45a4.92,4.92,0,0,0-6.4.22c-1.53,1.49-2.11,4.42-.39,6.19a91.35,91.35,0,0,0,8,7.32A5,5,0,0,0,299.94,194.49ZM270.6,238.82a4.6,4.6,0,0,0,6.08-.57c3.69-3.86-3.39-7.27-5.08-8.92-2-1.94-6.24-5.23-8.28-7.11a4.79,4.79,0,0,0-6.57.61,4.6,4.6,0,0,0,.91,6.41C259.75,231,268.45,237.08,270.6,238.82Zm20-27c1.64-2,1-4.81-.92-6.52-2.66-2.3-5.3-4.61-8-6.86a4.93,4.93,0,0,0-6.75.63c-1.65,2-1,4.85.93,6.57,2.65,2.31,5.36,4.55,8.06,6.8A4.88,4.88,0,0,0,290.63,211.86Zm18.52-36.23a4.45,4.45,0,0,0-2.41-5.67l-7-3.19a4.34,4.34,0,0,0-5.7,2.08,4.4,4.4,0,0,0,2.39,5.62l7,3.25A4.36,4.36,0,0,0,309.15,175.63Zm8.35-18.46c2.33.72,5.13.21,6-2.21.77-2.06-.05-5.14-2.53-6l-7.1-2.31c-2.34-.76-5.19-.2-6.1,2.23-.77,2.06,0,5.23,2.56,6Zm11.55-28.11c-3.17-.62-6.33-1.29-9.52-1.78a4.52,4.52,0,0,0-5.23,3.77,4.9,4.9,0,0,0,4.11,5.23c3.16.7,6.35,1.22,9.52,1.79C333.94,139.15,335,130.23,329.05,129.06ZM89.85,337.17a4.88,4.88,0,0,0,0-3.43l-1.53-4.61a4.88,4.88,0,0,0-2.5-2.48,5,5,0,0,0-3.61-.11,4.4,4.4,0,0,0-2.41,5.82l1.71,4.55a4.8,4.8,0,0,0,6,2.53A4.27,4.27,0,0,0,89.85,337.17ZM31,295.3A4,4,0,0,0,35.67,292a21.9,21.9,0,0,0-.26-8.57c-.63-2.22-2.54-4.27-5.14-3.88a4.25,4.25,0,0,0-3.79,4.82c.21,1.17.53,2.31.7,3.48.09.58.15,1.17.19,1.75,0,.23,0,.46,0,.68v.42A4.36,4.36,0,0,0,31,295.3Zm111.31-6.63a4.51,4.51,0,0,0,.79-6.43c-1.55-1.86-3.18-3.66-4.8-5.46s-4.57-2.63-6.58-1a4.47,4.47,0,0,0-.79,6.35c1.55,1.86,3.09,3.72,4.7,5.53S140.31,290.27,142.35,288.67Zm-120.27-80a42.54,42.54,0,0,0-3,11.55c-.5,4.42,6.79,6.94,8.17,2.38,1-3.44,2.08-6.87,3.17-10.3C32,207.11,24.26,203.48,22.08,208.67ZM57.47,304a77,77,0,0,0-2.4-8.74c-.68-2.08-3.4-3.1-5.36-2.63s-3.77,2.53-3.21,4.67A76.06,76.06,0,0,0,49.2,306C51,310.43,58.4,308.73,57.47,304ZM36.32,369.76c2.8-.42,4.18-2.54,4.07-5.18-.09-2.11-.16-4.22-.34-6.34a5.12,5.12,0,0,0-5.54-4.18c-2.85.42-4.16,2.54-4.09,5.2.06,2.11.23,4.22.38,6.33C31,368.05,33.89,370.12,36.32,369.76Zm10.37-22.88c1.89-.45,3.64-2.45,3.1-4.5l-1.52-5.72a5.29,5.29,0,0,0-1.77-3,4.68,4.68,0,0,0-4-.87,4.29,4.29,0,0,0-3,5.92q1,2.79,2,5.59A4.54,4.54,0,0,0,46.69,346.88ZM24.53,345.3a4.29,4.29,0,0,0,3.78-4.8c-.16-2.62-.3-5.25-.69-7.86a4.86,4.86,0,0,0-5.23-3.95,4.38,4.38,0,0,0-3.86,4.91c.14,2.61.51,5.23.88,7.83A4.75,4.75,0,0,0,24.53,345.3Zm8.69-115.52c-2.09-.05-4.46,1.49-4.5,3.7a63.15,63.15,0,0,0,.35,9.42c.68,4.75,8.11,5,8.67.23a61.57,61.57,0,0,0,.09-9.41C37.73,231.51,35.28,229.84,33.22,229.78Zm30.23-38.46c-2.23,1-2.84,3-2.17,5.24-.12-.41,0,.09.06.22.08.28.16.56.23.84.18.63.33,1.26.47,1.9.24,1.2.41,2.41.55,3.62a4.18,4.18,0,0,0,4,3.43c1.83.05,3.86-1.29,3.91-3.22a25.63,25.63,0,0,0-1.58-9.7A4.41,4.41,0,0,0,63.45,191.32Zm-23,75.76a31,31,0,0,0,1.09,8.22c.61,2.2,2.53,4.22,5.09,3.84,2.23-.33,4.3-2.38,3.75-4.77a48.27,48.27,0,0,1-1-7.05c-.17-2.17-2.44-3.8-4.52-3.86S40.43,264.91,40.44,267.08Zm11.67-29c-2.29.34-4.4,2.44-3.84,4.89.71,3.09,1.38,6.17,2.3,9.22.6,2,3.3,3,5.15,2.54a4,4,0,0,0,3.09-4.49c-.34-2.76-1-5.49-1.48-8.22A4.87,4.87,0,0,0,52.11,238ZM32.52,167.12c-.75,3.73-.5,7.93-.49,11.76a5,5,0,0,0,4.09,5.2c2.31.36,5.15-1.29,5.2-3.74.07-4.21.44-8.81-.32-13C40.12,162.58,33.43,162.62,32.52,167.12ZM30.58,190.7c0,3.72,0,7.46.13,11.18.11,2.38,2.93,4.13,5.16,3.9,2.68-.28,3.85-2.46,3.81-4.84-.07-3.33-.34-6.68-.53-10C38.89,186.26,30.55,186,30.58,190.7Zm7.73,129.52a40.23,40.23,0,0,1-.81-8.65,4.74,4.74,0,0,0-3.92-5,4.3,4.3,0,0,0-5,3.59,26.18,26.18,0,0,0,1.56,12C31.79,326.62,39.27,324.86,38.31,320.22Zm75.25,7.94c-1.57-2.68-2.71-5.52-4.17-8.25a4.75,4.75,0,0,0-5.79-2.45c-2.35.89-3,3.29-2.29,5.52a38.94,38.94,0,0,0,5,9,4.38,4.38,0,0,0,5.47,1.18C113.45,332.31,114.63,330,113.56,328.16ZM93.94,307.68c1.14,2,3.53,3.47,5.84,2.47,2-.86,3.49-3.4,2.3-5.56a45.92,45.92,0,0,1-3.47-7.95c-.71-2.2-3.87-3.37-5.89-2.49a4.25,4.25,0,0,0-2.33,5.61A46,46,0,0,0,93.94,307.68Zm23.3-17a20,20,0,0,0-5.71-11.25c-1.33-1.31-3.85-1.15-5.21-.17a4,4,0,0,0-1.27,4.83c.64,1.43,1.45,2.78,2.06,4.22s1.08,2.93,1.58,4.4c.71,2.07,3.36,3.1,5.34,2.63A4.16,4.16,0,0,0,117.24,290.71ZM101.7,359.05c.68,2.43,2.66,4.39,5.43,4.1,2.41-.25,4.57-2.62,4-5.09-.86-3.73-3.9-11.43-5.22-15.05-1.87-5.11-9.92-3-9.15,2.17C97.26,348.56,100.77,355.75,101.7,359.05Zm29.71-39.21a30.23,30.23,0,0,0-4.72-8.31,4.8,4.8,0,0,0-6.45-1,4.37,4.37,0,0,0-.77,6.21c.4.49.79,1,1.16,1.49l.53.78.26.39c-.15-.26-.14-.26,0,0a25.46,25.46,0,0,1,1.7,3.58,4.77,4.77,0,0,0,5.94,2.52A4.28,4.28,0,0,0,131.41,319.84Zm-3,36c2.12-1.14,2.62-3.36,1.9-5.57-.2-.64-1.95-6.79-2.18-7.42-.06-.17-.14-.43-.18-.53-.07-.28-.15-.56-.21-.84-.3-1.37-.47-2.77-.64-4.15a5.21,5.21,0,0,0-5.63-4.25c-2.92.43-4.19,2.58-4.15,5.28.06,3.64,3,13.09,5.06,16.17A4.83,4.83,0,0,0,128.36,355.88ZM65.08,288.44a3.8,3.8,0,0,0,3.39-4.31,84.11,84.11,0,0,0-2.78-10.41c-.74-2.25-3.8-3.26-5.85-2.48a4.17,4.17,0,0,0-2.31,5.58A68.05,68.05,0,0,1,60.48,285,4.36,4.36,0,0,0,65.08,288.44Zm-10.78,42c.69,2.24,3.71,3.38,5.79,2.85a4.47,4.47,0,0,0,3.48-5.05c-.68-3.3-1.52-6.6-2.46-9.84-.71-2.43-2.78-4.68-5.63-4.25-2.48.37-4.75,2.63-4.15,5.28C52.16,323.16,53.17,326.85,54.3,330.48Zm9.54,27.13c0-3-.16-5.76,0-8.72a4.78,4.78,0,0,0-4-5.08c-2.24-.35-5.06,1.25-5.08,3.65a36,36,0,0,0,1.39,10.93C57.31,362,63.82,361.4,63.84,357.61Zm4.15-138a93.92,93.92,0,0,0,.36,10.73c.37,4.48,7.92,4.72,8.18.22a91.28,91.28,0,0,0,.09-10.72C76.35,215.17,68.14,214.91,68,219.66Zm10.47,138c.33,1.4.59,2.8.81,4.21a4.92,4.92,0,0,0,5.29,4,4.41,4.41,0,0,0,3.9-5A55.38,55.38,0,0,0,86.65,352c-.78-2.69-3-4.71-6.06-4s-4,3.46-3.09,6.16A30.79,30.79,0,0,1,78.46,357.66Zm-7.54-41.1a4.69,4.69,0,0,0,5.3,2.61c1.93-.49,3.76-2.49,3.19-4.62-1-3.59-1.74-7.1-2.37-10.74a5,5,0,0,0-5.38-4.06,4.45,4.45,0,0,0-4,5A36.77,36.77,0,0,0,70.92,316.56Zm130.05-99A30.44,30.44,0,0,0,194.4,210a4.23,4.23,0,0,0-5.48.19c-1.29,1.26-1.82,3.8-.33,5.3a17.74,17.74,0,0,1,4.31,6.42,5,5,0,0,0,6.76,2.36C202.29,222.8,202.44,219.93,201,217.53ZM832.34,683.2a27.13,27.13,0,0,0,10-3.67,4.5,4.5,0,0,0,2.24-5.59,4.08,4.08,0,0,0-5.32-2.4,39.7,39.7,0,0,1-7.9,2.66,4.58,4.58,0,0,0-3.76,5A4.44,4.44,0,0,0,832.34,683.2Zm-.23-49.11a26.22,26.22,0,0,0,9.59-7.35c3.06-3.64-2.21-9.24-5.75-6.09a40.16,40.16,0,0,1-7.08,5,4.74,4.74,0,0,0-2.36,5.89A4.31,4.31,0,0,0,832.11,634.09Zm7.13,68.9c2.72-.92,5.16-2.47,8-3.18a4.73,4.73,0,0,0,3.87-5.15c-.27-2.43-2.54-4.49-4.91-4.11-4,.65-8.18,1.51-11.71,3.63-2.06,1.23-2.3,4.63-1.22,6.56A4.82,4.82,0,0,0,839.24,703Zm19.31-60.46c.24,2.2,2.49,4.55,4.75,4,3-.73,5.94-1.37,8.83-2.28,1.88-.59,2.81-3.07,2.33-4.92a4.05,4.05,0,0,0-4.3-3.17c-2.63.32-5.25.91-7.86,1.39A4.55,4.55,0,0,0,858.55,642.53Zm-1.12-11.44c2.2-1.43,4.27-3.06,6.34-4.68a4.76,4.76,0,0,0,.8-6.37,4.3,4.3,0,0,0-6.05-.87c-2.2,1.45-4.4,2.89-6.46,4.53a4.84,4.84,0,0,0-.81,6.5A4.38,4.38,0,0,0,857.43,631.09Zm-28.64-21.34c2.78-2.56,5.47-5.28,8.05-8.07,1.6-1.73,1.07-4.91-.42-6.45a4.48,4.48,0,0,0-6.12-.48c-2.51,2.23-4.95,4.61-7.29,7-1.75,1.82-2.66,4.74-.87,7C823.71,610.76,826.8,611.59,828.79,609.75ZM823.59,659c-1-1.77-3.37-3-5.27-2-2.84,1.55-5.69,3.07-8.45,4.75-1.87,1.14-2.1,4.2-1.1,6s3.48,3.12,5.44,2c2.83-1.56,5.56-3.32,8.32-5C824.33,663.69,824.56,660.73,823.59,659Zm-35.83,21.24c-1-1.7-3.27-3-5.1-1.92q-4.18,2.35-8.36,4.72a4.64,4.64,0,0,0-2.08,6.43c1.39,2.57,4.1,2.78,6.33,1.4l8.18-5C788.47,684.77,788.7,681.92,787.76,680.26ZM873.7,608c1.8-1.1,3.54-2.3,5.3-3.49,2-1.38,2.38-4.94.85-6.86a4.63,4.63,0,0,0-6.52-.94c-1.78,1.14-3.58,2.25-5.31,3.47a5.1,5.1,0,0,0-.86,6.88C869,609.28,871.44,609.35,873.7,608ZM763.87,697.35a71.45,71.45,0,0,1-7.36,1.87,4.61,4.61,0,0,0-3.79,5c.26,2.33,2.5,4.46,4.81,4a38.83,38.83,0,0,0,9.34-3.16C771.56,702.89,768.72,695.73,763.87,697.35Zm31.4-37.14c-3.59.84-7.24,1.58-10.75,2.77-4.73,1.61-2.74,10,2.2,9,3.63-.7,7.17-1.88,10.72-2.93C802.13,667.68,800.08,659.08,795.27,660.21Zm8.38,34.27a33.46,33.46,0,0,0,7.85-4.62c3.52-2.68.14-9.29-3.9-7.17-2.36,1.23-4.79,2.22-7.22,3.32a4.71,4.71,0,0,0-2.37,5.93A4.34,4.34,0,0,0,803.65,694.48Zm3.21,18.21a126.31,126.31,0,0,0,12.68-4.2c4.56-2,2.64-9-2.12-8.67s-9.74,1.87-14.2,3.44c-2.46.87-3.58,4.16-2.64,6.6A4.86,4.86,0,0,0,806.86,712.69ZM237.6,106.26,231.54,102a4.6,4.6,0,0,0-6.23.58,4.32,4.32,0,0,0,.86,6.08l6.23,4.06c2,1.28,4.55,1.28,6-.56A4.19,4.19,0,0,0,237.6,106.26ZM521.2,591.13c.12-3.54.5-7.39.1-10.91a5.16,5.16,0,0,0-5.52-4.62c-2.91.35-4.37,3-4.35,5.8,0,3.16.56,6.38.7,9.56C512.38,596.34,521,596.61,521.2,591.13Zm-20.07-57a69.42,69.42,0,0,0,3.42,13.09c1.9,4.59,8,2.68,7.81-2.08A69,69,0,0,0,510,531.74C508.7,526.45,500.12,528.73,501.13,534.09ZM528,545.86a4.28,4.28,0,0,0,3-4.61,56.51,56.51,0,0,0-1.34-9.53c-.57-2.22-3.32-3.3-5.23-2.76a4.67,4.67,0,0,0-3.32,5,57.45,57.45,0,0,0,2.05,9.34A4,4,0,0,0,528,545.86Zm6,19.64a4.47,4.47,0,0,0,5-3.9c.43-3.33.67-6.67,1-10,.51-5.88-8-7.28-8.66-1.36-.38,3.33-.8,6.65-1,10A4.76,4.76,0,0,0,534,565.5Zm-23-98a4.47,4.47,0,0,0-4.82-4c-2.47.29-3.92,2.58-3.81,5.06a45.2,45.2,0,0,0,1.4,9.12c.55,2.13,3.17,3.16,5,2.64a4.42,4.42,0,0,0,3.18-4.8A59.68,59.68,0,0,1,511,467.51Zm31,50.39a83.92,83.92,0,0,0-1.17-14.42c-1.12-6.81-10.67-4.46-8.75,2.32a52.74,52.74,0,0,1,1.81,13.06,4.21,4.21,0,0,0,4.54,3.8C540.83,522.4,542,520.21,542,517.9Zm-27.24-35.26c.68,3.62,1.35,7.23,2.19,10.81.58,2.44,2.33,4.42,4.91,4.11,2.19-.26,4.39-2.67,3.87-5.15-.83-4-1.86-8-2.87-11.92C521.62,475.67,513.81,477.74,514.74,482.64Zm51.48,63a3.93,3.93,0,0,0,4.38-3.43,77.26,77.26,0,0,0,.31-8.47,4.22,4.22,0,0,0-4.57-3.82,4.33,4.33,0,0,0-3.6,4.79,57.39,57.39,0,0,1,.19,6.29C562.87,543.18,564,545.27,566.22,545.62Zm-50.71,4.07c-2.48.42-3.8,2.46-3.75,5,0,2.36.13,4.7.3,7.05a4.47,4.47,0,0,0,4.83,4c2.49-.42,3.88-2.49,3.8-5.06-.07-2.35-.23-4.69-.43-7A4.4,4.4,0,0,0,515.51,549.69ZM858.13,670.05a54.39,54.39,0,0,0,12.71-1.37c5.06-1.17,4.4-9-1-8.58-4.25.34-8.49.66-12.75.89-2.33.12-4.06,2.7-3.79,5C853.63,668.73,855.79,670,858.13,670.05Zm12.1,26.15a46.54,46.54,0,0,1,8.93-2.52c5.69-.91,4.71-10-1-9.39a46.18,46.18,0,0,0-11.48,2.55c-2.44.91-3.58,4.1-2.63,6.56A4.79,4.79,0,0,0,870.23,696.2ZM513.63,507.86c-2.89.77-3.87,3.65-3.12,6.47a30.14,30.14,0,0,0,4.78,9.95,4.06,4.06,0,0,0,5.79.83c1.92-1.54,1.94-4.09.76-6.1a20.69,20.69,0,0,1-2.5-7C518.87,509.11,516.41,507.12,513.63,507.86Zm20.5-31.64a4.91,4.91,0,0,0,2.48-6.18c-1-3.08-2.12-6.1-3.22-9.14-2.07-5.74-10.33-2.21-8.35,3.54,1,3.05,2.05,6.13,3.21,9.14A4.53,4.53,0,0,0,534.13,476.22Zm111.65-21c-5.19-1.26-4.6,6.57-5.19,8.86-.68,2.68-1.4,8-2,10.72a4.78,4.78,0,0,0,3.81,5.39,4.59,4.59,0,0,0,5.09-4c.52-2.71,1.4-13.27,1.83-16A4.58,4.58,0,0,0,645.78,455.2Zm.14,132.19a4.1,4.1,0,0,0-5.88.78l-3,4.7c-1.21,1.87-1.14,4.68.76,6.09a4,4,0,0,0,5.77-.76l3.16-4.61A4.65,4.65,0,0,0,645.92,587.39ZM629,553.06c2.31.37,4-1.33,4.52-3.54a68.65,68.65,0,0,1,2.87-9.24c2.09-5.44-6.17-9-7.92-3.56a86,86,0,0,0-2.86,11.56A4.26,4.26,0,0,0,629,553.06Zm2.61-84.83a3.81,3.81,0,0,0-3.74,3.32,69.4,69.4,0,0,1-2.11,8c-.83,2.77.19,5.73,3,6.58s5.21-1.09,5.82-3.93a44.07,44.07,0,0,0,.65-10.52A3.8,3.8,0,0,0,631.6,468.23Zm1.68,110.19a4.23,4.23,0,0,0,5.53-2.34l1.7-3.59a4.66,4.66,0,0,0-2.29-5.93,4.28,4.28,0,0,0-5.61,2.38c-.52,1.21-1.05,2.42-1.58,3.64A4.61,4.61,0,0,0,633.28,578.42Zm5,45.52a25.9,25.9,0,0,0,4.83-5.45c1.21-1.91,1.17-4.76-.77-6.2a4.11,4.11,0,0,0-5.88.77c-.57.81-1.17,1.59-1.78,2.36l-.84,1,.07,0-.09.06-.05.06c-.28.34-.17.14,0,0-.18.16-.38.42-.52.55-1.58,1.54-2.29,4.18-.76,6.1A4,4,0,0,0,638.28,623.94Zm-4.51-7.48.05,0,0,0ZM747.26,727.28c1.78-.27,3.25-1.19,4.92-1.83,1.44-.55,2.79-.86,4.25-1.37,4-1.4,3.19-8.31-1-8.72a18,18,0,0,0-5.62.36c-2.07.46-4.41.91-6.09,2.35C740.13,721.16,742.32,728,747.26,727.28ZM674.44,499.62c-2.42-.37-4.12,1.39-4.68,3.67-.79,3.23-1.62,6.46-2.31,9.73a4.49,4.49,0,0,0,3.57,5c2.47.39,4.18-1.41,4.76-3.73.81-3.23,1.47-6.5,2.16-9.76A4.39,4.39,0,0,0,674.44,499.62Zm-4.37,43.27a17.89,17.89,0,0,1,3.4-6.94,4.94,4.94,0,0,0-1.33-7c-2.54-1.57-5.1-.27-6.45,2.21a30.24,30.24,0,0,0-3.28,9.48,4.24,4.24,0,0,0,2.9,4.65C667.06,545.75,669.51,544.94,670.07,542.89ZM664,470.36c-1.18,4.36-2.5,8.71-3.47,13.13-1.13,5.1,6.92,7.56,8.44,2.52,1.31-4.32,2.3-8.77,3.39-13.15C673.63,467.85,665.38,465.34,664,470.36Zm-9.93,45.88a74.68,74.68,0,0,0-4.75,10,3.74,3.74,0,0,0,6.82,3.07,67,67,0,0,1,5-8.69,4.47,4.47,0,0,0-1.21-6.34C657.61,512.83,655.3,514,654.08,516.24Zm-1.78-32.42a4.33,4.33,0,0,0-4.81,3.77c-.61,3.42-1,6.87-1.69,10.28-1.12,6,8,7.48,9,1.41a88,88,0,0,0,1.14-10.36C656,486.5,654.74,484.21,652.3,483.82ZM548.94,495.15a5,5,0,0,0,3.61-5.46c-.8-4.06-1.69-8.1-2.78-12.09-1.49-5.47-10.2-3.14-9.22,2.45.73,4.07,1.71,8.1,2.72,12.1C543.88,494.57,546.88,495.74,548.94,495.15Zm83.77,8.41c-.73,4.58-1.31,9.2-1.71,13.83-.55,6.19,8.22,7.64,9.11,1.43.66-4.59,1.15-9.23,1.48-13.87C642,498.93,633.69,497.52,632.71,503.56Zm47.21,157.13,4.35-3.8a4.23,4.23,0,0,0,.7-5.62,3.76,3.76,0,0,0-5.35-.77l-4.4,3.72a4.26,4.26,0,0,0-.7,5.69A3.77,3.77,0,0,0,679.92,660.69Zm26.34,41.52c3.61-1.21,7.12-3.53,10.42-5.45,2.12-1.23,3.46-3.57,2.47-6.14-.85-2.19-3.69-3.82-5.84-2.63-3.68,2-7.85,4-11.09,6.77C698.53,697.9,701.91,703.68,706.26,702.21ZM651.14,546a19.17,19.17,0,0,0,1.51-5.37c.29-2.53-1.4-5.25-3.92-5.53a4.73,4.73,0,0,0-5.23,4.09c-.12.64-.23,1.28-.37,1.91,0,.22-.2.69,0,.21-.12.39-.25.77-.4,1.15a36.82,36.82,0,0,0-1.74,4.37,4.52,4.52,0,0,0,2.07,4.46,4.17,4.17,0,0,0,4.69-.26C649.31,549.93,650.34,547.83,651.14,546Zm42.15,135.91a23.08,23.08,0,0,0,6.22-4.41c1.54-1.53,2.26-4.11.75-6a4,4,0,0,0-5.71-.82,27.29,27.29,0,0,1-2.42,1.9l-1.29.84c-.14.09-1.5.92-.66.42-1.88,1.11-3.29,3.33-2.27,5.66C688.81,681.59,691.19,683,693.29,681.94Zm49,22.42A4,4,0,0,0,737,702c-3.33,1.59-6.76,2.9-10.16,4.29a4.51,4.51,0,0,0-2.28,5.68,4.2,4.2,0,0,0,5.41,2.43,47.49,47.49,0,0,0,10.07-4.5A4.44,4.44,0,0,0,742.29,704.36Zm-18.1,32.29a35,35,0,0,0,9.33-4.27c1.79-1.18,2.08-4,1.08-5.84a4.24,4.24,0,0,0-5.34-2c-2.76,1.13-5.53,2.62-8.18,4a4.54,4.54,0,0,0-2.27,5.66A4.17,4.17,0,0,0,724.19,736.65Zm-32.92-71.22c2.15-1.95,4.43-3.7,6.73-5.45a4.57,4.57,0,0,0,.76-6.12A4.07,4.07,0,0,0,693,653a50.42,50.42,0,0,0-6.57,5.67,4.51,4.51,0,0,0-.74,5.92A3.93,3.93,0,0,0,691.27,665.43Zm-35.56-20.88c1.95,1.46,4.13,1,5.7-.75,1.88-2.08,3.74-4.16,5.52-6.33a4.63,4.63,0,0,0-.77-6.22,4.15,4.15,0,0,0-5.9.77c-1.83,2.12-3.57,4.31-5.3,6.52A4.49,4.49,0,0,0,655.71,644.55Zm21-8.19a61.41,61.41,0,0,0,5.93-5.6c1.4-1.51.91-4.24-.38-5.6s-3.85-1.9-5.31-.42c-1.66,1.68-3.36,3.33-5.15,4.87a4.46,4.46,0,0,0-.74,5.94A4,4,0,0,0,676.67,636.36Zm-25.49-64a4.29,4.29,0,0,0,5.61-2.37,29.86,29.86,0,0,0,2.07-6.35,4.44,4.44,0,0,0-3-4.89,4.09,4.09,0,0,0-5,2.49,35.67,35.67,0,0,1-1.93,5.2A4.66,4.66,0,0,0,651.18,572.39Zm5.94,46,4.47-4.21a4.65,4.65,0,0,0,.39-6.69,4,4,0,0,0-2.93-1.32,4.31,4.31,0,0,0-3.42,1.69l-4.16,4.55c-1.38,1.51-.91,4.2.37,5.56A3.85,3.85,0,0,0,657.12,618.38Zm12.35-6.3a4.09,4.09,0,0,0,5.8-.76l3.46-4.32a4.61,4.61,0,0,0-.77-6.18,4.1,4.1,0,0,0-5.85.77L668.72,606A4.56,4.56,0,0,0,669.47,612.08Zm-1.36-27a3.88,3.88,0,0,0-2.89-1.31,4.2,4.2,0,0,0-3.39,1.68c-1,1.15-2.06,2.28-3,3.5a4.38,4.38,0,0,0,.37,5.54,3.83,3.83,0,0,0,5.25.42c1.14-1,2.21-2.12,3.29-3.21a5.24,5.24,0,0,0,1.6-2.88A4.41,4.41,0,0,0,668.11,585.08Zm106,136a35.52,35.52,0,0,1,7.74-2,4.82,4.82,0,0,0,4-5.31,4.75,4.75,0,0,0-5.06-4.24,28.79,28.79,0,0,0-10.31,2.17,5.23,5.23,0,0,0-2.64,6.6A4.84,4.84,0,0,0,774.1,721.12ZM24.39,265.21c1.07-3.54,2.26-7.06,3-10.7,1-4.9-7.26-7.35-8.91-2.6-1.21,3.49-2,7.14-2.82,10.74C14.49,267.41,23,269.94,24.39,265.21ZM552.86,472.9c2.17-.36,4.51-2.65,3.93-5.22l-1.64-7.29c-.54-2.37-2.38-4.55-4.93-4.12-2.17.36-4.43,2.61-3.88,5.16s1,4.87,1.55,7.31S550.31,473.33,552.86,472.9ZM2.89,344.23a4,4,0,0,0,4.89-2.14c1-2.44,1.84-5,2.73-7.5a4.56,4.56,0,0,0-2.45-5.75c-2-.88-5.18-.11-5.82,2.13-.84,2.92-1.79,5.82-2.45,8.79C-.63,341.68,1.05,343.73,2.89,344.23ZM14,315.88a65.57,65.57,0,0,0,2.21-9.43c.47-2.38-1.68-4.81-4.07-5.19A4.48,4.48,0,0,0,6.91,305,60.06,60.06,0,0,0,6,313.55,4.28,4.28,0,0,0,9.08,318C11,318.53,13.28,317.77,14,315.88Zm32.59-91.73a4.45,4.45,0,0,0,4.27,3.65A4.08,4.08,0,0,0,55,224.37a54.52,54.52,0,0,0,1-8.86c.31-5.73-8-7-9.12-1.43A28.39,28.39,0,0,0,46.54,224.15Zm6.3-26.49a3.86,3.86,0,0,0,3-4.31c-.29-2.22-.64-4.42-.88-6.63a4.43,4.43,0,0,0-4.79-3.63c-2.48.37-3.59,2.2-3.54,4.5a27.32,27.32,0,0,0,1.3,7.63C48.51,197.15,51.05,198.08,52.84,197.66Zm-35.51-3.78c.29-3.68.87-7.3,1.36-10.94a4.51,4.51,0,0,0-3.78-4.82,4.2,4.2,0,0,0-4.81,3.47,48.48,48.48,0,0,0-1.14,11,4.45,4.45,0,0,0,3.69,4.69A4,4,0,0,0,17.33,193.88ZM-1.24,264.65c.11-2.67.47-5.27.73-7.91a4.68,4.68,0,0,0-2-4.21v14.61A3.14,3.14,0,0,0-1.24,264.65Zm1.3-73a5.21,5.21,0,0,0-2.56-3.51v13.5a17.83,17.83,0,0,0,1.55-3.54C-.3,196.05.47,193.8.06,191.63Zm11,81.49c-2.09,0-4.45,1.46-4.49,3.7-.07,3.23.09,6.47.17,9.7.06,2.11,2.51,3.79,4.48,3.81s4.3-1.41,4.35-3.58c.07-3.23.18-6.45.1-9.69C15.67,274.88,13.14,273.15,11.11,273.12Zm-13.61,85v5.52A29.94,29.94,0,0,0-2.5,358.1ZM476.94,489.34a62.16,62.16,0,0,1-6-9.52c-2.13-4.41-8.74-1.8-6.86,2.9a47.79,47.79,0,0,0,6.48,11.77C473.85,498.7,480.13,493.73,476.94,489.34ZM10.56,230.6c-2.92-.08-4.46,2.17-4.38,4.79.09,3.2.19,6.4.28,9.6.06,2,2.42,3.67,4.33,3.69S15,247.32,15,245.22l.09-9.6A4.65,4.65,0,0,0,10.56,230.6ZM7.93,219.45A70.75,70.75,0,0,1,10,212.14a4.62,4.62,0,0,0-2.47-5.81c-2.15-.93-5.11-.07-5.89,2.15a38.77,38.77,0,0,0-1.94,9.68C-.72,223.33,6.91,224.46,7.93,219.45ZM265.6,208.72c-2-2.1-5.06-2.7-7.22-.65s-1.66,5.05.5,7a43.93,43.93,0,0,0,8.78,5.83,3.72,3.72,0,0,0,3.82-6.35A70.32,70.32,0,0,1,265.6,208.72Zm-24.27-6c-3.59-2.92-7.31-5.73-11.11-8.4-5.09-3.56-10.73,3.31-5.8,7.18,3.65,2.87,7.42,5.61,11.27,8.21C240.7,213.12,246.08,206.62,241.33,202.75Zm-7.17-65.52c-1.5-1.7-4.24-2.42-6.09-.95a4.14,4.14,0,0,0-.73,5.87,24.07,24.07,0,0,0,5.42,5c2,1.33,4.87,1.4,6.32-.58,1.24-1.69,1.31-4.86-.87-6.16a21.54,21.54,0,0,1-2.44-1.68c-.32-.26-.63-.54-1-.82s-.4-.39-.09-.1ZM234,224a90.6,90.6,0,0,0,8.4,6.17c2.05,1.28,4.66,1.35,6.22-.58a4.34,4.34,0,0,0-.86-6.05c-2.66-2.23-5.42-4.34-8.06-6.6C235.07,213,229.22,220.15,234,224Zm4.14-99.85a3.92,3.92,0,0,0,.78,5.51,77,77,0,0,0,7.17,4.5,4.23,4.23,0,0,0,5.6-2.05,4.32,4.32,0,0,0-2.35-5.51,61.65,61.65,0,0,1-5.55-3C241.94,122.46,239.58,122.38,238.16,124.14Zm17.66-6.89a4.3,4.3,0,0,0,5.72-2.09,4.46,4.46,0,0,0-2.4-5.64L254,107a4.21,4.21,0,0,0-5.58,2,4.36,4.36,0,0,0,2.34,5.5Zm68.38-64a32.12,32.12,0,0,0-10.46-.9,4.25,4.25,0,0,0-3.86,4.3c.07,2,1.69,4.41,4,4.5a66.61,66.61,0,0,1,9.22,1,4.45,4.45,0,0,0,5.16-3.71C328.59,55.8,326.66,53.89,324.2,53.25ZM143,147.22a.15.15,0,0,1,0,.07,0,0,0,0,0,0,0S143,147.25,143,147.22ZM331.53,75a62.21,62.21,0,0,1,11.26-.45c4.89.36,5.93-6.67.91-7.39a47.64,47.64,0,0,0-13.43-.28C325,67.61,326.14,75.53,331.53,75ZM142.81,146.49c-.54-2.13-2.47-4.07-4.9-3.7a4,4,0,0,0-3.62,4.6,26,26,0,0,0,2.32,6.9c1,2,3.53,3.39,5.75,2.44a4.12,4.12,0,0,0,2.27-5.48c-.41-.9-.79-1.81-1.15-2.72-.15-.41-.29-.82-.43-1.22v.08s0-.07,0-.1l0-.08c-.11-.32-.07-.27,0-.13C142.93,146.87,142.85,146.64,142.81,146.49Zm170-56.57,9.4,2.69c2.12.6,4.35-1.19,4.82-3s-.42-4.54-2.6-5.19L315.1,81.6c-2.61-.79-5.31-.06-6.06,2.72S310.21,89.17,312.85,89.92Zm-37,97c1.09-1.8.86-4.93-1.27-6.2-2.31-1.38-4.51-2.92-6.7-4.49s-5.4-1.48-7,.65a4.88,4.88,0,0,0,1,6.79,52.24,52.24,0,0,0,7.86,5.08A4.82,4.82,0,0,0,275.86,186.94Zm26.1-77.2c-.86,2,.13,5.13,2.53,5.92,3.88,1.29,7.82,2.37,11.76,3.48,4.78,1.35,6.9-6.45,2.19-8.1-3.48-1.21-6.94-2.44-10.46-3.5C305.57,106.82,303,107.35,302,109.74ZM61.35,162.57c-2.24-.25-4.62,1.13-4.79,3.45a23,23,0,0,0,.72,7.6c.54,2.1,2.42,4,4.83,3.65a4,4,0,0,0,3.56-4.53,24.59,24.59,0,0,1-.43-3.05c0-.51-.07-1-.1-1.54,0-.16,0-1.75,0-.78C65.1,165.19,63.87,162.86,61.35,162.57Zm514,295.82a4.45,4.45,0,0,0-3.7,4.92c.25,2.56.49,5.11.74,7.67a4.32,4.32,0,0,0,4.65,3.89,4.41,4.41,0,0,0,3.67-4.88c-.22-2.56-.45-5.11-.67-7.67A4.38,4.38,0,0,0,575.31,458.39Zm5.19,57c.23-2.28-1.24-4.73-3.53-5a4.23,4.23,0,0,0-4.71,3.69c0,.75.61,8.62.56,9.38a4.88,4.88,0,0,0,.81,3.26,4.21,4.21,0,0,0,2.68,1.66c2.16.24,3.71-8.35,4-10.76Zm-4-23.16c0,3.53.17,7.06.32,10.59a4.55,4.55,0,0,0,4.91,4.11,4.66,4.66,0,0,0,3.87-5.15c-.22-3.52-.47-7-.78-10.54a4.32,4.32,0,0,0-4.65-3.89C577.73,487.67,576.46,489.87,576.5,492.26Zm19.76-35.32a4.75,4.75,0,0,0-5.28,4.13c-.56,3.16-1.28,6.28-2,9.4-.56,2.34,1.34,4.85,3.39,5.43s4.88-.38,5.56-2.77a92.77,92.77,0,0,0,2.31-10.61A5,5,0,0,0,596.26,456.94Zm-4,72.65c.8,4.22,5.59,4.76,7.5,1.16,1.34-2.52,1.44-11.9,1.54-14.73s-1.49-5.35-4.4-5.4-4.59,2.39-4.52,5.23C592.44,518.44,591.78,527.06,592.25,529.59Zm13.68-34.3a52.15,52.15,0,0,0,.46-9.35,4.83,4.83,0,0,0-4.63-4.38c-2.1,0-4.7,1.73-4.74,4.21,0,2.69-.28,5.36-.54,8s1.41,5.42,4,5.71A4.88,4.88,0,0,0,605.93,495.29Zm-24.16,53a4.13,4.13,0,0,0,5.45-2.3,24.12,24.12,0,0,0,1.67-7.21c.15-2.38-1.23-4.91-3.67-5.19-2.09-.23-4.87,1.3-4.9,3.84a20.83,20.83,0,0,1-.24,3q-.11.61-.24,1.23c-.12.5-.13.54,0,.13-.08.27-.16.53-.26.8C578.83,544.69,579.58,547.41,581.77,548.28Zm-3.7,1.12a4.09,4.09,0,0,0-8.13-.15c-.49,2.65-.63,5.27-1.36,7.89-.65,2.35,0,4.92,2.3,6a4.26,4.26,0,0,0,5.65-2.39C577.71,557.31,578.63,553.05,578.07,549.4Zm-16-31.09a84.22,84.22,0,0,0,.66-10.53,4.89,4.89,0,0,0-4.71-4.45c-2.16,0-4.75,1.72-4.82,4.27a84.52,84.52,0,0,0,.52,10.55C554.23,523.11,561.49,523.34,562.07,518.31Zm-14,26a4.37,4.37,0,0,0,3.59-4.78c-.06-1.92-.13-3.85-.19-5.77a4.31,4.31,0,0,0-4.67-3.91,4.46,4.46,0,0,0-3.69,4.9q.2,2.87.41,5.75A4.21,4.21,0,0,0,548,544.32ZM554,567.54a4.32,4.32,0,0,0,4.83-3.79q.19-3.71.4-7.43c.12-2.34-1.16-4.57-3.5-4.94A4.18,4.18,0,0,0,551,555c-.22,2.46-.45,4.92-.67,7.39A4.59,4.59,0,0,0,554,567.54Zm-91.42-39.78a43.13,43.13,0,0,0,2.73,11.36,4.53,4.53,0,0,0,5.9,2.65c2.5-1,3.12-3.69,2.49-6.2a75,75,0,0,1-1.37-9C471.42,520,462.06,521.14,462.54,527.76Zm106.28,55.89a4.51,4.51,0,0,0,5.95-2.51c.73-1.86,1.33-3.76,1.94-5.66.72-2.24,0-5-2.29-6a4.3,4.3,0,0,0-5.63,2.38c-.83,1.81-1.67,3.6-2.39,5.46C565.5,579.69,566.51,582.73,568.82,583.65Zm-4.66-86.34c2.39-.28,3.69-2.46,3.63-4.83a99.6,99.6,0,0,1,.27-10.37,4.77,4.77,0,0,0-3.75-5.3c-2.16-.34-4.93,1.39-5,3.92a122.87,122.87,0,0,0,.25,12.73A4.27,4.27,0,0,0,564.16,497.31Zm-71.91-26.26c-1.27-3.51-2.76-6.93-4.19-10.37-2.36-5.66-10.69-2.17-8.44,3.57,1.36,3.48,2.67,7,4.19,10.37C486.3,480.2,494.37,476.88,492.25,471.05Zm-8.54,69.16c-2.43,1-3.06,3.62-2.42,6.06,1,3.77,2.1,7.56,3.33,11.25,1.49,4.44,8.58,2.68,7.7-2-.8-4.24-1.77-8.5-2.85-12.67C488.84,540.37,485.74,539.36,483.71,540.21Zm10.59-10.56a21.61,21.61,0,0,0-5.95-14.28c-1.69-1.79-4.88-1.19-6.38.43a5.31,5.31,0,0,0-.44,6.71,14.85,14.85,0,0,1,3.63,8.22,4.76,4.76,0,0,0,5.11,4.28C492.92,534.7,494.38,532.28,494.3,529.65Zm130.1-27c.18-4.48.24-9,.24-13.45,0-5.34-8.63-5.52-8.92-.17-.22,4.06-.39,8.12-.44,12.19,0,2.61,1.22,5.09,3.91,5.51C621.46,507.08,624.29,505.27,624.4,502.64Zm-150.6,8.9a67.61,67.61,0,0,1-3.75-8.48,4.46,4.46,0,0,0-5.8-2.61c-2.43,1-3.12,3.65-2.45,6.09a32.16,32.16,0,0,0,4.46,9.52,4.23,4.23,0,0,0,5.64,1.19C473.59,516.2,474.88,513.58,473.8,511.54Zm22.49-7.4c2.75-.73,3.62-3.44,2.95-6.1-.79-3.16-1.59-6.32-2.38-9.48-.54-2.14-3.2-3.18-5-2.66s-3.72,2.63-3.2,4.84c.75,3.17,1.51,6.34,2.26,9.51C491.53,502.91,493.51,504.88,496.29,504.14Zm87.36,69.15c2.31.92,4.44-.14,5.55-2.34s2-4.39,3-6.6a4.57,4.57,0,0,0-2.24-5.8,4.19,4.19,0,0,0-5.49,2.33c-1,2.17-2.13,4.32-3.05,6.55A4.63,4.63,0,0,0,583.65,573.29ZM604.42,556c1.06-3.17,2.5-6.5,3-9.84a4.21,4.21,0,0,0-8-2.38c-1.39,3-1.95,6.66-2.78,9.89-.53,2,1.2,4.25,3,4.74A4,4,0,0,0,604.42,556Zm6.73,51.9a31.45,31.45,0,0,0,7.09-11.47c1.83-5.27-5.44-8.6-7.67-3.45a60.79,60.79,0,0,1-5,9,4.38,4.38,0,0,0,.36,5.48C607.24,608.77,609.72,609.32,611.15,607.86Zm-.33-74.72c0,4.71,7.43,4.8,7.83.15.28-3.3,1.34-6.38,1.71-9.64.57-5-6.38-7.34-8.25-2.46C610.7,524.89,610.78,529.21,610.82,533.14Zm7.15-61c.67-3.45,1.26-6.91,1.85-10.38a4.86,4.86,0,0,0-3.87-5.47c-2.57-.41-4.69,1.5-5.18,4.05-.67,3.45-1.34,6.9-1.94,10.36a4.93,4.93,0,0,0,3.91,5.54C615.34,476.67,617.47,474.75,618,472.17Zm-6,87.7a63.16,63.16,0,0,1-3.43,12.33c-2,5.07,5.31,8.33,7.45,3.35a75.07,75.07,0,0,0,4.46-14.35C621.67,555.55,613,554.13,612,559.87Z" fill="#8ea1e1"/></svg>