<svg id="84204b17-ea9d-4c74-8514-f27ffa58315f" data-name="Layer 1" xmlns="http://www.w3.org/2000/svg" width="11.81in" height="26.68in" viewBox="0 0 850.51 1920.79"><title>features-a-background</title><path d="M161.72,1548.46a5.61,5.61,0,0,1,6.27-3.73c2.15.29,3.94,1.28,5.78,1.76a63.78,63.78,0,0,1,6.37,1.74,4.7,4.7,0,0,1,2.58,5.09,4.79,4.79,0,0,1-4.29,3.8,30.75,30.75,0,0,1-6.9-.53,28.38,28.38,0,0,1-7-1.42A5.49,5.49,0,0,1,161.72,1548.46Zm21.81,44.13a21,21,0,0,0,6.76,1.57c2.42.27,4.17.4,6.78.52,2.37.1,4.35-2.36,4.45-4.52s-1.45-4.83-3.88-5a24.68,24.68,0,0,1-5.39-1l-.36-.12c-.43-.15-.86-.31-1.28-.48a29.81,29.81,0,0,0-3.67-1.34,5.49,5.49,0,0,0-3.41,10.34ZM267.9,833.2a4.64,4.64,0,0,0,1.23,6.22A50.94,50.94,0,0,0,280,845a5.05,5.05,0,0,0,6.37-2.45c1.12-2.48-.25-4.81-2.55-6-3.25-1.7-6.29-3.77-9.58-5.39A5.22,5.22,0,0,0,267.9,833.2Zm10.87-67.79L267,761.67a5,5,0,0,0-6.18,2.37,4.38,4.38,0,0,0,2.47,5.83L275,773.81a5.06,5.06,0,0,0,6.32-2.43A4.48,4.48,0,0,0,278.77,765.41Zm-7.89-388c-3,4-5.87,8.22-7.36,13-1.6,5.16,6.56,8.13,8.9,3.28,1.84-3.82,3.18-7.81,5.25-11.54C279.9,378.1,273.76,373.48,270.88,377.36Zm-8.55-14.17c-2.31-1.21-4.69-.15-6,1.87-2.37,3.58-4.89,7.35-6.1,11.51-1.52,5.23,6.63,8.25,9,3.32,1.73-3.6,2.85-7.29,5-10.71C265.48,367.15,264.34,364.24,262.33,363.19Zm36.84,369.37,0,0a25.59,25.59,0,0,1-3.27-2.25,4.82,4.82,0,0,0-6.43.79,4.26,4.26,0,0,0,.81,6.07,30.3,30.3,0,0,0,8.27,4.84c2.25.88,5.22-.11,6.11-2.35a4.37,4.37,0,0,0-2.44-5.77c-.6-.22-1.18-.45-1.76-.71l-.85-.4Zm-3.71-365.09c1.58-3.62,3.68-7.06,5.15-10.71,1.05-2.59.48-5.6-2.19-7a5.3,5.3,0,0,0-7,2.18c-2.15,3.71-3.36,8.23-4.57,12.33C285.36,369.26,293.35,372.32,295.46,367.47Zm-5.84,320c-2,1.43-2.66,4.56-.92,6.42,2.61,2.8,9.11,7.94,12.09,10.42,4.19,3.49,10.12-2.37,6.86-6.46-2.13-2.67-8.79-7.14-11.25-9.54C294.59,686.57,291.87,685.87,289.62,687.5Zm-6.12,59.92a4.3,4.3,0,0,0,.82,6.2c2.63,1.72,5.22,3.55,7.95,5.12,2.13,1.22,4.83,1.22,6.48-.8a4.25,4.25,0,0,0-.81-6.11c-2.52-1.87-5.25-3.51-7.88-5.22A5,5,0,0,0,283.5,747.42Zm7.33-421.63c-2.35,5.63,5.32,9.82,8.5,4.44a51.5,51.5,0,0,0,3.1-6.75,45.14,45.14,0,0,0,2.61-7.25,4.08,4.08,0,0,0-2.57-4.7,4.19,4.19,0,0,0-5,1.9,58,58,0,0,0-3.4,6.13C293,321.62,291.74,323.64,290.83,325.79Zm-35,5.16a5.06,5.06,0,0,0-5.94,3.69,82,82,0,0,0-1.49,8.54,4.66,4.66,0,0,0,9.08,2.09,81.19,81.19,0,0,0,2.06-8.41C259.91,334.31,258.57,331.46,255.81,331ZM166.13,1536.17l10.7,2.67c4.18,1.05,6.44-5.46,2.42-7.16l-10.15-4.29a4.67,4.67,0,1,0-3,8.78ZM279.51,727.55a86.93,86.93,0,0,1-7.9-6.1c-1.69-1.49-4.62-1-6.13.41s-2.07,4.2-.47,5.79a59.52,59.52,0,0,0,8.49,7.25c2.07,1.4,5.3,1.25,6.87-.85A4.52,4.52,0,0,0,279.51,727.55ZM206.42,1587.1c4.74,2,10.58,1.19,15.54.57,6.19-.77,5.63-10-.67-9.67-4.39.2-8.49-1.5-12.8-1.67C202.75,1576.09,201.38,1585,206.42,1587.1Zm7.39-701.49c2.69.69,8.05,1.41,10.76,2a4.8,4.8,0,0,0,5.41-3.81,4.59,4.59,0,0,0-4-5.09c-2.72-.52-13.31-1.4-16.05-1.83a4.59,4.59,0,0,0-5,3.53C203.65,885.61,211.51,885,213.81,885.61Zm-25.33,685.06c.09-2.08-1.38-4.61-3.7-4.79a24.34,24.34,0,0,1-5.61-1c-1.41-.45-3.66-1.49-5.4-2-2.8-.87-6.14,1.7-6.54,4.44-.48,3.27,1.45,5.57,4.45,6.51a27.09,27.09,0,0,0,6,.75c2.2.17,4.39.32,6.59.41S188.39,1572.73,188.48,1570.67ZM242.34,390.88a50.85,50.85,0,0,0-4.15,6.31,68.58,68.58,0,0,0-3.56,6c-2.13,4.52,3.78,9,7.35,5.14a67.14,67.14,0,0,0,4.2-5.54,51.67,51.67,0,0,0,4.33-6.19C253.11,391.69,246.07,386.42,242.34,390.88ZM226,1610.5a38.18,38.18,0,0,0,8.07-.34,4.5,4.5,0,0,0,3.42-4.23,4.65,4.65,0,0,0-3.22-4.36,36.35,36.35,0,0,0-7.47-1.64,72.65,72.65,0,0,0-8.29-1.22,5.8,5.8,0,0,0-5.87,5.6c-.07,3.38,2.54,5.43,5.62,5.85A68.9,68.9,0,0,0,226,1610.5Zm-29.31-47,1.08.15c.71.11,1.43.21,2.14.34l4.27.77a4.19,4.19,0,1,0,1.56-8.23l-4.24-.91a13,13,0,0,1-3.54-1c-2.63-1.63-6.15.63-6.67,3.36s1.91,6.07,4.95,5.56C196,1563.31,196.12,1563.3,196.64,1563.5Zm108.62-1276c-2.45-1.15-5.15-.82-8.45,5-.78,1.37-1.43,2.81-2.14,4.21a5.12,5.12,0,0,0,2.13,6.82,5.17,5.17,0,0,0,6.85-2.13l2.13-4.21C307,294.86,307.76,288.69,305.26,287.52ZM244,360a5,5,0,0,0-6.64,2.06,51.11,51.11,0,0,0-6.17,13c-1.47,5.36,6.72,8.41,9.17,3.39,1.93-4,3.48-8,5.71-11.83A5,5,0,0,0,244,360Zm-7.26-72.49c-1.9,3.53-3.66,7.12-5.43,10.71-2.52,5.1,5,9,7.83,4.1,2-3.48,4-6.94,5.85-10.49C247.8,286.55,239.6,282.24,236.76,287.52Zm-19.62,49.16a4.77,4.77,0,0,0,5.61-3.5c1.23-3.93,2.85-7.73,4.18-11.64,1.79-5.27-7.07-8.6-9.24-3.41a99.31,99.31,0,0,0-4.06,13A4.73,4.73,0,0,0,217.14,336.68Zm12.72,3.17A75.13,75.13,0,0,0,225,346.6c-1.48,2.31-3.12,4.9-3.69,7.6-1.19,5.65,6.27,8.07,9.21,3.4,1.24-2,1.88-4.49,2.82-6.64a69.87,69.87,0,0,1,3.25-6.4C238.86,340.57,232.84,336.17,229.86,339.85Zm-19.32,23.52a29.25,29.25,0,0,0-3.09,5.16,27,27,0,0,0-2.34,5.58,5.08,5.08,0,0,0,3.21,5.87,5.19,5.19,0,0,0,6.28-2.37,30.91,30.91,0,0,0,2.15-4.54,36.87,36.87,0,0,0,2.17-5.3C220.12,363.16,213.68,359.59,210.54,363.37Zm100.92-23.28c2.51,1.31,5,.13,6.5-2,2.57-3.79,4.48-8.18,6.63-12.23,2.8-5.27-5.19-9.39-8.2-4.29-2.32,4-5.08,7.88-7,12.06A4.9,4.9,0,0,0,311.46,340.09ZM256.63,907a4.66,4.66,0,0,0-4.1-5.21c-4.5-.19-9-.24-13.5-.24-5.35,0-5.54,8.63-.17,8.92,4.08.22,8.15.38,12.23.43C253.72,911,256.21,909.7,256.63,907Zm-7.23,18.66a4.87,4.87,0,0,0-4.24-5.4,52.49,52.49,0,0,0-9.38-.47,4.83,4.83,0,0,0-4.4,4.64c0,2.1,1.73,4.7,4.22,4.73,2.7,0,5.38.28,8.07.54S249.11,928.31,249.4,925.68ZM247.19,962c-.29-2.39-2.47-3.69-4.85-3.63a100.56,100.56,0,0,1-10.42-.27,4.8,4.8,0,0,0-5.31,3.75c-.34,2.16,1.4,4.93,3.93,5a126.71,126.71,0,0,0,12.78-.25A4.3,4.3,0,0,0,247.19,962Zm21.58-75.94c-4.61-.66-9.26-1.15-13.92-1.48-6-.42-7.46,7.9-1.39,8.88,4.59.73,9.23,1.31,13.88,1.71C273.55,895.75,275,887,268.77,886.1Zm-38.91,99.55c4.09-.73,8.12-1.71,12.15-2.72,2.42-.61,3.6-3.61,3-5.67a5,5,0,0,0-5.48-3.61c-4.08.81-8.14,1.69-12.14,2.78C221.91,977.92,224.25,986.63,229.86,985.65Zm41.3-71.56c3.7,1.42,8,1.34,12,1.3,4.73,0,4.82-7.43.15-7.83-3.31-.28-6.41-1.34-9.68-1.71C268.57,905.27,266.25,912.22,271.16,914.09Zm27.19,30.34A4.13,4.13,0,0,0,296,939a24.16,24.16,0,0,0-7.23-1.66c-2.39-.16-4.94,1.23-5.21,3.67-.23,2.08,1.3,4.86,3.86,4.9a20.82,20.82,0,0,1,2.95.23c.42.07.83.15,1.24.24l.14,0,.79.26C294.74,947.37,297.47,946.62,298.35,944.43Zm-78.11-7.17c2.36.56,4.87-1.35,5.45-3.4s-.38-4.88-2.77-5.55A91.82,91.82,0,0,0,212.27,926a5,5,0,0,0-5.61,4,4.76,4.76,0,0,0,4.15,5.28C214,935.78,217.11,936.51,220.24,937.26Zm-14.2-27c-.41,2.57,1.5,4.68,4.07,5.18,3.46.66,6.92,1.34,10.4,1.94a5,5,0,0,0,5.55-3.92c.41-2.59-1.52-4.73-4.11-5.23-3.46-.66-6.94-1.25-10.42-1.85A4.89,4.89,0,0,0,206,910.26ZM221.47,891a3.71,3.71,0,0,0-.14,7.4,69.89,69.89,0,0,1,8,2.11c2.78.83,5.75-.19,6.61-3s-1.1-5.21-4-5.82A44.32,44.32,0,0,0,221.47,891Zm-1.33-28.75c4.37,1.18,8.74,2.5,13.17,3.48,5.12,1.12,7.59-6.93,2.53-8.45-4.34-1.31-8.8-2.29-13.2-3.39C217.61,852.58,215.09,860.83,220.14,862.2ZM206,976c.36,2.17,2.62,4.43,5.18,3.88l7.33-1.55c2.42-.51,4.61-2.42,4.18-5-.36-2.17-2.65-4.51-5.24-3.93l-7.32,1.64C207.74,971.59,205.56,973.43,206,976Zm13.82,13.61c-3.09,1-6.12,2.12-9.17,3.22-5.76,2.07-2.22,10.33,3.55,8.35,3.07-1,6.15-2,9.17-3.21a4.53,4.53,0,0,0,2.66-5.88A4.94,4.94,0,0,0,219.81,989.59ZM324.09,291.13c-2.52,4.39-5.23,8.73-7.36,13.33-2.77,6,5.69,10.4,9.07,4.73,2.59-4.35,4.64-9,6.85-13.59C335.35,290,327.18,285.74,324.09,291.13ZM357,754.8a4.36,4.36,0,0,0,.89-6.2c-1.29-1.69-2.47-3.68-4.24-5a5.05,5.05,0,0,0-5.8,0,4.45,4.45,0,0,0-1.53,5.26c.94,2,2.63,3.48,4.12,5.08A5,5,0,0,0,357,754.8ZM337,331.35c-2.14,2.62-4.39,5.84-5.29,9.23-.81,1.64-1.61,3.28-2.37,4.95a4.47,4.47,0,0,0,1.86,6c2.07,1,4.94.38,6-1.86.49-1,.95-2.09,1.41-3.15a5.7,5.7,0,0,0,1.7-1.72,11.48,11.48,0,0,0,1.07-2.73c.1-.34.21-.67.33-1l.26-.62c.59-1.43,1.25-2.84,2-4.21C346.05,332,340.12,327.53,337,331.35Zm-1.34,533c1.16,1,2.29,2.06,3.52,3a4.42,4.42,0,0,0,5.56-.36,3.84,3.84,0,0,0,.42-5.26c-1-1.14-2.13-2.21-3.23-3.29a5.24,5.24,0,0,0-2.88-1.6,4.48,4.48,0,0,0-3.76,1.22A3.9,3.9,0,0,0,334,861,4.2,4.2,0,0,0,335.65,864.38Zm16.64-49.86c1.82-1.31,2.46-4.2.86-5.92-2.37-2.53-4.85-5-7.29-7.44a4.61,4.61,0,0,0-6-.75,4,4,0,0,0-.82,5.71c2.33,2.55,4.63,5.14,7,7.63A4.74,4.74,0,0,0,352.29,814.52ZM307,680.12a55.92,55.92,0,0,0,6,6.78c2,1.94,5,2.56,7.27.42s1.71-5-.41-6.88a33.16,33.16,0,0,1-2.57-2.51q-1.47-1.57-2.81-3.24a5,5,0,0,0-6.6-.81A4.37,4.37,0,0,0,307,680.12ZM162.47,1597c2.8,0,5.58.13,8.38.28,2.07.11,3.82-2,3.91-3.92a4.19,4.19,0,0,0-3.35-4.41c-2.78-.46-5.53-1-8.29-1.53a4.86,4.86,0,0,0-5.76,4.42C157.16,1594.86,159.56,1596.92,162.47,1597ZM310.1,835.2c-1-1.9-2.57-3.22-4.12-4.68-1.19-1.12-2.38-2.24-3.64-3.31a5.2,5.2,0,0,0-7,.86c-1.7,2.28-1.11,4.75.88,6.59,1.14,1.05,2.33,2.05,3.52,3.06a15.45,15.45,0,0,0,4.37,3C307.57,842,311.84,838.66,310.1,835.2Zm-.42,19.86c2.63,1.41,5.33,2.71,8,4.05,2.05,1,4.81-.27,5.67-2.17,1-2.24-.25-4.25-2.27-5.35-2.63-1.43-5.24-2.9-7.91-4.26-2.1-1.07-4.94.29-5.82,2.24C306.32,851.86,307.6,853.94,309.68,855.06Zm-6.54,42.16c.37-2.31-1.33-4-3.55-4.52a69.64,69.64,0,0,1-9.28-2.87c-5.45-2.09-9.07,6.17-3.57,7.92a86.53,86.53,0,0,0,11.6,2.86A4.28,4.28,0,0,0,303.14,897.22Zm15.94-3.63,3.65,1.59a4.62,4.62,0,0,0,5.86-2.25,4.22,4.22,0,0,0-2.34-5.53l-3.61-1.7A4.67,4.67,0,0,0,316.7,888,4.25,4.25,0,0,0,319.08,893.59Zm-7.7-18.2a35.49,35.49,0,0,1,5.22,1.93,4.68,4.68,0,0,0,5.94-2.29,4.26,4.26,0,0,0-2.38-5.6,29.32,29.32,0,0,0-6.37-2.08,4.45,4.45,0,0,0-4.91,3A4.08,4.08,0,0,0,311.38,875.39Zm26.19-28.91a3.93,3.93,0,0,0,.43-5.37,39.76,39.76,0,0,0-5.1-4.58c-1.64-1.37-3.28-2.75-5-4.07a4.8,4.8,0,0,0-6.4.79c-1.61,2-1,4.47.8,6,1.54,1.33,3.12,2.6,4.7,3.87a37,37,0,0,0,4.86,3.69C333.74,847.9,335.93,848.07,337.57,846.48ZM213.06,954.59l7.69-.73a4.35,4.35,0,0,0,3.91-4.66,4.43,4.43,0,0,0-4.9-3.67l-7.7.67a4.38,4.38,0,0,0-3.94,4.69A4.46,4.46,0,0,0,213.06,954.59Zm131.17,868.18c3.18,1.12,6.1,2.7,9.2,4a4.06,4.06,0,0,0,5.08-1.41,4,4,0,0,0-.71-5.21,59.64,59.64,0,0,0-9.58-5.48,4.62,4.62,0,0,0-6.08,2.08C341.16,1818.72,341.91,1822,344.23,1822.77Zm23.37-44.08a31.91,31.91,0,0,0-5.86-.7c-2.13-.19-4.42-.69-6.54-.45a5.09,5.09,0,0,0-.6,10.07c2.11.6,4.68.42,6.88.5a28.24,28.24,0,0,0,6.75-.36c2-.4,3.32-2.88,3.19-4.77A4.89,4.89,0,0,0,367.6,1778.69Zm7.09-14.34c.45-2.4-1.16-4.14-3.3-4.82-3.84-1.21-7.5-3-11.53-3.62a5,5,0,1,0-1.87,9.83c3.91.82,8,.84,11.86,1.89C372,1768.22,374.29,1766.42,374.69,1764.35Zm-55.26,86.46c2.19,1.32,4.47,2.48,6.72,3.68a4.63,4.63,0,1,0,4.07-8.31c-2.2-1.31-4.37-2.65-6.64-3.84a4.77,4.77,0,0,0-6.33,2.17A4.83,4.83,0,0,0,319.43,1850.81Zm22.44-11.24c1.18-1.79,1.06-4.66-.81-6a74.34,74.34,0,0,0-7-4.91,4.86,4.86,0,0,0-6.16,1.71,4.8,4.8,0,0,0,.86,6.31,76.87,76.87,0,0,0,7.23,4.53C338,1842.39,340.72,1841.32,341.87,1839.57ZM320.54,1819l.08,0C320.81,1819,320.86,1819,320.54,1819Zm-66.69-153.55a51.45,51.45,0,0,0-16-.23c-6.38.81-5.81,10.3.69,10,4.85-.24,9.93-.3,14.75-.91S259,1666.49,253.85,1665.44ZM380,1779.26l5.72,2.5a4.57,4.57,0,0,0,6-2.06c.89-2,.29-5.12-2.07-6l-5.89-2.14c-2.1-.76-4.74-.3-5.73,2A4.33,4.33,0,0,0,380,1779.26Zm-47.26,27.61c2.11.61,4.68.42,6.88.5a28.76,28.76,0,0,0,6.75-.35c2-.41,3.32-2.88,3.19-4.77a4.89,4.89,0,0,0-3.82-4.29,31.91,31.91,0,0,0-5.86-.7,32.77,32.77,0,0,0-6.54-.45,5.12,5.12,0,0,0-4.7,4.77A5.18,5.18,0,0,0,332.75,1806.87Zm44.62-3.59a3.94,3.94,0,0,0-1.11-4.13,13.42,13.42,0,0,0-3.43-2.21c-1-.56-2.1-1.08-3.19-1.55a4.47,4.47,0,1,0-3.93,8c2.56,1.12,5.47,2.43,8.28,2.48A3.82,3.82,0,0,0,377.37,1803.28Zm6-57.1c.5-2.64-1.28-4.63-3.66-5.35-4.2-1.27-8.22-3-12.34-4.47-2.6-.93-5.55-.27-6.83,2.39a5.14,5.14,0,0,0,2.4,6.81,80.87,80.87,0,0,0,15.06,4.27A4.67,4.67,0,0,0,383.38,1746.18Zm-14.94-32.76a5.2,5.2,0,1,0-1.95,10.22,113.16,113.16,0,0,0,11.3,1.68,5,5,0,0,0,5.69-3.86,4.93,4.93,0,0,0-3.87-5.66A109.86,109.86,0,0,0,368.44,1713.42ZM367.21,1816c1.16-2.36,0-4.71-2.07-6-2.54-1.58-5.06-3.23-7.71-4.63a4.74,4.74,0,0,0-6.25,2.14c-1.21,2.46,0,4.88,2.15,6.22,2.53,1.59,5.23,2.94,7.86,4.34A4.56,4.56,0,0,0,367.21,1816Zm-21.3,25c2.69,1.88,5.5,3.56,8.29,5.27,1.84,1.13,4.49.13,5.55-1.54s1.05-4.43-.77-5.69c-2.69-1.86-5.36-3.77-8.16-5.47-1.89-1.15-4.6-.14-5.7,1.58S344.05,1839.61,345.91,1840.91Zm-17.69-58.7c2.1.6,4.68.41,6.88.49a28.76,28.76,0,0,0,6.75-.35c2-.4,3.32-2.88,3.19-4.77a4.89,4.89,0,0,0-3.82-4.29,31.92,31.92,0,0,0-5.87-.7c-2.12-.19-4.42-.69-6.53-.45a5.12,5.12,0,0,0-4.7,4.77A5.18,5.18,0,0,0,328.22,1782.21ZM293,1739.69c3.51.47,7,.7,10.57,1a5,5,0,0,0,5.71-3.87,4.91,4.91,0,0,0-3.89-5.68c-3.5-.5-7-1.12-10.49-1.49a5.23,5.23,0,0,0-6,4A5.15,5.15,0,0,0,293,1739.69Zm-6.63,72.36a40.32,40.32,0,0,0-9.89-1.31c-5.36.13-6.09,8.79-.64,9.46,2.91.35,5.81.42,8.72.89C290.48,1822.06,292.22,1813.39,286.41,1812.05Zm9.4-30.8a51.17,51.17,0,0,0,7.53.83,67.92,67.92,0,0,0,7,.44c5-.16,6.38-7.45,1.28-8.86a66.05,66.05,0,0,0-6.86-1.21,50.29,50.29,0,0,0-7.5-1C291.65,1771.32,290.13,1780,295.81,1781.25Zm-1.55-63.15c4.91.81,9.9,1.08,14.81,1.92,6.12,1,7.92-8.23,1.8-9.46a88.57,88.57,0,0,0-16-2.19C289.21,1708.29,288.8,1717.19,294.26,1718.1Zm-22.11,84.35a45.73,45.73,0,0,0,12.19.77c5.62-.31,4.92-8.43-.54-8.56a49.92,49.92,0,0,1-9.8-1.41C268.07,1792,266.24,1801.16,272.15,1802.45Zm28.43-1.87c4.53.66,9.13.42,13.69.74a4.53,4.53,0,0,0,4.55-4.42c0-2.6-2-4.28-4.43-4.53-4.12-.44-8.24-1.51-12.38-1.64a5,5,0,0,0-5,4.31C296.71,1797.26,298.07,1800.21,300.58,1800.58Zm-38.51-24.31c0,2.59,2,4.23,4.4,4.5,4.28.47,8.79,1,13.06.19,5.37-1,4.38-9.62-1.1-9.49-4,.1-7.82.77-11.85.41C264.18,1771.66,262.1,1774,262.07,1776.27Zm75.33-19c5.51.28,6.14-9.22.58-9.7s-11.3-1.14-17-1.22-6.22,9.18-.59,9.87S331.75,1757,337.4,1757.24Zm-36.15-.93c-5.58-.08-7.1,8.55-1.42,9.85a52.71,52.71,0,0,0,7.53.82,67.92,67.92,0,0,0,7,.44c5-.15,6.38-7.44,1.28-8.85a66.08,66.08,0,0,0-6.86-1.22A51.63,51.63,0,0,0,301.25,1756.31Zm42.36-42.41a4.73,4.73,0,1,0,1.77-9.29c-3.19-.75-6.39-1.7-9.63-2.19a4.87,4.87,0,0,0-5.61,3.8,4.92,4.92,0,0,0,3.82,5.59C337.1,1712.74,340.4,1713.23,343.61,1713.9Zm-87.9-16.2c.26,4.6,4.26,6,8.07,7.11s7.52,2.15,11.28,3.22c5,1.41,7.82-7,2.86-8.66l-7.4-2.52-3.69-1.26-2.13-.71C262.3,1690.87,255.42,1692.56,255.71,1697.7Zm16.35,56.36c-4.61-.16-6,7.39-1.18,8.19s10,1.48,15,.63c5.36-.92,4.31-9.5-1.09-9.38C280.51,1753.59,276.34,1754.21,272.06,1754.06Zm56.18-23.78a5.18,5.18,0,0,0,4.1,5.29c2.11.61,4.68.42,6.89.5a28.7,28.7,0,0,0,6.74-.35c2-.41,3.33-2.88,3.19-4.77a4.91,4.91,0,0,0-3.82-4.3,31.81,31.81,0,0,0-5.86-.7,33.46,33.46,0,0,0-6.54-.44A5.12,5.12,0,0,0,328.24,1730.28ZM162.1,362a5.2,5.2,0,0,0-7.24.31,79.52,79.52,0,0,0-8.48,13.1,4.64,4.64,0,0,0,1.93,6.18c2.39,1.25,4.82.14,6.21-1.93,2.44-3.63,5.26-6.95,7.88-10.45C164.06,367,164.28,364,162.1,362ZM136,1591.59c3.75.46,7.87,1.07,11.64.54a4,4,0,0,0,.54-8c-3.35-.89-6.9-1.17-10.3-1.91C131.78,1580.93,129.92,1590.85,136,1591.59Zm160.35,83c5.25-.09,5.94-8.86.55-9.3-4.67-.39-9.79-1.64-14.45-1.13-5.88.66-6.79,9.44-.63,10.54C286.48,1675.54,291.6,1674.68,296.33,1674.6Zm-177.94-105c3,1.61,7.16,3,10.67,2.67a4.61,4.61,0,0,0,4.12-3.59c.36-1.81-.59-4.23-2.43-4.9-2.89-1-5.4-1.54-8.14-2.8a4.92,4.92,0,0,0-6.44,2.21A4.88,4.88,0,0,0,118.39,1569.6ZM129.8,318.51c-1.2,1.83-1.77,4.34-2.49,6.41a28.5,28.5,0,0,0-1.62,6.53c-.2,2,1.8,4,3.65,4.44a4.92,4.92,0,0,0,5.23-2.4,30.87,30.87,0,0,0,2.38-5.38,32.78,32.78,0,0,0,2.34-6.1,5.1,5.1,0,0,0-3.21-5.87A5.2,5.2,0,0,0,129.8,318.51Zm-17,36.51c-.2,2,1.8,4,3.65,4.43a4.9,4.9,0,0,0,5.23-2.39,32.39,32.39,0,0,0,2.39-5.38,33.74,33.74,0,0,0,2.33-6.1,5.1,5.1,0,0,0-3.21-5.87,5.2,5.2,0,0,0-6.28,2.36c-1.19,1.83-1.76,4.34-2.48,6.42A27.77,27.77,0,0,0,112.81,355Zm27.35-67.12a49.49,49.49,0,0,0-3,6.94,64.82,64.82,0,0,0-2.46,6.51c-1.32,4.83,5.29,8.25,8.13,3.8A69.14,69.14,0,0,0,146,299a51.82,51.82,0,0,0,3.18-6.85C150.91,286.83,143.06,282.86,140.16,287.9Zm-12,1250.79c-2.23-.73-4.47-1.57-6.76-2.09a4.78,4.78,0,0,0-5.43,3.16c-.69,2,.15,5,2.4,5.79,2.61.92,5.29,1.55,8,2.24a4.69,4.69,0,0,0,5.48-3.64C132.28,1541.42,130.69,1539.49,128.2,1538.69ZM126.58,285c-2-.92-5.28-.49-6.37,1.8-2,4.12-3.06,8.58-4.7,12.83a4.51,4.51,0,0,0,2.92,5.62,4.59,4.59,0,0,0,5.64-2.9c1.63-3.8,3.85-7.41,5.18-11.33A5,5,0,0,0,126.58,285Zm30.47,33.66c-2.29,5.15-4,10.55-6,15.85s7.07,8.55,9.15,3.38,4.39-10.43,6.11-15.8S159.36,313.51,157.05,318.68Zm24.88,51.19a5.31,5.31,0,0,0-7.05,2.19A109.87,109.87,0,0,0,170,382.33a4.86,4.86,0,0,0,8.62,4.5,110.9,110.9,0,0,0,5.54-9.94A5.3,5.3,0,0,0,181.93,369.87Zm-19.28,1140.7c-1.11,2.26-.24,5.76,2.32,6.71a108.69,108.69,0,0,0,10.79,3.66c5.24,1.36,7.54-6.36,3-8.72a93.45,93.45,0,0,0-9.32-4A5.19,5.19,0,0,0,162.65,1510.57Zm-18.94-1161a5.12,5.12,0,0,0-6.78,2.11c-1.93,3.48-3.13,7.37-5.27,10.75-1.2,1.88-.13,4.59,1.74,5.56,2.17,1.14,4.31.11,5.58-1.73,2.29-3.31,5.1-6.27,6.84-9.94A5.1,5.1,0,0,0,143.71,349.57Zm7,1176.16c-2-.7-4-1.6-5.92-2.45-2.42-1-5.62-.25-6.74,2.31a5.09,5.09,0,0,0,2.32,6.72,44.23,44.23,0,0,0,7.29,2.43,4.8,4.8,0,0,0,5.47-3.18C153.82,1529.52,153,1526.52,150.71,1525.73Zm-1.82,18.45c-1.41-.57-2.78-1.22-4.2-1.76a5.28,5.28,0,0,0-6.86,2.35,5.2,5.2,0,0,0,2.36,6.85,23,23,0,0,0,11.22,2.6c4.39-.21,6-6.85,1.71-8.59C151.7,1545.05,150.23,1544.71,148.89,1544.18Zm14.59,71.22c4,.74,7.86,1.49,11.8,2.28,4.82,1,7.08-5.85,2.73-8a56.68,56.68,0,0,0-12.47-4.5C158.94,1603.6,156.81,1614.16,163.48,1615.4Zm30.94,4.2c4.59,1.29,9.46,1.72,14.12,2.79a4.93,4.93,0,1,0,1.84-9.69c-4.64-1.21-9.18-3.09-13.87-4.08a5.7,5.7,0,0,0-6.56,4.45C189.35,1616.25,191.49,1618.78,194.42,1619.6Zm15.45,43.54c-3.43-1.47-7.31-2.19-10.94-3-5.75-1.35-7.56,7.69-1.8,9a66.61,66.61,0,0,0,11.19,1.91C212.49,1671.13,213.51,1664.7,209.87,1663.14ZM187.3,1649c-4.54-1.14-9-2.62-13.47-3.88-4.87-1.37-7.66,6.64-2.85,8.43a78.66,78.66,0,0,0,14.67,3.71C191,1658.16,192.56,1650.32,187.3,1649Zm3.59-19.85a33.09,33.09,0,0,0-12.87-2.83,4.9,4.9,0,0,0-4.53,4.6c-.1,2.25,1.48,4.86,3.95,5.1a59.24,59.24,0,0,1,10.67,1.56C193,1638.92,195.61,1631.05,190.89,1629.14Zm35,12.9c-5,0-10,.22-14.94.1-2.75-.06-4.9,2.85-4.72,5.4.2,3,2.67,4.63,5.42,4.71a112.7,112.7,0,0,0,14.93-.3C233,1651.26,232.25,1642,225.86,1642Zm12.45,44.09c-4.32-.85-8.66-1.72-13-2.3-5.76-.77-7.59,7.77-1.79,8.89,4.33.83,8.74,1.38,13.11,1.94C242.12,1695.37,243.88,1687.23,238.31,1686.13ZM112,325.24a33.46,33.46,0,0,0,2.33-6.1,5.1,5.1,0,0,0-3.21-5.87,5.2,5.2,0,0,0-6.28,2.37c-1.19,1.83-1.76,4.34-2.48,6.41a27.89,27.89,0,0,0-1.63,6.53c-.2,2,1.8,4,3.65,4.43a4.9,4.9,0,0,0,5.23-2.39A32,32,0,0,0,112,325.24ZM141,1620.51c-2.62-1.12-5.15-2.42-7.66-3.74a4.75,4.75,0,1,0-4.18,8.53,61,61,0,0,0,7.9,3.25c2.29.78,4.85.3,6-2.06A4.51,4.51,0,0,0,141,1620.51Zm-11.17-15a4.06,4.06,0,0,0-2.05-5l-6.13-2.56a4.45,4.45,0,0,0-6.1,2.57c-.9,2.66.76,5,3.29,5.72l6.34,1.93C127.17,1608.86,129.27,1607.32,129.87,1605.56ZM119.7,1590.3a4.34,4.34,0,0,0,4.55-2.24,4.16,4.16,0,0,0-1-5,22.52,22.52,0,0,0-4.34-2.3L117,1580a9.56,9.56,0,0,0-3.5-.8c-1.76-.1-3.43,1.54-3.94,3a4.46,4.46,0,0,0,1.29,4.81,14.78,14.78,0,0,0,4.93,2.14A19.26,19.26,0,0,0,119.7,1590.3Zm33.2,18.07a4.42,4.42,0,0,0-3.51-4.62c-1.54-.27-3.08-.56-4.6-.9s-3-.93-4.56-1.15a5,5,0,0,0-5.79,3.85c-.58,2.85,1.32,4.94,3.86,5.76,3.18,1,7.18,1,10.5,1.17C151,1612.57,152.8,1610.37,152.9,1608.37Zm10.72,16.46a52.54,52.54,0,0,1-7-2.72,5.35,5.35,0,0,0-7,2.41c-1.36,2.76,0,5.48,2.41,7a17.17,17.17,0,0,0,11,2.15C168.08,1632.79,168.58,1626.36,163.62,1624.83Zm86.21,79.62a57.2,57.2,0,0,0-8.74-1.38,4.7,4.7,0,0,0-5.39,3.58,4.61,4.61,0,0,0,3.59,5.37,65.48,65.48,0,0,0,10,.88,4.27,4.27,0,0,0,4-4A4.34,4.34,0,0,0,249.83,1704.45ZM152.58,1571c3.09-.25,4.63-4.29,2.14-6.34a13.48,13.48,0,0,0-5.16-2.32,14.48,14.48,0,0,0-5.37-.79,4.35,4.35,0,0,0-.58,8.57,32.29,32.29,0,0,0,4.3.44A22.32,22.32,0,0,0,152.58,1571ZM205.23,255.61a4.29,4.29,0,0,0,5.33-2.74c1-3.47,1.73-7,2.66-10.5a4.86,4.86,0,1,0-9.5-1.73,58.42,58.42,0,0,1-1.24,9.67C202,252.54,202.87,254.86,205.23,255.61ZM454.66,94.19a5,5,0,0,0,5.25-2.63c1.12-1.89,1.38-4.29,1.8-6.42s1-4.35.82-6.47a4.31,4.31,0,0,0-2.95-3.76c-1.49-.47-3.66-.18-4.61,1.24a24.79,24.79,0,0,0-2.76,6.78c-.7,2.26-1.53,4.46-1.44,6.86A4.89,4.89,0,0,0,454.66,94.19ZM206.25,287.09c1.7-2.3,3.05-4.81,4.67-7.17s3.55-4.62,5-7.1c3-5.05-4.3-9.71-8.22-5.76a34.09,34.09,0,0,0-5.32,7.68,37.88,37.88,0,0,0-3.68,8.41C197.69,287.15,203.59,290.7,206.25,287.09ZM468.18,128.8c-.15,2.14-.53,4.22-.85,6.33-.39,2.6,1.22,5.48,4,5.89a5.12,5.12,0,0,0,5.91-4,43.45,43.45,0,0,0,.48-7.65,4.77,4.77,0,0,0-4.5-4.43C471.05,124.83,468.36,126.41,468.18,128.8ZM460.6,55.36c.74-4.5.42-9.14.87-13.67a4.36,4.36,0,0,0-3.36-5c-2.11-.41-4.71,1.07-5,3.34-.56,4.92-1.85,9.74-2.09,14.68C450.77,60.24,459.73,60.68,460.6,55.36Zm8.74,60.86a4.69,4.69,0,0,0,5-4.92q-.09-5.49-.17-11c-.07-4.29-7-4.78-7.58-.48L465,110.71A4.68,4.68,0,0,0,469.34,116.22ZM105.66,238.91a4.77,4.77,0,0,0,4.92-4.41c.52-4.09,1.46-8.11,2.08-12.18.85-5.51-8.46-7.25-9.69-1.77A100.06,100.06,0,0,0,101.23,234,4.72,4.72,0,0,0,105.66,238.91ZM84.12,308.33a5.19,5.19,0,0,0-6.27,2.37c-1.2,1.83-1.77,4.34-2.49,6.41a28.5,28.5,0,0,0-1.62,6.53c-.2,2,1.79,4,3.65,4.44a4.92,4.92,0,0,0,5.23-2.4A31.2,31.2,0,0,0,85,320.3c.8-2,2-4,2.34-6.1A5.11,5.11,0,0,0,84.12,308.33Zm20.4-25.25a5.18,5.18,0,0,0,5.78-3.41,31,31,0,0,0,1.32-4.85,37.17,37.17,0,0,0,1.22-5.59c.37-4.75-6.59-7.16-9-2.89a28.68,28.68,0,0,0-2.14,5.62,26.56,26.56,0,0,0-1.34,5.9A5.08,5.08,0,0,0,104.52,283.08ZM85.76,265.55a4.85,4.85,0,0,0,6-3.07c1.13-3.05,2.47-6.11,3.35-9.25a4.86,4.86,0,0,0-3.12-6,4.94,4.94,0,0,0-6,3.1c-1.3,3-2.19,6.2-3.25,9.29A4.77,4.77,0,0,0,85.76,265.55ZM96.7,286a4.89,4.89,0,0,0-5.33,1.91,22.58,22.58,0,0,0-2.48,5.28,27.17,27.17,0,0,0-1.64,5.59c-.41,2.37,1.84,4.58,4,5,2.53.46,4.39-1,5.44-3.17-.07.17-.09.21,0-.08l0,.06c.15-.32.48-1.06.52-1.17.14-.38.24-.77.37-1.16.24-.76.51-1.53.77-2.29a30,30,0,0,0,1.58-5.29A4.61,4.61,0,0,0,96.7,286Zm370-213.66a4.74,4.74,0,0,0,5,4.25c2.36-.17,4.63-2.46,4.27-4.93a75.87,75.87,0,0,0-2.77-13.28c-2-6.11-11.53-2.86-9.49,3.25A66.63,66.63,0,0,1,466.73,72.31ZM69.76,259.9a31.64,31.64,0,0,0,1.4-5.72,32.85,32.85,0,0,0,1.24-6.41,5.1,5.1,0,0,0-4.19-5.22A5.19,5.19,0,0,0,62.44,246c-.85,2-1,4.58-1.33,6.75a28.54,28.54,0,0,0-.46,6.71c.16,2,2.47,3.64,4.37,3.74A4.92,4.92,0,0,0,69.76,259.9ZM76.44,295a111.92,111.92,0,0,0,3.72-10.75,5.22,5.22,0,0,0-10-3.17,112.77,112.77,0,0,0-3,11,4.86,4.86,0,0,0,9.27,3ZM429.62,769.25c.82,3.51,1.64,7,2.42,10.51,1.17,5.32,9.74,4.58,9-1a42.46,42.46,0,0,0-3.15-11.52C436.14,763.16,428.53,764.62,429.62,769.25Zm16.79-653.87a5.15,5.15,0,0,0,4,5.89c2.48.48,5.64-1.26,5.91-4a107.22,107.22,0,0,0,.75-11.33c0-5.39-8.11-5.6-9.22-.58A95.7,95.7,0,0,0,446.41,115.38Zm-3.38-40c2.88-.31,4.48-2.46,4.59-5.21-.05,1.21.08-.49.11-.71,0-.46.1-.92.19-1.39a6.66,6.66,0,0,1,.29-1.23c.14-.28.32-.66.36-.76a5.07,5.07,0,0,0-2.36-6.7,5.14,5.14,0,0,0-6.73,2.35,15.71,15.71,0,0,0-1.68,9.07C438.17,73.38,440.25,75.72,443,75.42Zm-5.59,547.92c-.28-2-1.13-3.84-1.58-5.8a31.73,31.73,0,0,1-.63-5.92c-.14-4.83-8.81-5-9-.1-.22,4.48-.58,10,1.23,14.26C429.61,630.86,438.2,628.93,437.44,623.34ZM433.1,98.61c2.82.18,4.61-2,4.7-4.65.07-2.2.15-4.4.22-6.6.07-2-2-3.65-3.82-3.77a4.07,4.07,0,0,0-4.27,3.26c-.3,2.18-.6,4.37-.89,6.55A4.43,4.43,0,0,0,433.1,98.61ZM422.52,739.5c-.7-3.63-1.89-7.16-2.94-10.71-1.4-4.69-10-2.65-8.89,2.16.85,3.6,1.58,7.24,2.78,10.75C415.09,746.43,423.47,744.44,422.52,739.5Zm2.21-44.6a4.6,4.6,0,0,0,5,3.76,4.43,4.43,0,0,0,4-4.77,26.8,26.8,0,0,0-3.68-10,4.52,4.52,0,0,0-5.61-2.24,4.07,4.07,0,0,0-2.41,5.32A39.74,39.74,0,0,1,424.73,694.9Zm8.52,23.72c1.24,2.37,2.23,4.8,3.33,7.22a4.74,4.74,0,0,0,6,2.38,4.33,4.33,0,0,0,2.54-5.64,33.29,33.29,0,0,0-4.63-7.85C437.76,711.2,431.13,714.58,433.25,718.62ZM55.87,273.35a5.19,5.19,0,0,0-7.07,1.56,80,80,0,0,0-6.08,14.37,4.64,4.64,0,0,0,3,5.75c2.58.82,4.77-.7,5.78-3,1.77-4,4-7.76,6-11.66C58.67,277.94,58.37,275,55.87,273.35ZM450.45,708.81c.31,4.72,1.87,9.74,3.45,14.19.88,2.47,4.17,3.59,6.63,2.65a4.86,4.86,0,0,0,2.83-6.28,125.53,125.53,0,0,0-4.21-12.68C457.19,702.13,450.13,704.05,450.45,708.81Zm-21.56,34.76,4.73,8.35a4.68,4.68,0,0,0,6.46,2.09c2.58-1.4,2.79-4.11,1.41-6.34l-5.07-8.17c-1.08-1.75-3.94-2-5.61-1S427.85,741.74,428.89,743.57ZM448,762.35a69,69,0,0,1,1.88,7.36,4.64,4.64,0,0,0,5.06,3.79c2.34-.26,4.48-2.5,4-4.8a37.94,37.94,0,0,0-3.17-9.35C453.53,754.66,446.34,757.5,448,762.35ZM453.62,687c-.91-2.72-2.47-5.16-3.18-8a4.75,4.75,0,0,0-5.17-3.87c-2.44.28-4.51,2.54-4.13,4.91.65,4,1.52,8.18,3.64,11.71,1.24,2.06,4.65,2.3,6.59,1.22A4.8,4.8,0,0,0,453.62,687Zm-9.34-39.92c-.92-5.69-10-4.71-9.42,1a46.38,46.38,0,0,0,2.56,11.49c.91,2.43,4.11,3.57,6.58,2.63a4.81,4.81,0,0,0,2.82-6.24A46.6,46.6,0,0,1,444.28,647.07Zm69.17-494.7a4.89,4.89,0,0,0,5.64-3.79c.77-3.35,1-7.66-.17-11a4.61,4.61,0,0,0-4.55-3c-1.84.12-3.95,1.66-4.12,3.61-.26,3.05-.09,5.59-.61,8.55A4.89,4.89,0,0,0,513.45,152.37Zm-.38-28.19a31.06,31.06,0,0,0-.68-4.25,22.91,22.91,0,0,0-.79-4.61c-1-2.9-5.36-3.34-6.7-.42a13.53,13.53,0,0,0-.92,5.57,14.51,14.51,0,0,0,.62,5.37A4.38,4.38,0,0,0,513.07,124.18Zm-10.78-64c1.27,5.57,10.25,4.59,11-.8.69-5.07-1.59-10.49-3.47-15.11-2.35-5.75-11.11-2.84-9.21,3.15C501.93,51.57,501.35,56,502.29,60.15Zm-87,643.55c-1.11-1.8-4.08-2-5.8-1.07s-3,3.38-2,5.28c1.55,2.84,3.08,5.68,4.77,8.45,1.14,1.86,4.21,2.09,6,1.1s3.14-3.48,2.05-5.45C418.75,709.19,417,706.46,415.29,703.7Zm98.83-630a3.63,3.63,0,0,1,0,.38c0,.46-.08.91-.13,1.36a28,28,0,0,0-.35,3.88,5.52,5.52,0,0,0,10.91.6A20.86,20.86,0,0,0,524.3,73c-.37-2.4-.69-4.12-1.26-6.65-.51-2.32-3.41-3.59-5.53-3.12s-4.31,2.65-3.86,5A23.65,23.65,0,0,1,514.12,73.73Zm13,14.87a4.19,4.19,0,0,0-3.4,4.37c.28,2.79.48,5.57.66,8.37a4.86,4.86,0,0,0,5.78,4.4c3-.59,4.38-3.44,3.68-6.26s-1.32-5.4-1.9-8.13C531.51,89.33,529,88.21,527.12,88.6ZM498.24,97c-.13,2.92,3.23,5.47,6,5.14,3.29-.39,5-2.84,5.16-6a27.14,27.14,0,0,0-.81-5.93c-.41-2.16-.83-4.3-1.31-6.45s-3.26-3.42-5.28-3-4.11,2.52-3.68,4.8a24.36,24.36,0,0,1,.5,5.65C498.75,92.78,498.31,95.22,498.24,97Zm23.18-52.28a5.82,5.82,0,0,0,7,4.19c3.29-.8,4.61-3.84,4.21-6.92a67,67,0,0,0-1.67-7.53,37.27,37.27,0,0,0-2.42-7.68,4.54,4.54,0,0,0-5-2.2,4.66,4.66,0,0,0-3.4,4.23,36.63,36.63,0,0,0,.34,7.61A69.84,69.84,0,0,0,521.42,44.76ZM727,491.71l-6.73-2.7c-5.12-2.06-8.89,5.46-3.76,7.77,3.09,1.4,6.42,2.62,9.45,4.21,1.85,2.39,6.06,1.71,7.56-1l.12-.21a4.47,4.47,0,0,0-.33-4.52C731.8,493.25,729.34,492.63,727,491.71ZM582.57,93.05A4.85,4.85,0,1,0,592,91.2c-.68-2.71-1.32-5.4-1.9-8.13-.43-2-3-3.15-4.82-2.76a4.22,4.22,0,0,0-3.41,4.37C582.19,87.47,582.39,90.26,582.57,93.05ZM732.2,461.8c-4.06-1.77-8.3-3.2-12.4-4.91-5.42-2.26-9,5.25-3.93,8.15a46.87,46.87,0,0,0,13.46,5.39C734.37,471.44,737.06,463.92,732.2,461.8Zm-136.35-383a5.12,5.12,0,0,0,5.92-4,44.31,44.31,0,0,0,.47-7.64,4.79,4.79,0,0,0-4.5-4.44c-2.15-.14-4.85,1.45-5,3.83-.16,2.14-.54,4.22-.85,6.33C591.48,75.5,593.08,78.38,595.85,78.79Zm-48.09,26.55a4.39,4.39,0,0,0-3.57,4.57c.13,1.55.24,3.11.31,4.66s-.12,3.16.07,4.69a5,5,0,0,0,5.22,4.58c2.92-.19,4.45-2.56,4.6-5.21.18-3.33-.86-7.18-1.59-10.41C552.32,106.11,549.72,104.92,547.76,105.34Zm34.18-38.1a79,79,0,0,0-.19-15.07c-.52-5.43-8.51-4.87-8.44.54.06,4.66-.22,9.3-.28,14C573,71.71,581.45,72.33,581.94,67.24Zm-21,23.52a53.15,53.15,0,0,1-.83,7.42,5.32,5.32,0,0,0,4.15,6.12c3,.59,5.31-1.42,6.14-4.13a17.06,17.06,0,0,0-.75-11.12C567.5,84.41,561.13,85.6,560.94,90.76ZM338.14,1578.3c-1.15-.81-2.3-1.62-3.43-2.45-2.14-1.58-5.39-1.73-7.18.53-1.56,2-1.8,5.54.54,7.16,2.85,2,6.17,4.31,9.63,5,4.63,1,7.06-4.85,3.86-7.89a15.66,15.66,0,0,0-2.25-1.62l-.74-.47ZM49.84,250c1.16-5.52,2.5-11,3.27-16.62s-8.39-7.26-9.76-1.77-2.14,11.1-3.1,16.65S48.69,255.42,49.84,250Zm518-139.89a4.53,4.53,0,0,0-5.26,3.53c-.42,2.81-1,5.58-1.65,8.34a4.76,4.76,0,0,0,9.35,1.81,58.38,58.38,0,0,0,1.11-8.44C571.57,112.91,570.45,110.58,567.86,110.08ZM430.07,838.31c2.07-.9,3.45-3.28,2.43-5.38a22.79,22.79,0,0,0-4.43-6.22c-1.53-1.55-4.12-2.26-6-.75a4,4,0,0,0-.82,5.71,24.67,24.67,0,0,1,1.9,2.42c.29.42.58.85.85,1.28.09.14.92,1.5.42.67C425.5,837.91,427.73,839.32,430.07,838.31ZM27,230.91a5.11,5.11,0,0,0-6.31,3.25c-1.29,3.76-1.8,7.8-3.32,11.49-.85,2.06.68,4.55,2.68,5.18,2.34.75,4.27-.64,5.2-2.67,1.68-3.65,3.93-7,5-11A5.11,5.11,0,0,0,27,230.91Zm8.49,33.15a5.1,5.1,0,0,0-6.31,3.24c-1.29,3.77-1.8,7.8-3.32,11.5-.85,2.06.67,4.54,2.68,5.18,2.34.74,4.27-.64,5.2-2.68,1.68-3.65,3.93-7.05,5-11A5.09,5.09,0,0,0,35.48,264.06Zm490-147.89c0,3.46.64,6.94.81,10.41.29,6.19,10.4,5.41,9.54-.62-.53-3.73-1-7.85-2.49-11.33A4.06,4.06,0,0,0,525.51,116.17Zm17.21-47.7c3.24-.24,5.14-3,5.18-6,.06-4.75-.79-9.55-.95-14.3a5,5,0,0,0-9.88.73c0,4.78-.62,9.64-.36,14.4A5.68,5.68,0,0,0,542.72,68.47Zm-7.25,69.7a4.17,4.17,0,0,0-4.53,2.27,21.64,21.64,0,0,0-1.1,4.76c-.11.68-.22,1.35-.32,2a9.39,9.39,0,0,0,.13,3.58c.35,1.72,2.38,2.9,4,3a4.49,4.49,0,0,0,4.33-2.49,14.78,14.78,0,0,0,.8-5.29,19.11,19.11,0,0,0,.07-4.07A4.29,4.29,0,0,0,535.47,138.17Zm7-57.31A56.44,56.44,0,0,0,541.34,94c.23,6.74,11,6.06,10.49-.68-.3-4-.59-8-.84-11.94C550.69,76.5,543.48,76.1,542.47,80.86Zm15.59-17.45a32.59,32.59,0,0,0,.59,13.12,4.89,4.89,0,0,0,5.63,3.16c2.21-.49,4.33-2.68,3.92-5.12A58.35,58.35,0,0,1,567,63.9C567,58.86,558.69,58.38,558.06,63.41Zm4.25-13.85a65.14,65.14,0,0,0-1-11.26c-.91-4.06-7.41-3.38-8,.52-.54,3.69-.23,7.61-.12,11.32C553.35,56,562.58,55.43,562.31,49.56ZM551.09,128a4.05,4.05,0,0,0-4.27,3.25l-.9,6.56A4.42,4.42,0,0,0,550,143c2.81.19,4.61-2,4.7-4.64.07-2.2.15-4.4.22-6.6C555,129.7,553,128.08,551.09,128ZM346.91,652.9c1.14,1.79,2.26,3.58,3.48,5.32,1.43,2,5,2.4,6.92.85,2.26-1.79,2.33-4.28.94-6.54-1.11-1.8-2.32-3.54-3.5-5.29-1.39-2-5-2.38-6.9-.86C345.62,648.15,345.49,650.67,346.91,652.9Zm-2.44,56.85a4.73,4.73,0,0,0-5.92.39c-1.43,1.39-2,4-.44,5.59,2.64,2.63,5.07,5.28,7.45,8.12a5.06,5.06,0,0,0,6.71.83,4.45,4.45,0,0,0,.91-6.35A36.59,36.59,0,0,0,344.47,709.75ZM328.92,729c-2-1.17-4.81-1.24-6.32.78-1.3,1.74-1.33,4.69.79,6a45.65,45.65,0,0,1,7,5.15c1.72,1.55,5.05,1,6.38-.79a4.24,4.24,0,0,0-.8-6A45.48,45.48,0,0,0,328.92,729Zm7.4-62.8c-2.84-2.59-8.18,1.21-6.29,4.51,1.47,2.58,3,4.91,4.38,7.55a4.83,4.83,0,0,0,6,2.41c2.11-.82,3.76-3.62,2.57-5.7A35.76,35.76,0,0,0,336.32,666.15Zm-19.13,89.14a20,20,0,0,0,10.61,6.89c1.81.47,3.92-.94,4.61-2.46a4,4,0,0,0-1.32-4.82c-1.27-.92-2.66-1.68-3.91-2.62s-2.41-2-3.58-3c-1.66-1.44-4.48-1-6,.39A4.13,4.13,0,0,0,317.19,755.29Zm18.73,17.59c1.86,4.4,5.89,8.3,9.72,11.24a4.89,4.89,0,0,0,6.15-.41c1.48-1.43,2.11-4.21.46-5.81a49.34,49.34,0,0,1-4.22-4.58c-1.3-1.61-2.33-3.42-3.66-5C341,764.24,333.84,768,335.92,772.88Zm-12.05,23.85c3,2.21,7.46-.25,7.07-3.79-.31-2.89-2.49-5.75-3.93-8.26-1.22-2.1-3.75-3.66-6.35-2.53-2.16.93-4.06,3.76-2.72,6,.9,1.52,1.78,3.05,2.72,4.55A13.37,13.37,0,0,0,323.87,796.73Zm-5.25-98.53a4.23,4.23,0,0,0-.94,3.17,4.78,4.78,0,0,0,1.75,2.94l3.65,3.23a4.88,4.88,0,0,0,6.6-.81,4.37,4.37,0,0,0-.82-6.24l-3.77-3.09A4.84,4.84,0,0,0,318.62,698.2ZM260.56,807.47c-1.07,2.38.26,4.53,2.42,5.69,3.14,1.69,5.84,3.94,8.89,5.72,2.13,1.24,4.87,1.22,6.52-.8s1-4.48-.82-6.16c-3-2.83-7.27-4.89-11-6.76C264.41,804.05,261.48,805.45,260.56,807.47ZM218.14,404.24c2.32,1.21,4.74.15,6.07-1.89,2.26-3.46,5.08-6.63,7.07-10.25a5,5,0,0,0-1.58-6.4c-1.86-1.26-5.12-1.39-6.58.67-2.65,3.72-4.52,7.92-6.87,11.83A4.51,4.51,0,0,0,218.14,404.24Zm101.69-52.31a4.85,4.85,0,0,0-6.42,3.41,58.72,58.72,0,0,1-2.91,9.31c-.82,2.12-.41,4.55,1.79,5.7a4.3,4.3,0,0,0,5.72-1.78c1.61-3.24,2.93-6.6,4.45-9.88A4.86,4.86,0,0,0,319.83,351.93Zm-101,468.61a85.74,85.74,0,0,1,8.62,4.61,5.05,5.05,0,0,0,6.63-.82,4.36,4.36,0,0,0-.83-6.26,52.58,52.58,0,0,0-10.62-6,5,5,0,0,0-6.35,2.44A4.54,4.54,0,0,0,218.8,820.54Zm56.55-23.91c4.51,1.89,8.83-4.59,4.5-7.24a37.57,37.57,0,0,0-11.62-4.49c-4.8-1-6.56,5.87-2.29,7.66C269.09,793.89,272.2,795.31,275.35,796.63Zm40.29,16.52a33.55,33.55,0,0,0,5.28,6c1.76,1.68,4.56,2.56,6.74.84,1.92-1.52,2.65-4.44.91-6.37s-3.33-4.15-5-6.22a5.21,5.21,0,0,0-7-.86C314.34,808.35,314.2,810.9,315.64,813.15ZM292.23,955.61a77.82,77.82,0,0,0-8.5-.32,4.24,4.24,0,0,0-3.84,4.57,4.35,4.35,0,0,0,4.81,3.61,57.94,57.94,0,0,1,6.32-.2c2.21.06,4.3-1,4.65-3.28A3.92,3.92,0,0,0,292.23,955.61Zm13.68-241.54a4.41,4.41,0,0,0-5.35,1.71c-1,1.6-.83,4.19,1,5.24,2.71,1.54,5.13,3.43,7.76,5.06a4.78,4.78,0,0,0,6.27-.78c1.59-1.94,1-4.36-.78-5.92A39.69,39.69,0,0,0,305.91,714.07ZM251.8,739.94c-5.33-.79-7.61,6.67-2.58,8.62a99.09,99.09,0,0,0,9.59,3.66c8.49,2.33,9.65-4.83,4.64-7.47C259.81,742.83,256,740.55,251.8,739.94Zm-18.16,134a4.35,4.35,0,0,0,3.79,4.82c3.43.6,6.89,1,10.31,1.68,6,1.12,7.52-8,1.42-9a88.65,88.65,0,0,0-10.4-1.14C236.33,870.22,234,871.47,233.64,873.91Zm16.27-51a4.91,4.91,0,0,0-5.93,1.9c-1.06,1.75-.92,4.65,1.14,5.81a103.81,103.81,0,0,0,9.88,4.84,5,5,0,0,0,6.33-2.43c1.11-2.47-.26-4.76-2.54-6A91.94,91.94,0,0,0,249.91,822.87Zm4.78-49.15c-3.1-1-10.2-2.9-13.49-3-2.45-.08-4.78,1.17-5.17,3.64s5.26,5.52,7.68,5.94A44.55,44.55,0,0,1,251,782a5,5,0,0,0,6.24-2.39A4.42,4.42,0,0,0,254.69,773.72Zm-8,35.76a4.8,4.8,0,0,0,6.07-2.33,4.34,4.34,0,0,0-2.43-5.73l-7.92-3.55a4.8,4.8,0,0,0-6.07,2.33,4.34,4.34,0,0,0,2.43,5.73Zm17.6,40.95c-3.24-.8-6.52-1.47-9.79-2.16a4.41,4.41,0,0,0-5,3.5c-.38,2.42,1.38,4.12,3.67,4.68,3.25.8,6.49,1.62,9.77,2.31a4.49,4.49,0,0,0,5.06-3.57C268.4,852.73,266.59,851,264.26,850.43Zm23.48-38.78c2.33,2.55,4.9,4.93,7.36,7.38a5.22,5.22,0,0,0,6.81.84c2-1.43,2.66-4.58.92-6.44-2.36-2.52-4.65-5.13-7.13-7.54-1.88-1.82-4.67-2.56-7-.87C286.64,806.5,286,809.71,287.74,811.65Zm1.77-28.74a4.06,4.06,0,0,0,.77,5.81c2.74,2.25,8.79,8.34,11.21,10.63,1.72,1.63,5.21,1,6.54-.81,1.61-2.16,1-4.43-.82-6.18-2.35-2.22-8.88-8.32-11.54-10.21A4.65,4.65,0,0,0,289.51,782.91Zm16.32-5c2.35.76,5.29,0,6.25-2.4a4.46,4.46,0,0,0-2.5-5.89c-2.28-.84-4.56-1.67-6.87-2.44s-5.37,0-6.33,2.43a4.53,4.53,0,0,0,2.54,6C301.21,776.41,303.52,777.15,305.83,777.91Zm-15.14,95.65a19.21,19.21,0,0,1,5.39,1.51c1.81.8,3.92,1.83,5.05,3.44a4.12,4.12,0,0,1,.26,4.68,4.51,4.51,0,0,1-4.47,2.08,37.11,37.11,0,0,1-4.39-1.74,11.42,11.42,0,0,0-1.12-.39l-.24-.06c-.64-.14-1.28-.25-1.92-.37a4.74,4.74,0,0,1-4.11-5.23C285.42,875,288.16,873.27,290.69,873.56Zm.75,9.58ZM410.57,656.36c.35,4.25.67,8.49.9,12.75.13,2.33,2.71,4.06,5.06,3.79a4.52,4.52,0,0,0,4-4.8,53.73,53.73,0,0,0-1.38-12.7C418,650.33,410.14,651,410.57,656.36ZM264.18,866.31c-1.42,2.29-.24,4.6,2,5.82a75.17,75.17,0,0,0,10,4.75,3.74,3.74,0,1,0,3.08-6.82,66.23,66.23,0,0,1-8.72-5A4.51,4.51,0,0,0,264.18,866.31Zm14.73-12.24c-1.58,2.54-.27,5.1,2.22,6.45a30.41,30.41,0,0,0,9.51,3.28,4.26,4.26,0,0,0,4.67-2.9c.49-1.74-.32-4.2-2.37-4.76a17.82,17.82,0,0,1-7-3.4A5,5,0,0,0,278.91,854.07Zm124.47,877c-3.09-1.87-6.24-3.59-9.26-5.56-2.12-1.38-5.26.08-6.27,2.15a4.71,4.71,0,0,0,2.16,6.25c3.33,1.37,6.51,3,9.8,4.45C404.67,1740.55,407.79,1733.76,403.38,1731.08Zm7.36-15.8a4.47,4.47,0,0,0-2.32-4.66,31.93,31.93,0,0,0-4.24-1.95c-1.42-.65-2.81-1.35-4.19-2.09a5,5,0,0,0-6.56,2.25c-1.1,2.26-.2,5.53,2.26,6.53,3.52,1.44,7.3,3.09,11.12,3.33C408.67,1718.81,410.4,1717,410.74,1715.28Zm-79.13,173.94a48.14,48.14,0,0,0-6.92-4.17,4.4,4.4,0,1,0-3.87,7.9c1,.48,1.94,1,2.89,1.52.45.25.89.5,1.32.76.25.15.5.3.74.46-.32-.22-.26-.19.17.1,1.88,1.26,4.56,1.53,6.13-.46C333.42,1893.62,333.58,1890.64,331.61,1889.22ZM391.26,1691a76.16,76.16,0,0,0,12.93,5.13c2.15.63,4.53-1,5.17-3,.74-2.31-.32-4.26-2.28-5.51a69.89,69.89,0,0,0-11.35-5.75C389.68,1679.42,385.34,1687.92,391.26,1691ZM192.9,359.47a4.86,4.86,0,0,0,6.41-2c1.65-2.82,3.49-5.59,4.91-8.54a4.85,4.85,0,0,0-2-6.45,5,5,0,0,0-6.48,2c-1.8,2.72-3.24,5.73-4.82,8.58A4.78,4.78,0,0,0,192.9,359.47ZM191.63,398c2.42.89,4.5-.21,5.91-2.18-.1.15-.13.19.05-.07l0,.05c.2-.29.66-1,.71-1.06.2-.35.37-.72.56-1.07.38-.72.77-1.42,1.16-2.13a30.89,30.89,0,0,0,2.49-4.94,4.65,4.65,0,0,0-2.37-5.14,4.9,4.9,0,0,0-5.58,1,22.44,22.44,0,0,0-3.37,4.77,26.68,26.68,0,0,0-2.58,5.22C187.76,394.68,189.59,397.25,191.63,398ZM412.91,808.68l-.62-.61c-.47-.46-.92-.93-1.36-1.41-.81-.92-1.57-1.88-2.3-2.86a4.19,4.19,0,0,0-5.22-1c-1.61.87-2.71,3-1.78,4.75a25.77,25.77,0,0,0,6.24,7.61,4.44,4.44,0,0,0,5.95-.74c1.45-1.94.95-4-.75-5.62C413.39,809.14,413,808.78,412.91,808.68Zm-7-120.91a58.83,58.83,0,0,0-3.49-7.88,4.31,4.31,0,0,0-4.92-2.32c-1.9.49-3.53,2.31-3.16,4.29a66.33,66.33,0,0,0,2.81,9.27c.79,2.29,3.88,3.32,6.14,2.45A4.45,4.45,0,0,0,405.91,687.77ZM284.77,983.13l5.77-.41a4.21,4.21,0,0,0,3.82-4.55,4.37,4.37,0,0,0-4.79-3.59l-5.79.19a4.33,4.33,0,0,0-3.93,4.67A4.47,4.47,0,0,0,284.77,983.13ZM407.59,622.42a4.4,4.4,0,0,0-.91,6.29,12.17,12.17,0,0,1,.81,1,5.28,5.28,0,0,1,.29.54c.12.27.21.54.31.82-.13-.31.17.81.19,1a4.78,4.78,0,0,0,5.31,4c2.53-.39,4.6-2.52,4.24-5a14.74,14.74,0,0,0-3.6-7.84A5,5,0,0,0,407.59,622.42Zm-5.34-361.9a4.4,4.4,0,0,0,5.79-.59c1.52-1.92,6.7-8.18,8.07-10.21a4.88,4.88,0,0,0,.36-3.69,4.94,4.94,0,0,0-9.1-.88c-1,1.76-5.62,7.91-6.51,9.75A4.42,4.42,0,0,0,402.25,260.52ZM385.74,802.21c-1.44-1.48-2.92-2.91-4.41-4.35a4.6,4.6,0,0,0-2.7-1.49,4.44,4.44,0,0,0-3.13.77c-1.58,1.25-2.39,3.92-.79,5.52s3.43,3.38,5.19,5c1.45,1.36,4.12.87,5.43-.36S387.14,803.64,385.74,802.21ZM189,1527.42c1.54,1.56,3.8,2.43,5.75,3.38s3.95,2.13,6.07,2.47a4.34,4.34,0,0,0,4.41-1.86c.84-1.32,1.12-3.48,0-4.77a25,25,0,0,0-5.87-4.4c-2-1.26-3.92-2.63-6.27-3.16a4.88,4.88,0,0,0-5.27,2.6A5,5,0,0,0,189,1527.42ZM376.56,816.34a3.78,3.78,0,0,0-.78,5.39,53.63,53.63,0,0,0,5.82,6.71,4.36,4.36,0,0,0,5.71.7c1.64-1.18,2.28-3.87.78-5.4a74,74,0,0,1-5.84-6.69A4.28,4.28,0,0,0,376.56,816.34ZM362.48,713.91a76.18,76.18,0,0,0,6.46,6.37c1.64,1.46,4.52,1,6-.4s2-4.08.45-5.65a76.76,76.76,0,0,0-6.7-6.16C364.9,705.07,359.28,710.27,362.48,713.91Zm8.34-415.13c-1.73,4.63-3.42,9.1-5.52,13.58-2.69,5.74,5.94,10.35,8.79,4.6a42,42,0,0,0,4.37-16.43C378.62,296.66,372.24,295,370.82,298.78Zm-10.16,376L356.09,671a4.58,4.58,0,0,0-5.77.39c-1.42,1.33-1.94,3.94-.43,5.45l4.18,4.19a5.46,5.46,0,0,0,3,1.68,4.67,4.67,0,0,0,3.95-1.28A4.27,4.27,0,0,0,360.66,674.82ZM345,695.93c2.25,2.51,4.63,5,7.08,7.28,1.83,1.75,4.76,2.67,7,.87,2-1.56,2.8-4.65,1-6.64-2.58-2.79-5.31-5.47-8.11-8.05-1.73-1.6-4.92-1.08-6.47.42A4.47,4.47,0,0,0,345,695.93Zm31.79-33.47a4.79,4.79,0,0,0-6.4-.79,4.28,4.28,0,0,0-.87,6.05c1.45,2.19,2.9,4.39,4.54,6.45a4.88,4.88,0,0,0,6.53.81,4.37,4.37,0,0,0,.89-6.18C380,666.61,378.39,664.53,376.77,662.46ZM279,1001.71A4.68,4.68,0,0,0,284,1005a57.77,57.77,0,0,0,9.37-2,4,4,0,0,0,2.55-4.79,4.32,4.32,0,0,0-4.64-3.05,56.86,56.86,0,0,0-9.56,1.34C279.49,997.06,278.41,999.81,279,1001.71Zm114-334c2.2-.25,4.56-2.5,4-4.76-.73-2.94-1.36-5.93-2.28-8.83-.59-1.87-3.08-2.81-4.94-2.33a4.05,4.05,0,0,0-3.18,4.3c.32,2.64.91,5.25,1.4,7.86A4.56,4.56,0,0,0,393,667.69Zm-.48-40.88c-1.2-1.93-4.3-2.13-6.15-1.13a4.43,4.43,0,0,0-2.11,5.59,30.32,30.32,0,0,0,4.13,7,5.23,5.23,0,0,0,7,.86,4.66,4.66,0,0,0,1-6.61C395,630.66,393.69,628.75,392.47,626.81ZM349.59,330.57c2.58.95,4.82-.25,6.3-2.37,1.16-1.68,1.61-3.85,2.18-5.78a20.42,20.42,0,0,0,1.07-5.78c0-3.54-4.71-5.18-7-2.61a24.24,24.24,0,0,0-3.19,5,21.75,21.75,0,0,0-2.55,5.65A5.11,5.11,0,0,0,349.59,330.57ZM233.69,839c-3.23-.75-6.51-1.27-9.78-1.86a4.3,4.3,0,0,0-4.83,3.41c-.37,2.3,1.33,4.08,3.58,4.56,3.24.7,6.47,1.47,9.75,2a4.4,4.4,0,0,0,4.93-3.48C237.71,841.29,236,839.56,233.69,839ZM376.06,737.47a69.47,69.47,0,0,1-6.66-5.58,4.37,4.37,0,0,0-5.73-.71,3.76,3.76,0,0,0-.79,5.42,83.47,83.47,0,0,0,7.64,7.64c1.78,1.57,4.94.92,6.33-.79A4.15,4.15,0,0,0,376.06,737.47Zm1-52.94c-3.65-3.06-9.27,2.21-6.11,5.75a39.4,39.4,0,0,1,5,7.08,4.76,4.76,0,0,0,5.91,2.36,4.29,4.29,0,0,0,2.53-5.6A26.09,26.09,0,0,0,377.09,684.53Zm-7.9,75a4.06,4.06,0,0,0-.43,5.44,51.92,51.92,0,0,0,6.2,7.49,5,5,0,0,0,6.51.8,4.3,4.3,0,0,0,.89-6.16,58.07,58.07,0,0,0-7.42-8A4.55,4.55,0,0,0,369.19,759.55ZM122.46,257.2c.88-2.15,1.07-4.75,1.63-7a68.75,68.75,0,0,1,2.08-6.87c1.57-4.33-5.13-7.61-7.42-3.47a75,75,0,0,0-3.64,7.49c-1,2.53-2.22,5.36-2.3,8.12C112.62,261.22,120.39,262.31,122.46,257.2ZM462.63,801.62a4.17,4.17,0,0,0,2.44-5.4,48,48,0,0,0-4.51-10.07,4.48,4.48,0,0,0-5.56-2.22,4,4,0,0,0-2.37,5.26c1.59,3.33,2.9,6.76,4.3,10.16A4.52,4.52,0,0,0,462.63,801.62Zm12.17-31.83c-1.41-4-8.34-3.19-8.75,1a17.69,17.69,0,0,0,.36,5.62c.45,2.08.91,4.41,2.36,6.09,3.09,3.58,10,1.39,9.23-3.55-.27-1.78-1.19-3.25-1.82-4.92C475.62,772.6,475.31,771.25,474.8,769.79ZM469,758.39a4.82,4.82,0,0,0,2.83-6.27,36,36,0,0,1-2.06-7.74,4.8,4.8,0,0,0-5.32-4,4.75,4.75,0,0,0-4.26,5.06,28.79,28.79,0,0,0,2.18,10.3A5.25,5.25,0,0,0,469,758.39ZM475.26,797c1.14,2.77,2.64,5.54,4.05,8.19a4.54,4.54,0,0,0,5.67,2.27,4.18,4.18,0,0,0,2.44-5.38,34.92,34.92,0,0,0-4.29-9.33c-1.18-1.79-4.07-2.08-5.86-1.08A4.23,4.23,0,0,0,475.26,797Zm9.07-745.89c.63,5.86,9.74,5.23,9.2-.68a86.9,86.9,0,0,0-2.33-14.26c-.66-2.5-3.78-3.77-6.1-3-2.65.91-3.58,3.55-3,6.07A95.28,95.28,0,0,1,484.33,51.06Zm8.47,22.73c-.09-.72-.17-1.43-.23-2.15-.13-1.43-.24-2.87-.36-4.31a4.21,4.21,0,0,0-8.39.63c.07,1.44.15,2.88.22,4.31a13.47,13.47,0,0,1-.05,3.67c-.9,3,2.2,5.76,5,5.55s5.39-3.41,4.11-6.21c-.16.27-.22.13-.16-.42Zm-10.66,33.5a5.59,5.59,0,0,0,5.24,5.07,5.52,5.52,0,0,0,5.77-4.46,28.09,28.09,0,0,0-.43-7.08A29.85,29.85,0,0,0,491.45,94a4.81,4.81,0,0,0-4.79-3.15,4.73,4.73,0,0,0-4.27,3.8,63,63,0,0,0,0,6.59C482.36,103.17,481.86,105.14,482.14,107.29ZM442.7,798.57c-1.89-3.21-3.71-6.47-5.73-9.62-1.28-2-4.61-2.11-6.44-.8-2.18,1.59-2.11,4.06-.87,6.1,1.73,2.85,3.64,5.62,5.48,8.41C437.71,806.57,445.1,802.66,442.7,798.57Zm-25.9-12.1a28.49,28.49,0,0,0-4.75-8.89,4.49,4.49,0,0,0-5.55-1,4.05,4.05,0,0,0-1.9,5.05,54.22,54.22,0,0,0,3.55,8.18C410.76,794.91,418.6,791.87,416.8,786.47Zm-1.68,54.1a3.91,3.91,0,0,0,.81-5.62c-2-2.15-3.72-4.44-5.47-6.74a4.61,4.61,0,0,0-6.14-.76,4.07,4.07,0,0,0-.84,5.81,49.37,49.37,0,0,0,5.7,6.57A4.53,4.53,0,0,0,415.12,840.57ZM420.8,766c1.84-1,3.13-3.51,2.05-5.45a61.54,61.54,0,0,0-5-8c-3-3.77-9.54-.25-7.64,4.14a60.82,60.82,0,0,0,4.64,8.19C416,766.8,419,767,420.8,766Zm24.57,58c3.15,3.69,8.95.31,7.48-4-1.22-3.61-3.55-7.12-5.48-10.43a5,5,0,0,0-6.16-2.46c-2.19.84-3.83,3.69-2.64,5.84C440.61,816.59,442.6,820.76,445.37,824Zm-21.84-9.81a4.46,4.46,0,0,0,6,.74c2-1.56,2-3.7.82-5.66a27.41,27.41,0,0,0-5-6c-1.5-1.37-4.18-.9-5.52.37a3.83,3.83,0,0,0-.42,5.21C420.8,810.66,422.22,812.39,423.53,814.19Zm67.4-672c-2.76.3-4.21,2.33-4.35,4.93-.12,2.34-.36,4.71-.28,7.05a4.77,4.77,0,0,0,4.47,4.4c2.16.14,4.81-1.43,5-3.8.22-2.75.13-5.49.11-8.25A4.69,4.69,0,0,0,490.93,142.21Zm166.62,159,8.14,3.49c2.28,1,5.29.21,6.33-2.21,1-2.2.26-5.35-2.22-6.3L661.52,293c-2.23-.86-5.09-.25-6.12,2.14A4.62,4.62,0,0,0,657.55,301.23Zm49.54,7.2c3.17,1.61,5.35,4,8,6.24,3.85,3.31,9.8-1.76,6.76-6-2.63-3.65-6.9-6.33-10.9-8.27C705.79,297.89,702,305.83,707.09,308.43Zm-22.18,4.15a5.58,5.58,0,0,0,4.21,7.23c4.32.83,8.55,2.75,12.66,4.24,2.4.87,5.13.25,6.31-2.2a4.75,4.75,0,0,0-2.21-6.28c-4.41-1.95-9.2-3.65-13.26-6.28C689.77,307.45,685.84,309.79,684.91,312.58Zm3.59,76.55c-2.58-1-5.56-.25-6.83,2.39-1.11,2.3-.22,5.85,2.39,6.81,4.69,1.71,9.7,2.69,14.48,4.2,4.39,1.39,6.73-5.82,2.53-7.62-2.12-.9-4.27-1.76-6.35-2.75S690.65,389.94,688.5,389.13Zm-13-105.66c3.17,1.61,5.35,3.95,8,6.24,3.85,3.31,9.8-1.77,6.76-6-2.63-3.66-6.89-6.33-10.89-8.27C674.2,272.93,670.37,280.86,675.5,283.47ZM486.86,121.36c-.2,1.52-.14,3-.31,4.46s-.46,3-.62,4.49A5.13,5.13,0,0,0,496,132.26a22.8,22.8,0,0,0-.37-11.48C494.3,116.62,487.44,116.79,486.86,121.36Zm201.2,206.93-7.5-3.6a5,5,0,0,0-6.65,2.32c-1,2.35-.24,5.56,2.33,6.62L684,336.8c2.29.94,5.28.23,6.33-2.21A4.8,4.8,0,0,0,688.06,328.29ZM716,346.38c-2.31-1.17-4.55-2.45-6.78-3.74s-4.41-2.86-6.8-3.7c-6-2.11-9.74,5.5-4.3,8.91,2.14,1.35,4.78,2.08,7.13,3s4.81,1.89,7.16,3C717.23,356,720.74,348.79,716,346.38Zm-70.86-12.13c4.06,1.11,7.61,3.16,11.36,5a4.69,4.69,0,0,0,6.14-2.15c1.16-2.4,0-4.83-2.15-6.11-4.14-2.48-9.1-3.81-13.74-5a4.22,4.22,0,1,0-1.61,8.29ZM639.82,414l2.79,1.53a4.49,4.49,0,0,0,6-2.09,4.45,4.45,0,0,0,.21-3.36,5.05,5.05,0,0,0-2.31-2.6l-2.74-1.66a4.54,4.54,0,1,0-3.94,8.18Zm4.45-52.94c2.67,1.25,5.31,2.53,8,3.82a4.6,4.6,0,1,0,4-8.28c-2.71-1.17-5.4-2.35-8.08-3.57a4.46,4.46,0,1,0-3.88,8ZM404.68,851a4.29,4.29,0,0,0,5.71.7,3.77,3.77,0,0,0,.78-5.4l-3.81-4.35a4.25,4.25,0,0,0-5.64-.69,3.73,3.73,0,0,0-.77,5.34ZM663.85,374.51c-.43,2.79,1.22,4.72,3.74,5.54s4.9,1.32,7.35,1.94a4.47,4.47,0,0,0,5.08-3c.64-1.92-.16-4.69-2.28-5.43-2.76-1-5.51-2-8.34-2.79A4.76,4.76,0,0,0,663.85,374.51Zm5.62-20.15c4.65,2.44,9.94,3.67,14.86,5.46a4,4,0,0,0,5.11-1.78,3.85,3.85,0,0,0-1.79-5.09c-5-1.94-9.2-5.07-13.81-7.64C668.2,342.16,663.71,351.33,669.47,354.36ZM716.81,367a39.67,39.67,0,0,1-6.67-2.08c-2.25-.94-4.32-2.26-6.57-3.15-6.28-2.5-10.18,5.87-4.51,9.33,4.54,2.77,10.85,3.85,16.05,4.62C720.78,376.55,722.43,368.28,716.81,367ZM254,1029.91c-.73-2.76-3.45-3.62-6.12-3l-9.52,2.37c-2.15.54-3.19,3.2-2.67,5s2.64,3.72,4.86,3.19l9.55-2.26C252.8,1034.66,254.78,1032.68,254,1029.91Zm-14.85,19.34a62.54,62.54,0,0,1-9.56,6c-4.43,2.13-1.81,8.74,2.91,6.86a47.78,47.78,0,0,0,11.82-6.48C248.57,1052.34,243.59,1046.06,239.19,1049.25Zm-15.27,488.2c4.17,1.87,8.75,2.77,13,4.37a4.38,4.38,0,0,0,5.68-2c.94-1.93.18-4.81-2-5.65-4.62-1.81-9-4.3-13.69-5.81C221.73,1526.73,219,1535.23,223.92,1537.45Zm32.53-473.06a32.21,32.21,0,0,0,9.55-4.46,4.22,4.22,0,0,0,1.2-5.64c-1.05-1.68-3.69-3-5.73-1.9a70.39,70.39,0,0,1-8.52,3.76,4.44,4.44,0,0,0-2.62,5.79C251.36,1064.37,254,1065.06,256.45,1064.39Zm16-19.73a14.93,14.93,0,0,1,8.25-3.62,4.77,4.77,0,0,0,4.3-5.11c-.32-2.65-2.75-4.12-5.39-4a21.76,21.76,0,0,0-14.33,5.95c-1.79,1.7-1.2,4.88.43,6.38A5.34,5.34,0,0,0,272.48,1044.66Zm-20.77,475.08-3.64-1.33a22.23,22.23,0,0,0-4.4-1.38,4.93,4.93,0,0,0-5.27,2.6c-.78,1.79-.61,4.53,1.19,5.73a38.65,38.65,0,0,0,7.67,3.46c2.47,1,5.63.31,6.78-2.32C255.05,1524.2,254.37,1520.7,251.71,1519.74Zm55.83,23.75a37.08,37.08,0,0,0-7.2-2.81,4.69,4.69,0,0,0-5.48,3.64c-.43,2.75,1.18,4.64,3.66,5.47-.85-.29.76.3.91.37.4.16.8.34,1.2.52.92.43,1.81.91,2.69,1.43a4.8,4.8,0,1,0,4.22-8.62Zm-29.79-479.84a43.41,43.41,0,0,0,11.4-2.73,4.53,4.53,0,0,0,2.66-5.9c-1.06-2.5-3.71-3.12-6.22-2.49a75.77,75.77,0,0,1-9,1.37C269.93,1054.77,271.1,1064.13,277.75,1063.65Zm-39.28,486.84c-3.76,1-3.53,7.55.54,7.79,5,.3,9.74.61,14.66,1.31,6.29.88,8.2-8.69,1.85-9.73A42.59,42.59,0,0,0,238.47,1550.49Zm41.4,1.81c-.91,2.69.77,5,3.31,5.77,3.29,1,6.45,2.15,9.64,3.42,4.55,1.83,7.94-4.91,3.37-6.88-3.48-1.49-6.84-3.1-10.18-4.89A4.46,4.46,0,0,0,279.87,1552.3Zm36,13.33a38.48,38.48,0,0,1-4-2c-1.2-.7-2.24-1.61-3.73-2.41-4.94-2.62-9.53,4.5-5.33,8.07,2.78,2.38,6.72,3.69,10.16,4.75,2.12.65,4.5-1,5.12-3A4.46,4.46,0,0,0,315.91,1565.63Zm-35.76-34.06c-2.22-1.15-4.53-2.13-6.82-3.16a4.63,4.63,0,1,0-4.07,8.31c2.25,1.11,4.47,2.27,6.77,3.27a4.69,4.69,0,1,0,4.12-8.42Zm-22.93,13.84c3.3,1.69,6.64,3.41,10.09,4.77a4.85,4.85,0,0,0,6.31-2.16c1.23-2.51,0-4.9-2.18-6.29a73,73,0,0,0-9.9-5.13C255.76,1534,251.57,1542.51,257.22,1545.41Zm58.68-536.1c-.42-2.49-2.51-3.88-5.08-3.8-2.36.06-4.71.23-7.06.42a4.42,4.42,0,0,0-4,4.76c.42,2.47,2.47,3.8,5,3.75,2.36-.05,4.72-.13,7.07-.31A4.47,4.47,0,0,0,315.9,1009.31Zm47.47-119.56c.8.57,1.59,1.17,2.36,1.78.34.27.66.56,1,.84l-.05-.07.07.08.06,0c.34.29.13.18,0,0,.16.18.42.38.55.52,1.54,1.58,4.19,2.29,6.12.76a4,4,0,0,0,.84-5.79,26.06,26.06,0,0,0-5.48-4.83c-1.92-1.21-4.77-1.17-6.22.77A4.11,4.11,0,0,0,363.37,889.75Zm3.35,2.62.06.07,0-.06Zm-70.4,152.54c3.79-1,7.59-2.11,11.3-3.34,4.45-1.48,2.68-8.57-2.05-7.69-4.26.79-8.53,1.76-12.72,2.84-2.44.63-3.46,3.74-2.6,5.76C291.28,1044.91,293.87,1045.54,296.32,1044.91Zm92.62-173.66a4.52,4.52,0,0,0,6-.75c1.46-2,1-4.13-.76-5.7-2.09-1.88-4.18-3.74-6.36-5.52a4.65,4.65,0,0,0-6.24.77,4.15,4.15,0,0,0,.78,5.9C384.52,867.78,386.72,869.52,388.94,871.25Zm9.4-52.76a31.8,31.8,0,0,0-6.23-6.25A4.57,4.57,0,0,0,386,813c-1.48,2-1,4.17.77,5.77l2.89,2.6.25.24c.18.16.35.33.52.5.67.65,1.36,1.26,2.06,1.87a4.3,4.3,0,0,0,5.43-.35A3.8,3.8,0,0,0,398.34,818.49Zm-30.06,55.88a3.82,3.82,0,0,0,.42-5.27q-2.1-2.25-4.22-4.48a4.69,4.69,0,0,0-6.72-.39,4,4,0,0,0-1.32,2.93,4.29,4.29,0,0,0,1.7,3.42l4.56,4.16C364.22,876.12,366.92,875.65,368.28,874.37Zm17.66-19.18a4,4,0,0,0,.81-5.64,58.25,58.25,0,0,0-5.62-5.93c-1.51-1.4-4.26-.91-5.62.37s-1.91,3.86-.42,5.31c1.69,1.67,3.34,3.36,4.89,5.15A4.48,4.48,0,0,0,385.94,855.19Zm-68.27,117a4.31,4.31,0,0,0-3.8-4.83l-7.45-.4c-2.36-.12-4.6,1.17-5,3.51a4.18,4.18,0,0,0,3.68,4.67l7.41.67A4.6,4.6,0,0,0,317.67,972.24Zm5.78-29.69c.92-2.3-.14-4.44-2.36-5.55s-4.4-2-6.62-3a4.6,4.6,0,0,0-5.82,2.23,4.19,4.19,0,0,0,2.34,5.49c2.18,1,4.34,2.13,6.58,3A4.65,4.65,0,0,0,323.45,942.55Zm77.67-180.36c-2.17-2.33-4.3-4.66-6.63-6.85-1.54-1.44-4.36-.92-5.75.38a4,4,0,0,0-.43,5.44c1.68,2.21,3.58,4.27,5.41,6.38a4.9,4.9,0,0,0,6.51.8C402.05,766.9,402.83,764,401.12,762.19Zm-69.54,252.58c3.18,0,6.41-.56,9.6-.71,5.41-.24,5.67-8.88.17-9.07-3.55-.11-7.41-.49-10.94-.1a5.17,5.17,0,0,0-4.64,5.52C326.12,1013.33,328.73,1014.78,331.58,1014.77Zm-9.51-57.36c1.81.83,3.61,1.67,5.47,2.39,2.33.9,5.39-.1,6.31-2.42a4.51,4.51,0,0,0-2.53-6c-1.86-.72-3.77-1.33-5.68-1.94-2.24-.72-5.05,0-6,2.29A4.29,4.29,0,0,0,322.07,957.41Zm35.66-37.16c1.33-1.28,1.88-3.76.42-5.19A31.64,31.64,0,0,0,346.64,908c-5.3-1.84-8.64,5.44-3.47,7.66a61.78,61.78,0,0,1,9.07,5A4.41,4.41,0,0,0,357.73,920.25ZM775.21,393.56a81.69,81.69,0,0,0,12.65,4.76c2.33.63,4.81-1.29,5.24-3.53.5-2.55-1.21-4.53-3.53-5.22a90.45,90.45,0,0,1-10.63-3.73C773.9,383.62,770.16,391.24,775.21,393.56ZM662.05,432c4,1.18,7.93,2.41,11.93,3.5,2.4.65,4.94-1.33,5.39-3.63a4.68,4.68,0,0,0-3.63-5.37c-4-1.08-8-2-12-3a4.42,4.42,0,0,0-5.12,3.44C658.12,429.39,659.79,431.32,662.05,432Zm4.54,25.24c3.2,1.12,6.09,2.75,9.17,4.12a4.65,4.65,0,0,0,6.07-2.12c1.15-2.37,0-4.79-2.13-6.05a47,47,0,0,0-9.33-3.78c-2.23-.74-4.71-.27-5.82,2C663.62,453.37,664.35,456.46,666.59,457.23Zm-22-69.1c3.65,1.24,7.3,2.5,11,3.66,2.37.74,4.95-1.39,5.38-3.62.53-2.69-1.26-4.6-3.63-5.38-3.3-1.08-6.63-2.05-10-3.05-2.11-.64-4.46,1.05-5.06,3S642.45,387.4,644.59,388.13Zm41,17.54c-5-1.67-10.13-3.16-15.2-4.71-4.85-1.48-7.69,6.84-2.82,8.47,5,1.7,10,3.47,15.09,5S690.64,407.35,685.58,405.67Zm11,71.21a46.54,46.54,0,0,1,4.66,2.12c1.5.78,2.95,1.8,4.51,2.42a4.66,4.66,0,0,0,5.82-1.64c1.1-1.74,1.1-4.69-.83-6-3.16-2.1-7-3.21-10.49-4.54a4.36,4.36,0,0,0-5.65,2C693.64,473.18,694.41,476,696.55,476.88Zm-59.7-45.46c3.49,1.66,7.09,3.88,10.86,4.8a4.69,4.69,0,0,0,5.33-3.14c.75-2.4-.35-4.39-2.39-5.69a26.06,26.06,0,0,0-4.93-2.06l-5-1.91a4.58,4.58,0,0,0-6,2.07A4.5,4.5,0,0,0,636.85,431.42Zm53.22,18.86a108.06,108.06,0,0,0,14.52,5.87c5.43,1.71,8.16-7,3.1-9.33A109.17,109.17,0,0,0,693,441.6C687.82,440.11,685.44,448.05,690.07,450.28Zm152.16,60c-3.8-2-7.71,3.74-4.18,6.38a69.33,69.33,0,0,0,6.47,4.32,27.53,27.53,0,0,0,6,2.87v-10c-.74-.24-1.48-.49-2.18-.76A61,61,0,0,1,842.23,510.23Zm4.19-77.5a4.5,4.5,0,0,0,3.4,5.84l.69.14v-9A4.39,4.39,0,0,0,846.42,432.73Zm-10.92,95.8a4.42,4.42,0,0,0-3.45-5.09c-3.72-1-7.33-2.4-11-3.5-5-1.5-7.81,6.84-2.89,8.68A92,92,0,0,0,830.39,532,4.42,4.42,0,0,0,835.5,528.53Zm10.16-32.63a4.41,4.41,0,0,0-3.44-5.08,76.35,76.35,0,0,0-7.93-1.63c-2.39-.28-5,1.05-5.41,3.64a4.71,4.71,0,0,0,3.65,5.39,74.85,74.85,0,0,0,8,1.1A4.46,4.46,0,0,0,845.66,495.9Zm-4.24,46.3a4.58,4.58,0,0,0,2.09,5.95c2.24,1.36,4.64,2.46,7,3.61V541.65c-1-.55-2.06-1.07-3.12-1.53A4.56,4.56,0,0,0,841.42,542.2Zm3.67-89.54a4.91,4.91,0,0,0,2.27,6.45,27.07,27.07,0,0,0,3.15,1.39V450.12A4.83,4.83,0,0,0,845.09,452.66ZM736.5,484.56c3.79,2.92,9.24,3.61,13.86,4.24,5.76.79,7.47-7.62,1.73-8.87-4-.88-7.28-3.39-11.12-4.58C735.86,473.77,732.47,481.46,736.5,484.56Zm84.12,100.32c4.89,2,10,3.4,15,5s7.76-6.83,2.86-8.59-9.89-3.73-15-5.16S815.71,582.91,820.62,584.88ZM823,541.5a82,82,0,0,0-13.9-5.82c-5.06-1.42-7.58,6.5-2.87,8.63,4.22,1.9,8.64,3.34,12.86,5.27C824.38,552,828.23,544.07,823,541.5Zm22.15,20.74a30.79,30.79,0,0,0-5.78-2,4.74,4.74,0,0,0-3,8.92c1.75,1,4.11,1.5,6.07,2.09a26.22,26.22,0,0,0,6.16,1.3,3.24,3.24,0,0,0,1.85-.51v-7.65c-.08,0-.15-.11-.23-.15A29.09,29.09,0,0,0,845.17,562.24Zm-38.93,216c-15.77,8.39-18.85,26-20.41,41.44l-3.51,34.74c-1,10.18-4.72,22.92-16.92,24.67-8.95,1.29-16.91-4.51-23.08-10-15.34-13.67-29.47-28.39-46.84-40.29s-38.8-21-61.38-20.72c-43.82.45-81.14,28.61-108.72,53.76-60.75,55.38-107.46,121.18-136.29,192-2.38,5.84-4.66,12-3.25,18.07,3.26,13.89,24.18,20,41.16,18s32.59-9.2,49.6-11.06c34.62-3.79,69.51,17.68,78.39,45.54s-6.59,59-34.49,76.34-66.16,21.37-99.79,13.58c-46-10.65-92.21-41.68-135.83-25.55-29.6,10.94-42.71,39.71-47,66.22-13.42,82.94,32.62,168.1,107.56,224.51,48,36.11,103.41,77.28,126.66,118.43,82.89,146.72,0,292.87-45.1,322.89H850.51V779.4C835.86,773.74,819.84,771,806.24,778.29Zm44.27-177.18v-5.73a4.89,4.89,0,0,0-.56.88A4.64,4.64,0,0,0,850.51,601.11Zm-50.58-37.65c3.05,1.27,6.18,2.32,9.27,3.48a4.66,4.66,0,0,0,6.07-2.12,4.57,4.57,0,0,0-2.12-6.05c-3-1.28-6-2.68-9.1-3.86a4.89,4.89,0,0,0-6.34,2.22A4.78,4.78,0,0,0,799.93,563.46Zm18.67-57.84c4.75,1.18,7.49-6.55,2.74-8.24-4.11-1.47-8.41-3.83-12.74-4.48-5.45-.82-8.39,6.88-3.11,9.34C809.5,504.11,814.32,504.56,818.6,505.62Zm-73.32,12.74a60,60,0,0,0,6.73,3.55c2.2.85,5,.26,6-2.1s0-4.64-2.12-6a59.06,59.06,0,0,0-6.83-3.33,4.38,4.38,0,1,0-3.81,7.89Zm22.32-14.68c-3.31-2.64-7.75-4.09-11.63-5.69a4.19,4.19,0,0,0-5.46,1.9,4.13,4.13,0,0,0,1.91,5.45,52.08,52.08,0,0,1,5.25,2.71,55.77,55.77,0,0,0,5.06,3.06C767.24,513.12,771.69,507,767.6,503.68ZM796,523.53l-6-4-3-2-1.75-1.15c-1.18-4.18-7.79-4.31-8.77.39-.88,4.21,2.38,6.43,5.55,8.34s6.26,3.73,9.38,5.6C795.51,533.1,800.1,526.24,796,523.53ZM718.52,420.69c1.87.81,3.77,1.46,5.7,2.11a5,5,0,0,0,3.41.21,4.64,4.64,0,0,0,2.64-2.32,4.58,4.58,0,0,0-2.12-6c-1.84-.86-3.65-1.7-5.56-2.4-1.18-.43-7.27-1.95-8.5-1.54a4.79,4.79,0,0,0-2.73,2.4C710.39,415.38,716.11,419.65,718.52,420.69Zm59.55,123.52a35.92,35.92,0,0,0,8,3.14c3.78.84,6.91-4.75,3.45-7.1-2.21-1.5-4.6-2.68-6.86-4.1s-4.43-3.14-6.8-4.45c-4.83-2.66-9,4.3-5.13,7.82A32.35,32.35,0,0,0,778.07,544.21Zm4.49-57a47.78,47.78,0,0,0-14.32-4c-5.94-.8-7.72,7.88-1.78,9.15,4.42.94,9,2.1,13.5,2.71S786.94,489.38,782.56,487.2Zm44.24-34.75a50.73,50.73,0,0,0-6.42-2.66,42.4,42.4,0,0,0-6.86-2.18,3.81,3.81,0,0,0-4.31,2.54,3.87,3.87,0,0,0,1.94,4.6,54.19,54.19,0,0,0,5.84,3c2,.94,3.89,2,5.93,2.77C828.26,462.49,831.93,455.23,826.8,452.45ZM723.71,433.79a4.55,4.55,0,0,0-5.18,3.06c-.64,2,.15,4.73,2.32,5.54a55,55,0,0,1,9.24,4c4.06,2.38,8.32-4.08,4.53-6.93A30.84,30.84,0,0,0,723.71,433.79ZM744.38,381a22.55,22.55,0,0,1-4.81-2.22c-1.16-.74-2.93-2.22-4.38-3.13-2.31-1.46-5.93.06-7,2.43-1.22,2.83,0,5.37,2.43,6.93a25.23,25.23,0,0,0,5.19,2.11c1.94.68,3.87,1.33,5.84,1.94s4.28-1,4.86-2.86S746.43,381.7,744.38,381Zm6.93,20.43a23.11,23.11,0,0,1-4.62-2.15l-.29-.19-1-.74a25.7,25.7,0,0,0-3-2.09,5.13,5.13,0,0,0-5.57,8.5,20,20,0,0,0,5.71,3c2.12.82,3.66,1.36,6,2.09,2.11.66,4.49-1.08,5.1-3S753.46,402.16,751.31,401.41Zm12,58c-4.49-1.2-9-2.19-13.48-3.49-2.46-.72-5.1,1.39-5.56,3.73-.52,2.71,1.29,4.81,3.75,5.54a102.89,102.89,0,0,0,13.52,3.3C767.49,469.38,769.06,460.9,763.31,459.37Zm-18.67-37.09a5.31,5.31,0,0,0-7,2.44c-1.32,2.72,0,5.51,2.44,6.95,3.82,2.27,8.11,3.82,12,5.9a4.6,4.6,0,1,0,4-8.29C752.25,427.08,748.62,424.29,744.64,422.28ZM743.72,355c1.69.89,7.59,5,9.33,5.72a4.16,4.16,0,0,0,5.22-1.47,4.07,4.07,0,0,0-.75-5.35c-1.84-1.35-7.86-6-9.81-7.16a4.61,4.61,0,0,0-3.46-.22,4.59,4.59,0,0,0-.53,8.48ZM774.33,456a4.49,4.49,0,1,0,3.9-8.09c-1.54-.66-3.07-1.34-4.62-2-5.21-2.11-8.29-1.54-9.28.75s1.14,5.82,5.37,7.34C771.28,454.62,772.79,455.37,774.33,456ZM721.21,328.27a4.57,4.57,0,0,0-6,2.1c-.89,2.08-.24,5.1,2.11,6l4.85,1.84h0a31.31,31.31,0,0,1,3.11,1.29c1.74.91,3.48,1.8,5.2,2.71,5.92,3.13,10.65-6.54,4.52-9.36a55.2,55.2,0,0,0-13.14-4.26Zm53,72.46c-4-.88-7.28-3.39-11.12-4.58-5.11-1.58-8.49,6.11-4.47,9.21,3.79,2.92,9.24,3.6,13.87,4.24C778.2,410.39,779.92,402,774.17,400.73Zm-46.35-41a5.12,5.12,0,0,0,.93,6.72,26.13,26.13,0,0,0,5.94,2.95,28.45,28.45,0,0,0,6.09,2.14,4.5,4.5,0,0,0,4.78-2.39,4.39,4.39,0,0,0-1.09-5.21,57.51,57.51,0,0,0-5.32-3.09c-1.54-.88-2.91-2.2-4.78-3A5.23,5.23,0,0,0,727.82,359.76Zm-.93,36.76c.47-2.41-1.14-4.21-3.3-4.88-4.09-1.27-7.79-3.48-11.67-5.24-5.76-2.61-10,6.08-4.27,8.85,4.5,2.18,9.54,3.26,14.35,4.55A4.21,4.21,0,0,0,726.89,396.52Zm25.22-21.11c-1.14,2.37.26,5.93,3.12,6.19-.14-.25,0-.23.41.08l.93.39c.62.27,1.24.53,1.85.82,1.22.56,2.44,1.14,3.66,1.72a4,4,0,0,0,5.23-1.83,4,4,0,0,0-1.83-5.21c-1.2-.62-2.41-1.22-3.6-1.84a12.3,12.3,0,0,1-3-1.75C757,371.88,753.24,373.08,752.11,375.41Zm14-5.88a71.35,71.35,0,0,0,12.05,4c5.91,1.2,7.69-8,1.78-9.14a63.72,63.72,0,0,1-10.09-2.55,4.43,4.43,0,0,0-5.76,2A4.33,4.33,0,0,0,766.16,369.53Zm67.36,65.38c-3.63-2.27-7.79-3.89-11.65-5.76-5-2.42-8.61,5.13-3.74,7.75,3.77,2,7.53,4.46,11.5,6.07a4.6,4.6,0,0,0,6-2.09C836.76,438.5,835.58,436.2,833.52,434.91Zm-6.9-17.45a24.28,24.28,0,0,0,8.8,4.61c1.56.7,3.12,1.39,4.7,2.05a4.22,4.22,0,0,0,5.51-1.93,4.16,4.16,0,0,0-1.93-5.48l-3-1.21A5.3,5.3,0,0,0,839,414a10.63,10.63,0,0,0-2.59-.91c-.31-.08-.63-.18-.94-.28l-.59-.21c-1.35-.51-2.69-1.08-4-1.69C827,409,823,414.68,826.62,417.46ZM809.93,404a23.84,23.84,0,0,0,4.78,2.8,20.89,20.89,0,0,0,5.37,2.18,4.81,4.81,0,0,0,5.4-3.18c.8-2.43-.39-4.47-2.43-5.77a18.21,18.21,0,0,0-5.47-1.84,19.69,19.69,0,0,0-5.44-.81C808.83,397.49,807.45,401.92,809.93,404Zm-27.79,25.67a4.32,4.32,0,0,0-1.84-4.7A33.56,33.56,0,0,0,774,421.7a67.72,67.72,0,0,0-7.18-3.08,5.41,5.41,0,0,0-6.63,3.63c-.88,3,1,5.5,3.65,6.62A60.45,60.45,0,0,0,770.7,431a34.3,34.3,0,0,0,7.34,1.63A4.21,4.21,0,0,0,782.14,429.67Zm12.92-42.54c4.39,1.45,8.62,2.88,12.88,4.68,5.46,2.31,9.49-5.86,4-8.31A39.55,39.55,0,0,0,796.45,380C792.83,380,791.45,385.93,795.06,387.13Zm-12,88.05a4.9,4.9,0,0,0,3.8,5.61c2.8.62,5.6,1.24,8.4,1.82a4.76,4.76,0,1,0,1.82-9.34c-2.79-.65-5.59-1.27-8.39-1.88A4.85,4.85,0,0,0,783.06,475.18Zm-75.35-51.67-4.23-1.45c-1.26-.44-7.2-1.78-8.51-1.35a5,5,0,0,0-2.85,2.51c-1,2.25-.28,5.57,2.29,6.52,1.4.51,7.61,2.14,9,2.66a5.42,5.42,0,0,0,3.72.23,5,5,0,0,0,2.88-2.54,5,5,0,0,0,.23-3.7A4.83,4.83,0,0,0,707.71,423.51Zm85,80.61c-5-2.41-8.8,5.34-3.77,7.8,3.36,1.65,6.77,3.16,10.19,4.69,4.84,2.17,8.29-4.95,3.58-7.41C799.35,507.47,796,505.73,792.67,504.12Zm-3.24-73.38c4.19,2.2,8.33,4.57,12.7,6.4,5.66,2.38,9.54-5.62,4.13-8.56-4.15-2.27-8.59-4-12.93-5.92C788,420.33,784.28,428.05,789.43,430.74Zm49.05,45.95a43.29,43.29,0,0,0,10.8,3.05,4.27,4.27,0,0,0,1.23,0v-8.92a38.44,38.44,0,0,0-9-3.18C836.15,466.75,833.52,474.27,838.48,476.69ZM820.18,473c-.52-.16-.81-.27-1.53-.56s-1.41-.58-2.1-.89a43.26,43.26,0,0,1-4-2.14c-2-1.21-4.93.05-5.9,2.06-1.13,2.35,0,4.61,2.07,5.89a48.4,48.4,0,0,0,8.64,4.24c2.54,1,5.38.06,6.3-2.69S822.79,473.83,820.18,473ZM304.91,1591.38a4.86,4.86,0,0,0,5.16,5.13,58.08,58.08,0,0,1,9.78,0c2.28.16,4.49-.94,4.95-3.36a4.28,4.28,0,0,0-3.37-4.94c-3.59-.58-7.2-.86-10.79-1.35A4.88,4.88,0,0,0,304.91,1591.38ZM791.61,456c1.31.68,2.68,1.23,4,1.85a4.71,4.71,0,1,0,4.1-8.49l-4-1.84c-2.24-1-8-1.56-9.05.8S786.06,453.14,791.61,456Zm19-43.53c-3.87-1.81-7.73-3.64-11.56-5.52-5.23-2.55-9.12,5.51-3.92,8.12,3.82,1.92,7.61,3.88,11.39,5.85C811.92,423.74,816.16,415.07,810.65,412.49ZM246.42,265.08c3-3.43,4.69-8.12,6.57-12.2a4.39,4.39,0,0,0-7.78-4.07,57.2,57.2,0,0,1-3.12,5.5,56.84,56.84,0,0,0-3.48,5.3C236.27,264.35,242.75,269.33,246.42,265.08Zm25.2,1298.86c-1.95-.63-4.16-.42-6.19-.4a21,21,0,0,0-5.86.66c-3.4,1-3.6,6-.46,7.47a24.81,24.81,0,0,0,5.74,1.58,22.21,22.21,0,0,0,6.16.79,5.14,5.14,0,0,0,4.72-4.79C275.89,1566.52,274.09,1564.73,271.62,1563.94Zm5.13,39.57c4.47,1.06,9,2.54,13.61,3.12a4.92,4.92,0,0,0,5.62-3.82c.53-2.78-1.33-4.84-3.83-5.61-4.39-1.35-9.16-1.88-13.67-2.75C272.6,1593.32,271,1602.13,276.75,1603.51Zm20.9-28c-1.15-.15-2.29-.29-3.44-.42a5.64,5.64,0,0,0-2.15-1.11,11.49,11.49,0,0,0-2.93-.23l-1.05,0-.68-.06c-1.54-.15-3.09-.37-4.61-.65-4.61-.84-7.22,6.12-2.63,8,3.13,1.28,6.88,2.49,10.4,2.35q2.71.45,5.44.83c2.29.31,4.82-1.07,5.17-3.51A4.48,4.48,0,0,0,297.65,1575.53Zm-50.76,11.7q6.74,1.41,13.44,2.93c6.33,1.42,8.31-8.73,1.89-9.89-4.52-.81-9-1.64-13.52-2.53C242.58,1576.54,240.78,1586,246.89,1587.23Zm66.33-631.91a4.25,4.25,0,0,0-2.39-5.65c-3.42-1.18-7.7-2.09-11.36-1.53a4.09,4.09,0,0,0-.16,8.13c2.67.48,5.3.62,7.93,1.35C309.59,958.27,312.18,957.64,313.22,955.32Zm-11,743.24a99.85,99.85,0,0,0,13.62.09,4.71,4.71,0,0,0,4.34-5,4.76,4.76,0,0,0-5-4.33c-4.14,0-8.26-.46-12.4-.59C297.23,1688.59,296.62,1698,302.24,1698.56Zm-57-93.52c5,1.12,9.91,2.44,14.94,3.13,6.53.9,8.33-8.46,1.91-10-4.94-1.2-10-1.79-15-2.57C241,1594.63,239.21,1603.67,245.29,1605Zm113.52,19.36c-4.21-.65-8.42-.76-12.61-1.65-4.52-1-7.16,6.25-2.6,7.86s9.61,3.2,14.65,3.22C363.68,1633.85,364.15,1625.21,358.81,1624.4Zm-26.32,18.49c-.49,2.55,1.23,4.51,3.55,5.19,4.13,1.22,8.48,2.52,12.83,2.45,5.47-.07,6-8.71.57-9.53-4-.59-7.83-.59-11.74-1.64C335.38,1638.73,332.91,1640.66,332.49,1642.89Zm-29.06,15.61a5,5,0,0,0,5.28,4.58,81,81,0,0,0,8.63-1.06,4.65,4.65,0,1,0-.64-9.27,83.51,83.51,0,0,0-8.67.49C305.47,1653.62,303.12,1655.72,303.43,1658.5Zm-64.32-91.73c-.19-2.79-2.51-4.36-5.11-4.44a97.17,97.17,0,0,1-12.05-.94c-5.84-.9-7.6,8-1.72,9a88.55,88.55,0,0,0,14.43,1.45C237.25,1571.88,239.28,1569.21,239.11,1566.77Zm83,106.09c-4.5-1-7,6-2.56,7.77a78.15,78.15,0,0,0,7.9,2.69c2.64.73,5.61,1.55,8.37,1.3,5.77-.52,5.92-8.33.58-9.77-2.26-.6-4.86-.48-7.19-.76A65,65,0,0,1,322.11,1672.86Zm4.83-62.79c-3.93-.45-7.84-1.45-11.78-1.79-2.79-.24-5.52,1.18-6.08,4.13a5.28,5.28,0,0,0,4.14,6.06c4.19,1,8.89.81,13.18.76C331.61,1619.18,332.22,1610.67,326.94,1610.07Zm-18,29.07c3.77.74,8.22.49,12,.18,5.26-.42,5.84-8.23.55-9.23-3.75-.71-8.17-1.44-12-1.12C303.72,1629.48,303.08,1638,308.9,1639.14Zm-78.8-621.68a4.43,4.43,0,0,0-4.82-3.17,60.1,60.1,0,0,1-8,.93,4.49,4.49,0,0,0-4.06,4.83c.3,2.46,2.6,3.91,5.08,3.8a44.2,44.2,0,0,0,9.16-1.4C229.58,1021.91,230.62,1019.28,230.1,1017.46Zm50.65-91c-2.53-1.34-11.95-1.44-14.79-1.53s-5.36,1.49-5.42,4.39,2.4,4.6,5.25,4.52c2.6-.06,11.25.6,13.79.12C283.82,933.16,284.36,928.37,280.75,926.45Zm-2.33,23.44c.24-2.16-8.38-3.7-10.8-3.95l-2.26-.23c-2.28-.24-4.74,1.24-5,3.52a4.23,4.23,0,0,0,3.7,4.71c.76,0,8.66-.61,9.42-.56a4.89,4.89,0,0,0,3.27-.81A4.15,4.15,0,0,0,278.42,949.89Zm-14.16,65.8a30.15,30.15,0,0,0,10-4.78,4.06,4.06,0,0,0,.84-5.79c-1.55-1.92-4.11-1.94-6.13-.76a20.72,20.72,0,0,1-7,2.5c-2.89.47-4.88,2.93-4.14,5.7S261.44,1016.44,264.26,1015.69Zm-47.19,523.13a68.32,68.32,0,0,1-11.17.14,4.75,4.75,0,0,0-5.41,3.67c-.44,2.32,1.19,5.09,3.68,5.39a78.34,78.34,0,0,0,13.59.77C224.21,1548.4,223.52,1538.43,217.07,1538.82Zm67-513.75a70,70,0,0,0,13.14-3.43c4.6-1.89,2.69-8-2.09-7.81-4.37.16-9.18,1.34-13.41,2.37C276.44,1017.5,278.72,1026.08,284.1,1025.07Zm26.23-29.13a4.78,4.78,0,0,0,5.3-3.73,4.48,4.48,0,0,0-3.92-5c-3.34-.43-6.69-.67-10-1-5.91-.52-7.31,8-1.37,8.66C303.64,995.28,307,995.7,310.33,995.94Zm-54.62-1.8a53.07,53.07,0,0,1,13.11-1.81,4.21,4.21,0,0,0,3.81-4.54c-.26-2.42-2.46-3.55-4.78-3.57a83.69,83.69,0,0,0-14.48,1.17C246.54,986.51,248.9,996.05,255.71,994.14Zm-34.88,39.8c-3.53,1.28-7,2.76-10.41,4.19-5.68,2.36-2.19,10.7,3.58,8.45,3.49-1.37,7-2.68,10.41-4.2C230,1039.89,226.67,1031.83,220.83,1033.94Zm132.71,625.42c-4.36-.69-8.7-1-13-2a4.9,4.9,0,1,0-1.84,9.62,51.67,51.67,0,0,0,14.28,2.1C358.53,1668.92,359.08,1660.23,353.54,1659.36ZM253.22,968.19c0,2.15,1.73,4.74,4.29,4.81a85.16,85.16,0,0,0,10.59-.52c5-.51,5.21-7.77.16-8.35a82.86,82.86,0,0,0-10.57-.65A4.9,4.9,0,0,0,253.22,968.19Zm-30.05,547.28a15.8,15.8,0,0,0-8.36-4c-2.55-.31-5.36,1.09-5.79,3.84s1.23,5,3.86,5.77c-1.16-.36.45.21.66.29.44.17.87.34,1.3.54a6.81,6.81,0,0,1,1.12.61l.64.54a5,5,0,1,0,6.57-7.62Zm9.29-504c3.63-.69,7.26-1.35,10.85-2.2,2.45-.57,4.44-2.32,4.13-4.9-.27-2.19-2.69-4.39-5.17-3.88-4,.84-8,1.87-12,2.87C225.46,1004.58,227.54,1012.39,232.46,1011.46Zm24.41-67a4.69,4.69,0,0,0-5.17-3.87c-3.53.22-7,.47-10.58.78a4.34,4.34,0,0,0-3.91,4.65c.3,2.44,2.5,3.71,4.9,3.67,3.55-.05,7.09-.17,10.63-.32A4.55,4.55,0,0,0,256.87,944.47Zm-25.55,690.17c1.79.15,3.56.51,5.34.77,2.5.36,5.27-1.18,5.65-3.83a4.89,4.89,0,0,0-3.85-5.63c-1.78-.26-3.55-.54-5.34-.77-6-.75-9,.69-9.4,3.34C223.35,1631,226.52,1634.24,231.32,1634.64ZM299,1876.51a4.68,4.68,0,0,0-2.12-6.12,58.35,58.35,0,0,0-6.55-3.44,4.59,4.59,0,0,0-5.74,1.59c-1.13,1.72-1.07,4.61.8,5.89a65.66,65.66,0,0,0,7.46,4.19A4.65,4.65,0,0,0,299,1876.51Zm-25.14-44.18a27.1,27.1,0,0,1,7.06.81,3.88,3.88,0,1,0,1.53-7.6,53.28,53.28,0,0,0-8-1.48,4.18,4.18,0,1,0-.56,8.27Zm6.78,43.35c-2.16-1.42-4.3-2.87-6.53-4.18-2-1.19-4.81-.15-6,1.68s-1.12,4.82.83,6.17c2.14,1.46,4.34,2.8,6.55,4.15,2,1.22,4.81.12,6-1.67S282.65,1877,280.67,1875.68Zm-1.14-20a4.4,4.4,0,0,0-2-5.77c-3.33-2-6.54-4.37-10-6.13a4.84,4.84,0,0,0-6.37,2.19c-1.23,2.5,0,5,2.2,6.35,3.27,2,7,3.54,10.37,5.35A4.38,4.38,0,0,0,279.53,1855.72Zm29-4.81a49.37,49.37,0,0,0-11-4.78c-2.27-.65-4.79,1.08-5.46,3.18a4.8,4.8,0,0,0,2.41,5.83,49.52,49.52,0,0,0,11.33,3.92,4.34,4.34,0,0,0,2.76-8.15Zm-.67,43.42-4.7-3.33c-2-1.4-4.9-1.6-6.54.49-1.4,1.76-1.68,5.1.49,6.52l4.84,3.17a4.94,4.94,0,0,0,3.24,1.08,4.62,4.62,0,0,0,3.15-1.56C309.78,1898.92,310,1895.8,307.89,1894.33Zm-40.6-205c3.94.78,7.9,1.4,11.86,2,5.63.91,7.22-7.42,1.65-8.67-3.92-.87-7.82-1.77-11.77-2.51C263.13,1679.08,261.39,1688.15,267.29,1689.32Zm42.64,137.15c-2.54-.34-5-1-7.47-1.53a5,5,0,1,0-1.95,9.73,38.84,38.84,0,0,0,8.81.86,4.58,4.58,0,0,0,.61-9.06Zm-19.87-209.23a52.48,52.48,0,0,0-7.39-1,45.34,45.34,0,0,0-7.72-.37,4.08,4.08,0,0,0-3.76,3.82c-.1,2.18,1.28,3.61,3.28,4.24a59.19,59.19,0,0,0,6.88,1.45c2.3.43,4.59,1,6.92,1.24C294.36,1627.23,296.15,1618.7,290.06,1617.24Zm-33.53,40.37q4.61-.18,9.21-.43A5.1,5.1,0,1,0,265,1647c-3.08.1-6.15.23-9.22.37a5.19,5.19,0,0,0-4.79,5.48A5.25,5.25,0,0,0,256.53,1657.61Zm-1.95-27c1.54.34,3.11.53,4.67.8a5,5,0,1,0,1.88-9.92l-4.66-.81c-2.61-.45-8.76.6-9.16,3.33S248,1629.18,254.58,1630.64Zm1.51,92.29a34,34,0,0,0,8.94,2.83,38.11,38.11,0,0,0,9.14,1.06c4.15-.17,5.84-6.82,1.6-8.31-2.71-.94-5.52-1.51-8.25-2.36s-5.47-2-8.29-2.73C253.5,1712,251.16,1720.35,256.09,1722.93ZM278,1742.84c.45-3.1-1.82-5.14-4.71-5.53a147.38,147.38,0,0,0-15.13-1.23c-5.64-.17-5.57,8.06-.12,8.61a138,138,0,0,1,13.88,2.14A4.88,4.88,0,0,0,278,1742.84Zm103.2-75c-4-1.15-7.85-2.91-11.91-3.75a5,5,0,0,0-5.68,3.37c-.67,2.14.15,5.28,2.56,6.08,4.35,1.44,8.92,2,13.36,3.09a4.54,4.54,0,0,0,5.25-3.56C385.27,1670.47,383.55,1668.47,381.21,1667.8Zm1.42,27.28.07,0C382.89,1695.17,382.94,1695.18,382.63,1695.08Zm13.3,61.59a4.73,4.73,0,0,0-2.14-6.21c-1.14-.62-2.28-1.24-3.44-1.82a4.74,4.74,0,1,0-4.17,8.51c1.16.58,2.34,1.12,3.53,1.65A4.72,4.72,0,0,0,395.93,1756.67Zm2.47,37.26a45.33,45.33,0,0,0-8.12-4.57c-2.24-.93-5.17-.26-6.21,2.13-.94,2.15-.27,5.23,2.14,6.18a51.61,51.61,0,0,1,7.38,3.55,4.4,4.4,0,0,0,5.59-1.56C400.25,1798,400.24,1795.19,398.4,1793.93Zm4.6-27.66a4.48,4.48,0,1,0-3.94,8,27.39,27.39,0,0,1,2.95,1.52l1.26.78s.84.6.94.67a4.12,4.12,0,1,0,5.39-6.24A27.31,27.31,0,0,0,403,1766.27Zm-16.47-66.16c.15-2.56-1.52-4.23-3.83-5l-1.24-.38c-.39-.09-.8-.14-1.2-.22l-2.38-.48a30.7,30.7,0,0,0-5.46-.93,4.64,4.64,0,0,0-4.24,3.75,4.85,4.85,0,0,0,2.55,5,22.8,22.8,0,0,0,5.56,1.82,28.13,28.13,0,0,0,5.77.94C384.46,1704.77,386.4,1702.27,386.53,1700.11Zm-26.28-15.94a30.83,30.83,0,0,0-5-.73,39.37,39.37,0,0,0-5.73-.52c-4.77.2-6.33,7.38-1.78,9.27a28.57,28.57,0,0,0,5.85,1.43,26.19,26.19,0,0,0,6,.61,5.07,5.07,0,0,0,4.7-4.77A5.15,5.15,0,0,0,360.25,1684.17Zm-12.71,191.1c-2-1.25-5.06,0-5.94,2a4.52,4.52,0,0,0,2,5.91c.44.25.86.5,1.28.76l.09.06c.27.19.53.37.79.57a28.26,28.26,0,0,1,2.52,2.12,4.25,4.25,0,1,0,5.56-6.43A33.81,33.81,0,0,0,347.54,1875.27Zm-2-14.6a4.43,4.43,0,0,0-2-5.83c-.65-.31-1.29-.63-1.92-1-.14-.08-.83-.38-.86-.52.55.36.62.41.23.14-.16-.1-.31-.22-.47-.33a4.87,4.87,0,0,0-3.19-1.07,4.62,4.62,0,0,0-3.12,1.54,4.49,4.49,0,0,0-1.07,3.19,4.29,4.29,0,0,0,1.55,3.1,29.92,29.92,0,0,0,5,2.79A4.46,4.46,0,0,0,345.51,1860.67Zm43.28-39.62-7.05-5.26a4.29,4.29,0,0,0-6.31.91c-1.5,2.28-.48,4.76,1.66,6.12l7.43,4.7c1.63,1,4,.1,5-1.38A3.88,3.88,0,0,0,388.79,1821.05Zm-58.58,53.34c1.07-1.66,1.09-4.53-.78-5.76a53.11,53.11,0,0,0-8.94-5,4.71,4.71,0,0,0-6.13,2.1,4.61,4.61,0,0,0,2.11,6.1c2.75,1.28,5.49,2.58,8.11,4.09A4.43,4.43,0,0,0,330.21,1874.39Zm-21.93-57.56a17.34,17.34,0,0,1,3.93.37c2.26.28,4.49.71,6.72,1.19,5.46,1.18,6.93-6.92,1.68-8.38a81,81,0,0,0-10.77-2.33c-3.53-.47-6.29.18-8.2,3.34C299.09,1815.25,304.67,1819,308.28,1816.83Zm71.86,23.23a41.41,41.41,0,0,0-10.09-4.65c-4.82-1.45-7.53,6.49-2.83,8.35a64.68,64.68,0,0,1,9.06,4.2c2.05,1.2,4.91,0,5.89-2C383.31,1843.61,382.17,1841.32,380.14,1840.06Zm-10.21,21.29a45.56,45.56,0,0,0-11.5-6.27,4.22,4.22,0,0,0-5.49,1.88,4.13,4.13,0,0,0,1.89,5.47,88.2,88.2,0,0,1,10.89,5.29C369.5,1869.85,373.45,1864,369.93,1861.35Zm-8.79-285.16-6.6-3.33a4.34,4.34,0,1,0-3.82,7.79l6.41,3.74a4.56,4.56,0,1,0,4-8.2Zm-173-1320.5c.92-3.84,2.39-7.59,3.21-11.44.58-2.73-.51-5.6-3.38-6.51a5.31,5.31,0,0,0-6.54,3.37c-1.47,4-1.88,8.69-2.35,12.93C178.52,259.2,186.93,260.83,188.16,255.69Zm-9.32,58a5,5,0,0,0,6.59-2.05c1.5-3.19,3.11-6.33,4.49-9.57a5.1,5.1,0,0,0-9-4.72c-1.48,3.21-2.73,6.51-4.1,9.77A5,5,0,0,0,178.84,313.72Zm24.81,9.14a87.39,87.39,0,0,0,6.78-14.63c1.72-5.35-6.71-8.33-9.18-3.39-2.2,4.44-3.92,9.11-6.16,13.55C192.31,323.92,200.69,328.33,203.65,322.86Zm-17.38-60.28a134,134,0,0,1-6.09,12.6,4.85,4.85,0,0,0,2,7c2.85,1.34,5.48-.24,6.69-2.87a149.16,149.16,0,0,0,5.59-14.07C196.32,259.88,188.39,257.54,186.27,262.58Zm-15.38,79.87a28.32,28.32,0,0,0-1.63,6.52c-.19,2,1.8,4,3.66,4.44a4.9,4.9,0,0,0,5.23-2.39,31.54,31.54,0,0,0,2.38-5.38c.8-2,1.95-4,2.34-6.1a5.12,5.12,0,0,0-3.22-5.87,5.21,5.21,0,0,0-6.28,2.36C172.18,337.86,171.61,340.37,170.89,342.45Zm-5.21-72.77c-2.24,4.45-4.35,9.11-5,14.09-.68,5.37,7.87,6.88,9.33,1.7,1.15-4.09,1.78-8.24,3.17-12.27C174.69,268.85,167.84,265.37,165.68,269.68Zm63.75-15.41c2.62,1.22,5,.19,6.54-2a64.8,64.8,0,0,0,3.84-7.17,4.75,4.75,0,0,0-2-6.34,4.84,4.84,0,0,0-6.37,2,64.24,64.24,0,0,0-4.07,7C226.4,250.06,226.92,253.09,229.43,254.27Zm17.12,51.34c-2.16,4.21-2.82,9.35-4.12,13.88-1.45,5,6.77,8.24,8.76,3.23,1.73-4.34,4.43-8.84,5.29-13.44C257.57,303.49,249.4,300.06,246.55,305.61Zm40.62,1334.62c-.82-.1-1.62-.22-2.43-.36a48.43,48.43,0,0,1-4.77-1.09c-2.47-.7-5.1,1.41-5.55,3.76-.52,2.74,1.32,4.77,3.78,5.53a52.83,52.83,0,0,0,10.13,2c2.91.3,5.6-1.42,5.78-4.53s-2.27-5.06-5.2-5.17C288.33,1640.36,288,1640.32,287.17,1640.23ZM263.6,281.68a50.88,50.88,0,0,0,4.87-15.15c1.09-6.3-8.19-8.53-9.77-2.24-1.19,4.69-2.61,9.55-3.43,14.31S261.09,286.27,263.6,281.68Zm-43-47.92c2.21.6,4.93-.48,5.56-2.86.29-1.11.57-2.23.84-3.34a6,6,0,0,0,1.37-2,11.24,11.24,0,0,0,.57-2.87c0-.35.1-.7.16-1,0-.12.12-.54.14-.66.34-1.5.75-3,1.21-4.48,1.39-4.46-5.22-7.88-7.64-3.57-1.66,2.94-3.31,6.51-3.6,10-.52,1.75-1,3.51-1.48,5.28A4.48,4.48,0,0,0,220.56,233.76Zm85.49,688c-3.18-1.06-6.52-2.51-9.87-3a4.21,4.21,0,0,0-2.4,8c3,1.4,6.69,2,9.94,2.78,2,.53,4.26-1.19,4.75-3A4,4,0,0,0,306.05,921.79ZM168.87,247.88c1.16-3.63,2.43-7.9,2.56-11.72.2-5.78-8.21-7.44-10.05-1.83-1.19,3.65-1.48,8.07-1.64,11.89C159.52,251.47,167.24,253,168.87,247.88ZM389.26,1663.37a4.78,4.78,0,0,0,1.18,5.68,39.34,39.34,0,0,0,4.58,2.55,21.64,21.64,0,0,1,3.22,2.19,4.82,4.82,0,0,0,6.63-.5,4.75,4.75,0,0,0-.5-6.61c-2.69-2.37-6.27-5.23-9.89-5.89A4.88,4.88,0,0,0,389.26,1663.37Zm2.52-28-8.86-4.61a5,5,0,1,0-4.41,9l9.14,4.06C393.2,1646.25,397.18,1638.14,391.78,1635.33ZM378,1612.58c-.49-.34-1-.64-1.5-1l-.71-.45-.45-.3-.8-.56c-.59-.43-1.17-.87-1.75-1.32-2.15-1.67-5.57-1.73-7.37.56-1.6,2-1.86,5.69.55,7.34,1.44,1,2.89,1.95,4.4,2.83a12.47,12.47,0,0,0,4.71,2,4.82,4.82,0,0,0,4.83-2c.95-1.43,1.2-3.81,0-5.22A10.35,10.35,0,0,0,378,1612.58Zm-46.69-54.27-6.14-3a4.43,4.43,0,1,0-3.89,8l5.9,3.49a4.74,4.74,0,0,0,6.31-2.16A4.79,4.79,0,0,0,331.34,1558.31Zm33.57,95.56a51.75,51.75,0,0,0,7.27,2.11,66.42,66.42,0,0,0,6.79,1.64c5,.72,7.58-6.23,2.8-8.49a64.6,64.6,0,0,0-6.54-2.39,51.29,51.29,0,0,0-7.21-2.32C362.54,1643.37,359.54,1651.61,364.91,1653.87Zm-20.62-61.46c.13,3.39,3,4.7,5.62,6.07,2.29,1.19,4.56,2.42,6.83,3.66a4.48,4.48,0,1,0,3.94-8c-1.59-.95-3.19-1.89-4.76-2.86l-2.2-1.38c-.39-.24-1.64-1.46-.88-.39A4.73,4.73,0,0,0,344.29,1592.41ZM334,1611.11a135.73,135.73,0,0,1,13.29,4.5,4.9,4.9,0,0,0,6.69-2.87c1-3-.9-5.39-3.68-6.27a148.8,148.8,0,0,0-14.69-3.83C330.13,1601.5,328.76,1609.62,334,1611.11ZM135.83,276c1.22-4.23,2-8.49,3.56-12.64a5,5,0,0,0-3.19-6.15,5,5,0,0,0-6.18,3.18,51,51,0,0,0-3.81,13.86C125.7,279.81,134.29,281.4,135.83,276ZM142,244.79a4.73,4.73,0,0,0,4.9-4.39,83.34,83.34,0,0,0,.56-8.64c-.06-2.57-1.87-5.15-4.69-5.18a5.06,5.06,0,0,0-5.2,4.67,80.71,80.71,0,0,0,0,8.66A4.77,4.77,0,0,0,142,244.79ZM272,244c1.45-4.75,2.69-9.55,4.26-14.27.86-2.6-1.31-5.5-3.81-6.07-2.9-.67-5.23,1.19-6.1,3.79a108.51,108.51,0,0,0-4.06,14.32C261.07,248.09,270.13,250.08,272,244ZM154.62,274.19c1.07-3.84,1.54-7.67,3.06-11.41.91-2.22-.73-4.89-2.89-5.58-2.48-.78-4.65.67-5.61,2.89-1.71,3.94-3.53,8.08-4,12.39C144.6,277.89,153.15,279.46,154.62,274.19Zm-1.13,21.94a50.75,50.75,0,0,0-3,6.94,69.2,69.2,0,0,0-2.46,6.52c-1.31,4.82,5.29,8.24,8.13,3.8a65.59,65.59,0,0,0,3.17-6.19,51.76,51.76,0,0,0,3.19-6.84C164.23,295.07,156.38,291.1,153.49,296.13ZM407.77,1746a4.5,4.5,0,0,0-6,2,4.58,4.58,0,0,0,2.06,6c.95.57,1.91,1.15,2.84,1.75l.36.24.73.51c.49.35,1,.7,1.44,1.06a4.45,4.45,0,0,0,6.14-.46,4.4,4.4,0,0,0-.46-6.11A51.86,51.86,0,0,0,407.77,1746Zm3-91a16.62,16.62,0,0,0-7.42-5.64c-2.28-.81-5.12-.34-6.2,2.13-.94,2.14-.28,5.24,2.14,6.18A20,20,0,0,1,402,1659c.11.09.63.46.79.59a14.83,14.83,0,0,1,1.39,1.24c1.55,1.56,4.3,1.27,5.82-.08A4.38,4.38,0,0,0,410.74,1655Zm-178.66-1381c-4.49-1.1-7,2.3-9.18,5.61s-4.25,6.55-6.38,9.82c-2.8,4.31,4.41,9.47,7.48,5.24l4.58-6.31,2.29-3.15q.66-.92,1.29-1.83C236.72,282.32,237.1,275.27,232.08,274.05ZM393.79,742.69c1.77-1,3.11-3.46,2-5.34a30.55,30.55,0,0,0-5.07-6.56c-1.64-1.6-4.32-2.4-6.35-.79-1.78,1.41-2.54,4.22-.87,6a47.49,47.49,0,0,1,4.42,5.6C389.17,743.4,392,743.68,393.79,742.69Zm-18.38,43.19c-2.63-2.81-5.47-5.42-8-8.32-3.32-3.81-9.55.66-6.49,4.7a69.47,69.47,0,0,0,8.26,9.48C372.74,795,378.71,789.41,375.41,785.88Zm23.86-70.45c-.77-.9-1.62-1.73-2.35-2.66-.37-.46-.72-.94-1.05-1.42l-.37-.58-.2-.36a4.38,4.38,0,0,0-5.49-2.19,4,4,0,0,0-2.35,5.2,22,22,0,0,0,4.52,7.29c1.66,1.6,4.36,2.42,6.42.79A4.24,4.24,0,0,0,399.27,715.43Zm-3.62,76.76a93.58,93.58,0,0,0-5.69-9.11c-2.58-3.69-9.26-.13-7.23,3.9a92.52,92.52,0,0,0,5.31,9.33C390.64,800.26,397.91,796.38,395.65,792.19ZM270.33,286.51c-.77,3-1.54,5.93-2.27,8.91a5.12,5.12,0,0,0,10,2.29c.81-2.95,1.58-5.92,2.34-8.89a5.18,5.18,0,0,0-3.87-6.15A5.26,5.26,0,0,0,270.33,286.51Zm125.58-3A67.13,67.13,0,0,1,399,272.85a4.71,4.71,0,0,0-1.95-6.22c-2.09-1.1-5.24-.35-6.25,1.94a78.31,78.31,0,0,0-4.7,12.72C384.62,287.56,394.4,289.8,395.91,283.54ZM385,253.34c-2.51-1.31-6.39.06-6.79,3.1.29-.14.25,0-.09.44-.15.33-.3.65-.46,1-.31.65-.62,1.3-.95,1.94-.65,1.28-1.32,2.56-2,3.84a4.2,4.2,0,0,0,7.45,3.9c.7-1.26,1.4-2.52,2.11-3.78a13.07,13.07,0,0,1,2-3.09C388.65,258.64,387.51,254.63,385,253.34Zm-55.68,678.5c3.32,1.1,6.47,2.52,9.68,3.85a4.51,4.51,0,0,0,5.69-2.18c1-2.2-.22-4.32-2.28-5.37a47.76,47.76,0,0,0-10.89-3.64C327.1,923.45,325,930.41,329.36,931.84Zm-7-14.23c5.09,2,8.36-5.3,3.36-7.44a75.33,75.33,0,0,0-14.4-4.46c-5.67-1.17-7.09,7.5-1.34,8.48A64.13,64.13,0,0,1,322.35,917.61Zm26.86-29.15a4,4,0,0,0-.76-5.77l-4.63-3.16a4.68,4.68,0,0,0-6.22.76,4.1,4.1,0,0,0,.78,5.88l4.72,3.05C345,890.43,347.79,890.36,349.21,888.46Zm2.65-34.36,4.39,3.4a4.6,4.6,0,0,0,6.13-.76,4.05,4.05,0,0,0-.77-5.79l-4.33-3.47a4.65,4.65,0,0,0-6.2.77A4.09,4.09,0,0,0,351.86,854.1ZM362,836.32a4.09,4.09,0,0,0-.77-5.8c-2.33-2-4.59-4.19-7.11-6a4.61,4.61,0,0,0-5.77.38c-1.41,1.32-2,4-.44,5.45,2.48,2.42,5.25,4.53,8,6.71A4.59,4.59,0,0,0,362,836.32Zm8.76-29.55c-2-2.55-4-5.29-6.22-7.67a4.21,4.21,0,0,0-5.18-1c-1.56.87-2.73,3-1.77,4.71,1.79,3.13,4,6.06,6.09,9C366.78,816.38,374.25,811.13,370.77,806.77ZM373.66,247c2,.7,4.83,0,5.67-2.13a24.58,24.58,0,0,1,2.57-5.06c.84-1.21,2.5-3,3.53-4.56,1.66-2.41.16-6.34-2.35-7.52-3-1.4-5.78-.24-7.55,2.35a26.75,26.75,0,0,0-2.46,5.45c-.8,2.05-1.58,4.09-2.31,6.17S371.7,246.33,373.66,247ZM285,392.5c2.57,1.8,5.43.71,7.08-1.68a148.4,148.4,0,0,0,8-12.89c2.7-4.93-4.69-8.6-7.66-4a136.37,136.37,0,0,1-8.2,11.36A4.85,4.85,0,0,0,285,392.5Zm77.63-96.1c2.74.63,4.92-1.13,5.75-3.58a95.57,95.57,0,0,1,4.42-11.21c2.57-5.31-5.48-9.58-8.17-4.27a87,87,0,0,0-5.59,13.33C358.28,293.14,360.25,295.85,362.64,296.4Zm-87.83,408c-1.27,2-.59,4.22,1.14,5.77.5.45,5.11,4.9,5.62,5.34.14.11.34.3.43.37l.6.62c.95,1,1.8,2.16,2.64,3.27a5.25,5.25,0,0,0,7,.87c2.32-1.84,2.34-4.34,1-6.65-1.87-3.12-9.14-9.85-12.51-11.48A4.87,4.87,0,0,0,274.81,704.42Zm-1.63-394.48A52.13,52.13,0,0,0,268.3,319c-1.14,2.69-.27,5.75,2.66,6.83s5.52-.69,6.49-3.45a15,15,0,0,1,.65-1.61c.33-.75.68-1.49,1-2.21a45.48,45.48,0,0,1,2.44-4.23c1.39-2.15.13-5.27-2-6.39C277.11,306.66,274.63,307.82,273.18,309.94Zm-.38,31.87c-1.8,3.37-2.86,7.69-3.68,11.41-1.13,5.14,6.21,8,8.71,3.22,1.77-3.37,3.76-7.36,4.56-11.09C283.6,339.68,275.6,336.59,272.8,341.81Zm26.68-61.26c2.28,1.07,5.37.41,6.52-2,.77-1.62,1.56-3.23,2.3-4.87,2.46-5.48,2-8.8-.47-9.93-2.28-1.07-6.3,1-8.09,5.46-.66,1.66-1.53,3.24-2.29,4.87A4.87,4.87,0,0,0,299.48,280.55Zm-5.25-18.72c1.45-4.75,2.69-9.55,4.26-14.27.86-2.6-1.31-5.5-3.82-6.07-2.89-.67-5.22,1.19-6.09,3.79a108.37,108.37,0,0,0-4.06,14.31C283.3,265.92,292.36,267.91,294.23,261.83Zm62.82,14.31c1.09-4.25,3.92-7.65,5.34-11.71,1.9-5.4-6.25-9.3-9.74-5.12-3.28,3.94-4.22,9.74-5.08,14.65C346.51,280.08,355.49,282.23,357.05,276.14Zm-5.91-22.39c2.06.73,5.06,0,5.95-2.23a24.73,24.73,0,0,1,2.48-4.86l.22-.31q.4-.54.84-1.08a26.68,26.68,0,0,0,2.35-3.11,5.44,5.44,0,0,0-1.73-7,5.53,5.53,0,0,0-7.2.73,21,21,0,0,0-3.48,6c-1,2.23-1.6,3.86-2.47,6.31C347.31,250.43,349.1,253,351.14,253.75Zm-8.2,60.73c2.1-4.07,4.21-8.12,6.37-12.14,2.94-5.49-5.58-9.95-8.59-4.49q-3.3,6-6.72,11.95C330.79,315.42,340,320.26,342.94,314.48Zm-15.87-50.65a69.12,69.12,0,0,0-2.58,7.28,37.7,37.7,0,0,0-2,7.79,4.53,4.53,0,0,0,3.06,4.49,4.67,4.67,0,0,0,5.13-1.8,35.83,35.83,0,0,0,3.76-6.64,71.13,71.13,0,0,0,3.58-7.54,5.79,5.79,0,0,0-3.67-7.23C331.1,259.13,328.37,261,327.07,263.83Zm-10.26-31.56a33,33,0,0,0,6.47-11.45,4.88,4.88,0,0,0-3.1-5.65c-2.13-.75-5.1,0-6.05,2.28a58.25,58.25,0,0,1-4.61,9.71C306.81,231.41,313.6,236.2,316.81,232.27Zm3.42,25.43a5,5,0,0,0,6.68-2.07c2.52-4.07,5.65-7.85,8-12a5.64,5.64,0,0,0-2.36-7.54c-2.87-1.51-5.93-.2-7.57,2.35-2.58,4-4.41,8.52-6.79,12.64A5,5,0,0,0,320.23,257.7Z" fill="#1f2023"/></svg>