<svg xmlns="http://www.w3.org/2000/svg" width="45" height="45" viewBox="0 0 45 45">
  <g fill="none" fill-rule="evenodd">
    <g stroke="#7289DA" stroke-width="2" transform="translate(2 2)" stroke-linecap="round" stroke-linejoin="round">
      <path d="M6.04595676,6.04595676 C11.7920108,0.299902703 20.084173,-1.35058378 27.2922811,1.09563243 C30.1959568,2.08092973 32.9225514,3.73141622 35.2370919,6.04595676 C43.2988216,14.1065514 43.2988216,27.1764973 35.2370919,35.2370919 C27.1764973,43.2988216 14.1065514,43.2988216 6.04595676,35.2370919 C-2.01577297,27.1764973 -2.01577297,14.1065514 6.04595676,6.04595676 Z"/>
      <path d="M11.1030973 27.0886378C9.85785405 25.2485838 9.13023243 23.0305297 9.13023243 20.6410703 9.13023243 14.2843135 14.2837459 9.12966486 20.6416378 9.12966486 22.8142865 9.12966486 24.8473135 9.73128649 26.5806649 10.7778811M30.6059676 14.8732216C31.5901297 16.5691135 32.1531568 18.5397081 32.1531568 20.6419784 32.1531568 26.9998703 26.9996432 32.1533838 20.6417514 32.1533838 18.3828324 32.1533838 16.2760216 31.5029514 14.4984 30.3791676M31.0454919 2.78902703C33.1227892 1.05113514 36.2194378 1.15783784 38.1707351 3.10913514 40.1322486 5.07064865 40.2298703 8.19 38.4647351 10.2672973M2.78902703 31.0454919C1.05113514 33.1227892 1.15783784 36.2194378 3.10913514 38.1707351 5.07064865 40.1322486 8.19 40.2298703 10.2672973 38.4647351M31.0156378 38.4643946C33.0929351 40.2306649 36.2122865 40.1330432 38.1738 38.1715297 40.1250973 36.2190973 40.2318 33.1224486 38.4939081 31.0451514M10.2378973 2.78902703C8.1606 1.05113514 5.06281622 1.15783784 3.11151892 3.10913514 1.15114054 5.07064865 1.05238378 8.19 2.81865405 10.2672973M24.3517135 9.74172973L26.7343622 1.09427027M14.4962432.958394595L16.9174865 9.74661081"/>
      <polyline points="24.352 31.541 25.864 37.027 26.788 40.379"/>
      <path d="M14.4962432 40.3249946L16.9174865 31.5356432M31.5449514 24.3527351L40.1356541 26.7194919M40.3249946 14.4962432L31.5356432 16.9174865M9.74172973 24.3517135L.903567568 26.7877135M.958394595 14.4962432L9.74320541 16.9163514"/>
    </g>
    <rect width="45" height="45"/>
  </g>
</svg>
