<svg xmlns="http://www.w3.org/2000/svg" width="300" height="401" viewBox="0 0 300 401">
  <g fill="#F7F8F8" fill-opacity=".6" fill-rule="evenodd" transform="rotate(-36 227.606 221.967)">
    <path d="M53.6019 206.5634C51.3289 206.1334 49.1819 207.6804 48.7039 209.8994 48.3999 211.3074 48.1029 212.7184 47.7909 214.1244 47.5309 215.3114 47.3109 216.8304 46.7969 217.6564 45.1619 220.2774 47.4239 223.7824 50.1549 224.2994 52.9209 224.8234 56.2229 222.3934 55.7139 219.3634 55.4879 219.5824 55.4739 219.4334 55.6749 218.9184 55.7259 218.5614 55.7769 218.2054 55.8289 217.8474 55.9309 217.1324 56.0389 216.4234 56.1649 215.7114 56.4159 214.2944 56.6799 212.8774 56.9379 211.4594 57.3409 209.2354 55.8369 206.9864 53.6019 206.5634M70.1771 194.3593C70.3741 198.7393 68.6761 202.8163 68.5021 207.1163 68.2711 212.8293 77.1731 214.1943 79.2791 209.1793 81.2581 204.4583 80.4651 198.6373 79.8471 193.6903 79.0781 187.5243 69.8931 188.0833 70.1771 194.3593M98.1136 178.2724C96.0086 178.2274 94.5036 179.6344 93.7506 181.4794 92.7966 183.8124 92.5366 186.4484 92.1036 188.9194 91.6236 191.6534 91.0496 194.4094 90.8886 197.1824 90.7116 200.2674 93.4796 202.9644 96.4906 203.0274 99.8666 203.0994 101.9226 200.5024 102.3376 197.4274 102.6806 194.8774 102.6306 192.2854 102.6756 189.7174 102.7236 187.0414 102.8676 184.3184 102.3386 181.6784 101.9556 179.7594 100.0296 178.3124 98.1136 178.2724M45.4984 232.7851C43.5844 232.4231 41.1354 233.4441 40.4074 235.3581 39.6234 237.4181 39.2254 239.5791 38.6654 241.7061 38.1814 243.5421 37.1924 245.3171 36.9014 247.4621 36.5294 250.2121 37.9324 252.8261 40.6294 253.7121 43.1254 254.5321 46.2644 253.4511 47.3394 250.8911 48.2634 248.6911 48.4234 246.2851 48.7624 243.9411 49.0874 241.7011 49.4914 239.3221 49.2924 237.0591 49.1114 234.9891 47.5624 233.1771 45.4984 232.7851M62.8431 227.0478C60.7661 226.9558 58.2351 228.4248 58.0591 230.7388 57.9131 232.6428 57.6681 234.4958 57.0861 236.3218 56.6381 237.7298 55.5921 239.9678 55.0461 241.7078 54.1711 244.4988 56.7421 247.8238 59.4831 248.2198 62.7521 248.6948 65.0601 246.7708 65.9971 243.7848 66.5881 241.8968 66.5981 239.8118 66.7481 237.8508 66.9151 235.6558 67.0611 233.4798 67.1551 231.2788 67.2541 229.0238 64.9071 227.1378 62.8431 227.0478M82.3353 214.06C80.1593 213.964 77.5053 215.502 77.3223 217.927 77.1833 219.77 76.9063 221.523 76.3693 223.292 76.3323 223.411 76.2753 223.584 76.2513 223.652 76.0973 224.081 75.9383 224.505 75.7693 224.93 75.2803 226.151 74.7523 227.295 74.4303 228.588 73.7693 231.236 75.6713 233.976 78.1223 234.779 80.6943 235.623 83.5663 234.469 84.7713 231.984 85.7583 229.944 86.0873 227.486 86.3383 225.248 86.6083 222.831 86.7383 221.09 86.8533 218.494 86.9583 216.129 84.4963 214.154 82.3353 214.06M110.6449 201.3032C107.8789 200.7802 105.5549 202.6432 104.8799 205.2292 103.6699 209.8552 101.7849 214.3782 100.7989 219.0472 100.1769 222.0002 102.3269 225.0282 105.2489 225.5802 108.4289 226.1832 110.9609 224.0462 111.7839 221.1312 113.0729 216.5592 113.4989 211.7042 114.5719 207.0662 115.1709 204.4742 113.1869 201.7852 110.6449 201.3032M121.3206 224.6455C119.6516 228.7415 118.4336 233.0215 118.4936 237.4705 118.5266 239.8835 120.7846 241.8785 123.0916 241.9815 125.3416 242.0795 127.9536 240.5105 128.1926 238.0445 128.5416 234.4565 128.7236 231.1335 129.7556 227.4165 131.1006 222.5595 123.2346 219.9495 121.3206 224.6455M30.9876 198.5683C31.2136 202.3203 31.5186 205.9453 31.1296 209.6973 30.8706 212.1693 32.2076 214.5953 34.7996 215.0853 37.1186 215.5253 39.8946 213.9003 40.1896 211.4163 40.7176 206.9673 41.2296 202.3563 40.9606 197.8793 40.5756 191.4473 30.6026 192.1383 30.9876 198.5683M42.0345 160.2553C41.1325 165.7333 41.2635 171.8593 42.6625 177.2433 43.6385 180.9953 50.2135 180.7573 50.4585 176.7053 50.7535 171.7713 51.0665 167.0023 51.7595 162.1003 52.6465 155.8313 43.0755 153.9293 42.0345 160.2553M58.9447 176.603C56.1557 176.795 54.5827 179.111 54.5057 181.699 54.3827 185.736 54.1887 189.71 53.5667 193.706 52.6597 199.527 61.5847 201.273 62.5947 195.418 63.4147 190.667 64.0167 185.867 64.0417 181.04 64.0537 178.458 61.3847 176.434 58.9447 176.603M72.4466 153.5883C71.6346 158.0843 70.8016 162.5713 69.9176 167.0523 68.7156 173.1533 78.1356 174.9483 79.4116 168.8533 80.3446 164.3803 81.3306 159.9213 82.3366 155.4643 83.7596 149.1573 73.6036 147.1843 72.4466 153.5883M90.3304 153.664C89.1274 158.581 88.5384 163.655 87.7594 168.654 86.8074 174.775 95.8454 176.507 97.2184 170.449 98.3374 165.514 99.6584 160.58 100.3514 155.563 101.2534 149.059 91.8934 147.267 90.3304 153.664M119.6048 150.645C116.9328 150.258 114.1858 151.88 113.7018 154.665 113.4318 156.216 113.1618 157.765 112.8938 159.315 112.4408 161.916 113.4918 168.041 116.2188 168.436 118.8918 168.823 121.3658 167.725 122.8168 161.197 123.1588 159.662 123.3558 158.096 123.6258 156.547 124.0778 153.947 122.3328 151.04 119.6048 150.645M123.7591 173.4199C121.2731 173.0589 118.5171 174.5869 118.1311 177.2509 117.8751 179.0269 117.5861 180.7959 117.3631 182.5759 116.6131 188.5359 118.0511 191.5619 120.7031 191.9439 123.1901 192.3049 126.4191 189.1549 126.8231 184.3699 126.9731 182.5849 127.3351 180.8209 127.5911 179.0449 127.9501 176.5569 126.4111 173.8029 123.7591 173.4199M134.2239 189.8086C134.2219 194.7736 134.4389 199.7256 134.3249 204.6936 134.2609 207.4306 137.1719 209.5736 139.7259 209.3966 142.6779 209.1936 144.3539 206.7396 144.4329 203.9956 144.5739 199.0466 144.6559 194.0526 144.1289 189.1236 143.4459 182.7156 134.2249 183.4466 134.2239 189.8086M143.9251 145.3388C141.0821 145.5348 139.1041 148.0168 139.1881 150.7768 139.2801 153.8388 139.4111 156.8998 139.5541 159.9598 139.6781 162.6478 142.3141 165.0318 145.0291 164.7278 147.8591 164.4098 149.9111 162.1218 149.7971 159.2538 149.6731 156.1918 149.5361 153.1318 149.3631 150.0738 149.2081 147.3248 146.6501 145.1518 143.9251 145.3388M137.7357 121.811C134.6007 121.625 132.6747 124.071 132.5597 126.997 132.5387 127.57 132.5067 127.903 132.4077 128.729 132.3127 129.539 132.1947 130.345 132.0537 131.147 131.7747 132.752 131.3987 134.335 130.9577 135.903 130.2637 138.361 132.3687 140.985 134.7217 141.43 137.4657 141.95 139.4897 140.114 140.2507 137.665 141.2777 134.366 141.8997 131.007 142.2597 127.572 142.5627 124.671 140.8407 121.994 137.7357 121.811M109.4154 125.8476C108.8344 128.2486 108.6674 130.7556 108.4284 133.2116 108.1834 135.7376 107.8704 138.3636 108.0564 140.8986 108.2024 142.9076 109.8684 144.5596 111.8784 144.6486 114.0584 144.7436 115.4874 143.3706 116.1174 141.3746 116.8174 139.1626 117.1424 136.8056 117.5714 134.5276 118.0054 132.2356 118.5764 129.9516 118.8104 127.6296 119.4154 121.5656 110.8814 119.7836 109.4154 125.8476M94.9896 119.9443C92.2126 119.4173 90.1476 121.2773 89.3826 123.7633 88.0316 128.1393 87.4986 132.8883 86.6286 137.3863 85.4946 143.2373 94.3136 144.8643 95.6886 139.1053 96.7536 134.6493 98.2306 130.0973 98.8086 125.5493 99.1336 122.9833 97.6456 120.4483 94.9896 119.9443M72.8636 114.7773C70.6006 114.4493 68.0416 115.8433 67.7086 118.2863 67.5536 119.4263 67.4176 120.5673 67.2836 121.7083 66.7826 122.3043 66.4056 123.0283 66.1736 123.8553 65.9056 124.7993 65.9626 125.7993 65.9496 126.7753 65.9466 127.1243 65.9356 127.4743 65.9196 127.8243 65.9066 127.9403 65.8716 128.3703 65.8596 128.4943 65.7086 130.0293 65.4886 131.5713 65.2106 133.0893 64.3676 137.6823 71.3276 140.2783 73.1986 135.7133 74.4806 132.5893 75.6846 128.8543 75.5486 125.3513 75.8426 123.5483 76.1256 121.7443 76.3726 119.9303 76.6826 117.6493 75.3046 115.1293 72.8636 114.7773M85.3763 91.2358C83.1723 90.8188 80.8113 92.3388 80.4393 94.5968 79.8523 98.1678 79.5723 101.7638 79.0843 105.3448 78.6933 108.2118 80.5643 110.8698 83.5623 111.0478 86.3583 111.2138 88.9673 108.8308 88.6833 105.9148 88.3683 102.6878 88.5073 99.4018 88.7383 96.1708 88.9003 93.9008 87.8023 91.6958 85.3763 91.2358M102.2493 89.1005C101.8023 93.0225 100.8043 96.9195 100.4633 100.8385 100.2203 103.6245 101.6433 106.3405 104.5903 106.8985 107.4373 107.4385 110.0153 105.5075 110.6513 102.7705 111.6213 98.5945 111.4603 93.9125 111.4133 89.6435 111.3563 84.4535 102.8473 83.8485 102.2493 89.1005M122.2728 94.5336C121.5648 98.2746 120.8268 102.6696 121.1558 106.4696 121.6568 112.2406 130.1838 112.8726 131.3228 107.0736 132.0608 103.3166 131.8088 98.8866 131.5028 95.0806 131.0848 89.8416 123.2698 89.2656 122.2728 94.5336M149.2493 94.354C146.6763 94.532 144.8403 96.793 144.9363 99.307 145.0443 102.181 145.0153 105.096 145.4283 107.944 145.7993 110.494 147.9033 112.835 150.6873 112.524 153.4143 112.216 155.3673 110.021 155.2683 107.265 155.1643 104.385 154.6103 101.517 154.2013 98.667 153.8463 96.186 151.8803 94.172 149.2493 94.354M157.4847 119.0522C157.0997 123.7052 155.8407 128.8012 156.3597 133.4502 157.0107 139.3042 165.7977 140.2142 166.8927 134.0742 167.7247 129.4182 166.8617 124.3172 166.7817 119.6032 166.6937 114.3672 157.9267 113.6852 157.4847 119.0522M167.0394 79.6796C166.4334 81.9286 166.5554 84.5246 166.2804 86.8466 165.9984 89.2286 165.5814 91.5816 165.0504 93.9196 164.0294 98.4026 171.0524 100.8556 172.8154 96.4706 173.8514 93.8996 174.7604 91.2686 175.5054 88.5966 176.2404 85.9616 177.0524 83.0076 176.8044 80.2586 176.2884 74.5036 168.4754 74.3606 167.0394 79.6796M151.5403 62.6064C150.8533 66.9494 150.5593 71.2744 149.5503 75.5774 148.9463 78.1514 150.9293 80.8244 153.4493 81.3014 156.1973 81.8224 158.5023 79.9704 159.1763 77.4034 160.3773 72.8174 161.4133 67.9434 161.2733 63.1834 161.1073 57.6274 152.4163 57.0824 151.5403 62.6064M133.1859 66.6889C132.5919 70.6379 132.5919 74.4909 131.5379 78.3849 130.9109 80.6999 132.8469 83.1549 135.0739 83.5769 137.6229 84.0599 139.5869 82.3499 140.2679 80.0409 141.4809 75.9209 142.7789 71.5849 142.7179 67.2539 142.6429 61.8079 133.9989 61.2859 133.1859 66.6889M116.5775 57.354C115.9355 61.546 115.8175 65.746 114.9325 69.919 113.9795 74.416 121.1795 77.045 122.7965 72.501 124.4655 67.812 125.9885 62.931 126.0095 57.913 126.0305 52.503 117.3905 52.036 116.5775 57.354M104.9154 62.125C101.9364 61.146 99.5294 63.022 98.6504 65.787 97.1234 70.601 95.8474 75.48 94.8194 80.425 93.6764 85.929 101.7954 87.291 103.2854 82.031 104.5574 77.536 106.0614 73.13 107.7854 68.788 108.8534 66.1 107.8134 63.079 104.9154 62.125M141.3089 34.4746C140.3209 36.5446 139.6869 38.8346 138.9229 40.9966 138.0949 43.3386 137.0689 45.7356 136.5999 48.1756 135.5509 53.6346 143.7969 56.6286 146.0509 51.2796 147.0239 48.9746 147.5489 46.4536 148.1649 44.0346 148.7309 41.8056 149.4769 39.5416 149.8069 37.2666 150.5229 32.3216 143.5779 29.7186 141.3089 34.4746M165.2171 31.4726C162.6591 30.9886 160.6561 32.7046 159.9841 35.0356 158.8401 39.0016 157.0721 42.8586 156.2351 46.9036 155.7311 49.3256 157.2851 51.8366 159.6091 52.5616 161.7461 53.2276 164.8871 52.4096 165.6851 50.0076 167.1221 45.6786 167.6781 41.1226 168.7801 36.7036 169.3661 34.3596 167.4951 31.9046 165.2171 31.4726M181.6507 51.8295C178.9977 51.6735 177.0467 53.4345 176.3567 55.9135 175.9057 57.5315 175.8097 59.2185 175.6297 60.8815 175.4247 62.7665 175.0227 64.6895 175.1027 66.5855 175.3107 71.3395 182.4887 72.8935 184.3737 68.3605 185.1447 66.5105 185.4457 64.4915 185.8127 62.5285 186.1837 60.5445 186.5047 58.5365 186.4227 56.5105 186.3207 53.9765 184.0937 51.9725 181.6507 51.8295M192.303 29.7397C189.737 29.5887 188.071 31.2547 187.3 33.5487 187.198 33.8827 186.949 34.6747 186.922 34.7867 186.832 35.1787 186.777 35.5807 186.701 35.9777 186.55 36.7697 186.378 37.5587 186.214 38.3487 185.833 40.1677 185.341 41.9287 185.288 43.7937 185.235 45.7467 187.163 47.7487 189.042 48.0217 191.206 48.3347 192.983 47.3187 194.078 45.4777 195.004 43.9197 195.433 41.6977 195.896 39.9397 196.401 38.0107 196.74 36.1837 196.838 34.1887 196.955 31.7927 194.461 29.8657 192.303 29.7397"/>
    <path d="M187.2728 33.6216C187.2808 33.5946 187.2928 33.5746 187.2998 33.5486 187.3588 33.3646 187.3718 33.3166 187.2728 33.6216M213.6526 32.7754C210.9646 32.2674 208.6126 34.0834 207.9856 36.6344 207.0866 40.2944 206.1226 44.0214 205.6056 47.7584 205.2216 50.5374 206.8876 53.2974 209.7476 53.8384 212.5896 54.3764 215.2086 52.4474 215.8276 49.6974 216.6576 46.0164 217.0656 42.1854 217.5106 38.4394 217.8196 35.8434 216.3506 33.2854 213.6526 32.7754M238.3763 32.8774C235.7333 32.3774 233.7443 34.1464 233.0233 36.5214 231.7523 40.7064 230.0323 44.7064 228.5533 48.8174 227.6223 51.4054 228.2803 54.3404 230.9453 55.6224 233.3353 56.7714 236.6813 55.7794 237.7523 53.2294 239.7593 48.4484 240.9853 43.2964 242.0203 38.2284 242.5133 35.8074 240.7793 33.3334 238.3763 32.8774M202.3255 66.9707C199.6955 66.5897 197.4075 68.1557 196.7965 70.7357 196.0445 73.9087 195.0965 77.1027 194.6065 80.3277 194.2315 82.7967 195.7915 85.5337 198.4105 85.9137 201.1815 86.3157 203.2385 84.6817 203.9995 82.1097 204.9255 78.9807 205.4225 75.6907 206.0905 72.4977 206.5965 70.0737 204.8205 67.3317 202.3255 66.9707M223.137 66.9628C220.929 67.1158 219.429 68.7458 218.846 70.7708 218.316 72.6148 218.316 74.7018 218.145 76.6118 217.955 78.7258 217.458 81.0148 217.699 83.1258 217.984 85.6298 219.886 87.6938 222.471 87.8058 225.145 87.9238 227.044 86.2278 227.765 83.7218 228.368 81.6228 228.182 79.0568 228.262 76.8638 228.343 74.5838 228.363 72.3858 227.908 70.1448 227.504 68.1398 225.027 66.8318 223.137 66.9628M269.7747 71.0722C267.5677 71.2252 266.0667 72.8552 265.4847 74.8802 264.9537 76.7242 264.9547 78.8112 264.7837 80.7212 264.5927 82.8352 264.0967 85.1242 264.3367 87.2342 264.6217 89.7392 266.5237 91.8032 269.1087 91.9152 271.7827 92.0332 273.6817 90.3372 274.4037 87.8312 275.0057 85.7322 274.8197 83.1662 274.8997 80.9732 274.9817 78.6932 275.0007 76.4952 274.5467 74.2542 274.1427 72.2492 271.6657 70.9412 269.7747 71.0722M294.4446 66.5561C292.2376 66.7091 290.7366 68.3391 290.1546 70.3641 289.6236 72.2081 289.6246 74.2951 289.4536 76.2051 289.2626 78.3191 288.7666 80.6081 289.0066 82.7181 289.2916 85.2231 291.1936 87.2871 293.7786 87.3991 296.4526 87.5171 298.3516 85.8211 299.0736 83.3151 299.6766 81.2161 299.4896 78.6501 299.5696 76.4571 299.6516 74.1771 299.6706 71.9791 299.2166 69.7381 298.8126 67.7331 296.3356 66.4251 294.4446 66.5561M275.178 44.789C272.971 44.942 271.47 46.572 270.888 48.597 270.357 50.441 270.358 52.528 270.187 54.438 269.996 56.552 269.5 58.841 269.74 60.952 270.026 63.456 271.927 65.52 274.512 65.632 277.187 65.75 279.085 64.054 279.807 61.548 280.41 59.449 280.223 56.883 280.303 54.69 280.385 52.41 280.404 50.212 279.95 47.971 279.546 45.966 277.069 44.658 275.178 44.789M256.5491 41.5361C254.1461 41.0811 252.4051 42.6871 251.7291 44.8181 250.5131 48.6431 248.6971 52.2961 248.1091 56.3061 247.7161 58.9751 249.3571 61.6321 252.0881 62.1501 254.7931 62.6621 257.3721 60.8211 257.9321 58.1701 258.7571 54.2741 258.7731 50.2091 259.8291 46.3551 260.4191 44.2091 258.6111 41.9261 256.5491 41.5361M239.7366 78.1084C239.2556 83.7254 238.5936 89.3594 238.5136 95.0004 238.4326 100.6194 247.6916 101.1994 248.3796 95.5854 249.0626 89.9904 249.1496 84.3114 249.4346 78.6834 249.7146 73.1894 240.2116 72.5614 239.7366 78.1084M185.8704 95.8139C183.1994 95.9979 181.5544 98.2589 181.5404 100.7849 181.5164 104.9079 181.0804 109.0139 180.9524 113.1339 180.7814 118.6989 190.1964 119.3119 190.7524 113.7169 191.2024 109.1769 191.0124 104.6899 190.8414 100.1419 190.7464 97.6259 188.3264 95.6439 185.8704 95.8139M202.7503 105.1147C201.6983 110.3387 200.6293 115.7397 200.5563 121.0797 200.4793 126.6937 209.3833 127.1027 210.2883 121.6577 211.1003 116.7717 211.3753 111.8027 212.2103 106.9077 213.2493 100.8087 203.9773 99.0187 202.7503 105.1147M229.0648 106.6572C226.5728 106.1852 223.7478 107.9172 223.3778 110.5302 222.8828 114.0172 222.2608 117.4842 221.8868 120.9872 221.5958 123.7122 223.0808 126.3882 225.9328 126.9282 228.5268 127.4202 231.5038 125.6142 231.8778 122.8812 232.3538 119.3822 232.5808 115.8552 232.9368 112.3422 233.2018 109.7322 231.8038 107.1752 229.0648 106.6572M210.7025 140.0869C209.7555 142.7799 209.1945 145.5809 208.3405 148.3039 207.4725 151.0659 206.3085 153.7509 205.6085 156.5619 204.1845 162.2749 212.5365 164.6069 215.1245 159.6879 216.5505 156.9779 217.3365 153.7769 217.9555 150.7869 218.5675 147.8289 219.1345 144.7079 219.0115 141.6789 218.8455 137.5439 212.1875 135.8639 210.7025 140.0869M191.5618 137.9453C190.7198 140.4013 189.8778 142.8563 189.0378 145.3123 188.6168 146.5403 188.1888 147.7663 187.7748 148.9953 187.5348 149.7003 187.3008 150.4073 187.0708 151.1153 183.0548 153.5003 184.7498 160.3533 189.8908 160.0703 194.4918 159.8143 195.8938 155.8283 197.0038 152.0283 198.0948 148.2873 199.1468 144.5353 200.2188 140.7883 201.6318 135.8513 193.2558 133.0033 191.5618 137.9453M174.8909 135.0683C174.0119 138.9733 173.1199 142.8683 172.3749 146.8013 171.2669 152.6733 180.3359 154.4113 181.5039 148.5333 182.2839 144.6073 182.9119 140.6623 183.5559 136.7123 184.4679 131.1103 176.1409 129.5233 174.8909 135.0683M157.6263 161.9209C156.6053 166.9139 156.7533 172.7799 157.3953 177.8249 158.2013 184.1759 167.6943 183.6139 167.3693 177.1369 167.1263 172.3009 167.0643 167.2409 166.4573 162.4449 165.8313 157.5219 158.6753 156.7989 157.6263 161.9209M61.4232 140.125C58.6912 139.965 56.9042 141.758 56.1122 144.223 55.4882 146.163 55.6942 148.367 55.7182 150.386 55.7412 152.368 55.7992 154.309 56.3782 156.223 57.4022 159.612 62.3782 159.813 63.8462 156.68 64.6932 154.871 65.0312 152.904 65.4252 150.963 65.8362 148.933 66.3832 146.913 66.2112 144.823 66.0022 142.281 63.9572 140.274 61.4232 140.125M263.6693 137.4326C263.7703 141.4246 264.4403 145.2196 264.0763 149.2366 263.8603 151.6266 266.1943 153.7076 268.4613 153.7366 271.0553 153.7686 272.6923 151.7446 272.9623 149.3516 273.4403 145.0846 273.9663 140.5886 273.1543 136.3336 272.1353 130.9836 263.5313 131.9706 263.6693 137.4326M245.6917 131.124C245.7877 135.364 246.4007 139.52 246.2537 143.783 246.0957 148.377 253.6427 149.716 254.4457 144.96 255.2757 140.053 255.9287 134.982 255.0777 130.037 254.1587 124.706 245.5697 125.745 245.6917 131.124M235.0355 137.8471C231.9325 137.3991 229.8875 139.6661 229.5025 142.5411 228.8335 147.5471 228.4245 152.5751 228.2705 157.6221 228.0995 163.2411 236.3335 163.1721 236.8865 157.7331 237.3585 153.0861 238.0745 148.4871 239.0185 143.9101 239.6035 141.0771 238.0555 138.2841 235.0355 137.8471M265.8607 104.3955C265.2477 106.6055 265.0197 108.9715 264.6437 111.2335 264.2357 113.6835 263.6407 116.2215 263.6027 118.7055 263.5177 124.2635 272.1587 125.7805 273.4497 120.1215 274.0067 117.6825 274.0867 115.1095 274.2727 112.6195 274.4427 110.3255 274.7857 107.9675 274.7147 105.6685 274.5607 100.6755 267.2687 99.3175 265.8607 104.3955M250.762 100.3901C250.149 102.6001 249.922 104.9651 249.545 107.2281 249.137 109.6781 248.542 112.2161 248.504 114.7001 248.42 120.2581 257.06 121.7751 258.351 116.1161 258.908 113.6771 258.989 111.1031 259.175 108.6141 259.345 106.3201 259.687 103.9621 259.616 101.6631 259.462 96.6701 252.171 95.3121 250.762 100.3901M289.098 97.1889C286.495 97.1569 284.821 99.1949 284.564 101.6069 284.125 105.7109 283.055 109.8169 282.931 113.9449 282.856 116.4179 284.824 118.6219 287.237 118.9319 289.458 119.2169 292.41 117.8659 292.778 115.3619 293.442 110.8479 293.198 106.2659 293.516 101.7229 293.686 99.3119 291.416 97.2199 289.098 97.1889M311.1927 95.4755C311.1957 95.4475 311.2027 95.4255 311.2067 95.3995 311.2317 95.2065 311.2367 95.1585 311.1927 95.4755M155.3284 205.7373C153.8554 209.1603 153.1334 213.0263 152.2814 216.6423 150.9344 222.3693 159.9734 224.1743 161.2334 218.4323 162.0364 214.7793 162.9864 211.0303 163.1424 207.2853 163.3154 203.1283 156.8884 202.1133 155.3284 205.7373M141.178 228.2211C140.032 232.7441 138.554 237.1541 137.292 241.6401 135.926 246.4931 143.932 249.2731 145.726 244.4881 147.493 239.7721 148.6 234.8311 149.438 229.8731 150.347 224.4981 142.506 222.9811 141.178 228.2211M178.3196 177.4038C177.4696 181.7098 176.5966 186.0368 176.0156 190.3888 175.2516 196.1288 183.7926 197.9478 184.9086 192.1668 185.7416 187.8518 186.2876 183.4668 186.8496 179.1098 187.5606 173.6048 179.4146 171.8558 178.3196 177.4038M201.1146 162.5332C198.9076 162.4212 197.2076 163.8152 196.6386 165.9232 195.8856 168.7142 195.5636 171.7622 195.2546 174.6352 194.9906 177.0842 196.2666 179.4912 198.8356 180.0062 201.1526 180.4702 203.8566 178.8742 204.2066 176.4252 204.6676 173.1982 205.1406 169.7532 205.0936 166.4932 205.0636 164.3882 203.1346 162.6362 201.1146 162.5332M152.9505 6.334C151.5675 4.792 148.9405 4.253 147.1995 5.613 144.7345 7.54 142.6175 10.017 141.5615 13.002 140.7565 15.278 141.2225 18.111 143.6905 19.187 145.8365 20.122 148.9335 19.463 149.8765 17.057 150.2495 16.104 150.6795 15.179 151.2045 14.3 151.2985 14.189 151.6635 13.671 151.7925 13.509 152.1785 13.021 152.5965 12.567 153.0375 12.129 154.5935 10.586 154.3075 7.849 152.9505 6.334M249.3167 1.0127C247.4977-.4183 244.7537-.3933 243.2047 1.4727 241.3537 3.7017 239.6517 6.0607 238.1987 8.5687 237.0257 10.5927 238.1507 13.6127 240.2507 14.5277 242.6327 15.5657 244.9117 14.6087 246.2097 12.4757 246.7867 11.5277 247.3597 10.5727 247.9677 9.6437 247.9507 9.6727 248.0237 9.5667 248.2087 9.2897 248.3767 9.0447 248.5467 8.8017 248.7187 8.5587 249.0637 8.0747 249.4187 7.5987 249.7767 7.1247 251.1427 5.3207 251.2357 2.5217 249.3167 1.0127M269.0423 6.31C267.1783 4.843 264.8713 5.118 263.2333 6.747 261.2953 8.676 259.7533 10.917 258.4693 13.329 257.3663 15.398 258.3663 18.367 260.5273 19.309 262.6863 20.249 265.4903 19.532 266.5073 17.249 266.9563 16.241 267.4533 15.258 268.0213 14.31 268.2743 13.89 268.5363 13.472 268.8043 13.059 268.7873 13.104 269.4083 12.216 269.4793 12.12 270.7633 10.393 270.8773 7.753 269.0423 6.31M291.8607 17.1362C290.1767 16.0652 287.3897 16.0812 286.1317 17.9112 284.3647 20.4782 282.7547 23.1182 281.5567 26.0002 280.6287 28.2332 281.3017 31.1452 283.6857 32.1852 285.8397 33.1232 288.9187 32.4572 289.8717 30.0552 290.8777 27.5182 292.0217 25.0542 293.4147 22.7042 294.5167 20.8432 293.5717 18.2252 291.8607 17.1362M318.3392 26.7905C316.7972 25.8105 314.4342 25.8955 313.2502 27.4795 311.4982 29.8235 309.7462 32.1665 307.9942 34.5095 306.4812 36.5355 306.6742 39.3275 308.8992 40.7905 311.1762 42.2895 313.6642 41.2765 315.0242 39.1355 316.5892 36.6695 318.1542 34.2035 319.7192 31.7365 320.7482 30.1165 319.8212 27.7335 318.3392 26.7905M308.1536 48.979C305.7856 47.824 303.4416 48.983 302.1536 51.045 300.5716 53.577 298.9156 56.09 297.5156 58.729 296.3376 60.951 297.4526 63.878 299.6596 64.955 302.1206 66.155 304.5436 64.947 305.8846 62.811 307.4686 60.288 308.8176 57.606 310.2186 54.979 311.3606 52.84 310.2756 50.014 308.1536 48.979M338.136 34.0747C335.814 32.9417 333.524 34.0797 332.259 36.0977 330.272 39.2677 328.694 42.5737 327.613 46.1577 326.166 50.9577 334.102 53.6567 335.96 48.9757 337.193 45.8707 338.466 42.8407 340.159 39.9517 341.36 37.9027 340.155 35.0587 338.136 34.0747M336.8431 56.4116C335.1661 55.3446 332.4131 55.3696 331.1551 57.1816 329.2891 59.8656 327.3841 62.5196 325.6811 65.3106 324.5301 67.1956 325.5381 69.8956 327.2671 70.9956 328.9981 72.0966 331.8131 72.0606 333.1161 70.2036 334.9951 67.5276 336.6701 64.7226 338.3861 61.9406 339.5141 60.1136 338.5181 57.4766 336.8431 56.4116M353.553 46.2739C350.941 49.7589 348.787 53.6449 347.282 57.7319 346.519 59.8029 347.038 62.1629 349.163 63.1989 351.042 64.1149 353.802 63.3739 354.63 61.3169 356.147 57.5499 357.916 53.9929 359.921 50.4639 362.056 46.7069 356.181 42.7689 353.553 46.2739M352.8773 70.6049C350.7373 69.6729 348.0743 70.4049 347.0413 72.6149 346.7363 73.2659 346.4093 73.9049 346.0483 74.5269 345.9683 74.6659 345.6663 75.3569 345.5233 75.3869 345.8863 74.8409 345.9343 74.7639 345.6683 75.1549 345.5593 75.3119 345.4473 75.4679 345.3343 75.6219 344.6413 76.5789 344.1893 77.5919 344.2653 78.8069 344.3343 79.9109 344.9223 81.2109 345.8083 81.9069 346.6973 82.6069 347.8343 83.1019 348.9923 82.9769 350.1003 82.8569 351.4453 82.4069 352.0933 81.4339 353.1613 79.8299 354.1393 78.2209 354.8863 76.4409 355.7703 74.3359 355.1213 71.5839 352.8773 70.6049M378.4847 61.8164C376.5377 60.2844 374.2207 60.6194 372.5027 62.2674 370.5317 64.1564 368.9397 66.2844 367.4757 68.5814 366.2247 70.5424 367.4917 73.6184 369.5127 74.4994 371.8227 75.5054 374.2117 74.6174 375.4307 72.4614 375.6747 72.0304 375.9317 71.6094 376.1887 71.1864 376.2097 71.1564 376.2227 71.1354 376.2487 71.0994 376.4347 70.8364 376.6217 70.5724 376.8147 70.3134 377.4717 69.4334 378.1837 68.5994 378.9357 67.7984 380.4567 66.1784 380.2317 63.1904 378.4847 61.8164M366.6009 85.8442C364.9329 84.7832 362.0609 84.7602 360.8309 86.6252 358.9489 89.4832 357.1809 92.3602 355.8719 95.5312 354.9309 97.8082 355.6609 100.5062 357.9719 101.6342 360.1669 102.7042 363.0269 101.7722 364.0749 99.5322 365.3559 96.7962 366.6559 94.0702 368.1649 91.4512 369.2549 89.5632 368.3409 86.9512 366.6009 85.8442M387.5413 83.9926C385.8273 82.6446 382.8453 82.4846 381.4293 84.4526 379.8543 86.6426 378.4353 88.9206 377.2613 91.3496 376.2603 93.4226 377.1023 96.2756 379.2843 97.2266 381.4613 98.1756 384.0943 97.4156 385.1613 95.2026 385.6353 94.2236 386.1423 93.2646 386.6763 92.3176 386.9253 91.8766 387.1763 91.4366 387.4383 91.0036 387.5883 90.7566 387.7413 90.5106 387.8953 90.2656 387.6783 90.5866 387.7133 90.5326 388.0023 90.1046 389.2633 88.2296 389.5313 85.5576 387.5413 83.9926M368.721 116.9121C366.337 115.8721 363.855 116.7871 362.598 119.0201 361.393 121.1631 360.077 123.2661 359.154 125.5471 358.301 127.6501 358.79 129.9831 360.75 131.2711 362.464 132.3971 365.36 132.3351 366.64 130.4741 368.267 128.1081 369.517 125.5831 370.829 123.0351 371.928 120.9011 370.955 117.8861 368.721 116.9121M392.9095 107.6015C391.1305 106.2025 388.0035 106.0225 386.5375 108.0815L383.2065 112.7615C381.8065 114.7275 381.6095 117.6435 383.6975 119.2855 385.4595 120.6715 388.8005 120.9565 390.2215 118.7935 391.2775 117.1865 392.3335 115.5805 393.3895 113.9735 394.0675 112.9435 394.5555 112.0305 394.4735 110.7455 394.4035 109.6255 393.8075 108.3075 392.9095 107.6015M374.0355 134.3691C372.2745 133.2121 369.1825 133.2341 367.8865 135.2021 366.4695 137.3521 365.0145 139.4811 363.7105 141.7031 362.5185 143.7341 363.5515 146.4951 365.3835 147.6991 367.1795 148.8791 370.2115 148.8131 371.5535 146.8641 373.0145 144.7391 374.3535 142.5431 375.7035 140.3461 376.9315 138.3481 375.8315 135.5491 374.0355 134.3691M63.1771 262.8129C62.9241 259.7409 58.8851 258.2049 56.8311 260.6839 55.6161 262.1479 55.0191 264.0119 54.5101 265.8209 54.0311 267.5279 53.5231 269.3949 53.7201 271.1749 54.2721 276.1429 61.0051 276.5029 62.2971 271.7539 62.6701 270.3809 62.5591 268.8819 62.7391 267.4669 62.9331 265.9419 63.3031 264.3499 63.1771 262.8129M84.3079 267.7587C83.6699 263.2357 77.5429 262.7127 76.3389 267.2207 75.4469 270.5617 75.1619 274.0947 74.4249 277.4827 73.1069 283.5407 83.0319 285.3907 83.7679 279.3507 84.2239 275.6137 84.8369 271.5087 84.3079 267.7587M85.5042 240.7143C83.4882 240.6113 81.4372 241.9483 81.0932 244.0553 80.6422 246.8223 80.1212 249.5653 79.5672 252.3133 78.9912 255.1633 81.1322 257.8593 83.9902 258.0513 87.0342 258.2563 89.0962 255.8613 89.1462 252.9593 89.1932 250.1733 89.2752 247.4003 89.4272 244.6173 89.5392 242.5533 87.3862 240.8103 85.5042 240.7143M101.806 237.4834C99.883 241.2614 98.262 245.7824 97.306 249.9034 95.78 256.4804 106.337 258.5984 107.582 251.9584 108.32 248.0244 109.068 244.1244 109.865 240.2034 110.841 235.3954 104.011 233.1494 101.806 237.4834M100.5531 262.4926C98.4191 262.3846 96.3241 263.7876 95.9331 265.9926 95.6601 267.5256 95.3691 269.0576 95.0321 270.5786 94.6981 272.0946 94.1011 273.5966 93.8791 275.1236 93.4991 277.7426 95.0341 280.3526 97.7261 280.8916 100.5801 281.4636 102.6681 279.5706 103.4931 277.0456 104.5311 273.8726 104.5321 269.8896 104.6611 266.5806 104.7451 264.4156 102.5491 262.5946 100.5531 262.4926M125.8333 252.4082C124.9753 247.3702 118.5363 246.8742 117.0143 251.8132 116.2153 254.4052 115.4563 256.1992 114.2943 258.7642 113.1313 261.3342 114.1123 264.4882 116.6993 265.7492 119.4583 267.0952 122.1833 265.7432 123.6853 263.3452 125.5433 260.3752 126.4233 255.8632 125.8333 252.4082M46.3988 263.977C46.1858 259.61 39.5448 258.007 37.7988 262.273 37.2188 263.69 36.8838 265.162 36.3488 266.495 35.7858 267.9 35.1358 269.261 34.5908 270.673 33.5978 273.25 34.3138 276.23 36.9478 277.515 39.5198 278.77 42.4728 277.599 43.7888 275.159 45.5118 271.962 46.5778 267.63 46.3988 263.977M23.8509 236.2402C22.4199 239.6122 20.9899 242.9832 19.5599 246.3542 18.4699 248.9212 19.5369 251.8662 22.2769 252.7922 24.9949 253.7092 27.6579 252.0362 28.3389 249.3182 29.2319 245.7642 30.1229 242.2122 31.0159 238.6592 32.0619 234.4902 25.5469 232.2412 23.8509 236.2402M23.5765 210.3603C22.2645 209.5253 20.1015 209.2483 18.8145 210.3753 16.9505 212.0073 15.7195 214.1223 14.4065 216.2153 13.1505 218.2183 11.7765 220.1283 11.2485 222.4683 10.7825 224.5363 11.9725 226.8023 13.8485 227.7173 15.8675 228.7023 18.0545 228.0433 19.5865 226.5353 21.1475 224.9983 22.0235 222.7413 22.9755 220.7983 23.9115 218.8913 25.0985 216.8633 25.4435 214.7543 25.7225 213.0483 25.0585 211.3033 23.5765 210.3603M46.7874 119.7407C45.2894 123.2077 43.6824 126.5517 41.8934 129.8797 40.6284 132.2327 42.0674 135.1867 44.4754 135.9997 47.1624 136.9067 49.4614 135.2357 50.2404 132.6977 51.2454 129.4247 52.3904 126.2707 53.6674 123.0957 55.4914 118.5647 48.7574 115.1827 46.7874 119.7407M63.2562 97.8403C61.2242 97.1893 58.6982 98.0013 57.8002 100.0903 57.2172 101.4443 56.5692 102.7643 55.8242 104.0373 55.1262 105.2293 54.2112 106.2663 53.4152 107.7583 50.7952 112.6723 57.9102 117.2463 61.4862 113.0693 63.8632 110.2943 65.1732 106.3703 66.2342 102.9373 66.8852 100.8273 65.1952 98.4613 63.2562 97.8403M72.8587 74.5366C72.2217 75.2056 71.7367 76.0106 71.2367 76.7846 71.0837 77.0316 70.9267 77.2766 70.7697 77.5206 70.8007 77.4686 70.7087 77.6046 70.4777 77.9496 69.6707 79.0956 68.8577 80.2386 68.0227 81.3646 66.4467 83.4906 66.3007 86.7376 68.5607 88.5156 70.5397 90.0716 74.0927 90.3056 75.7127 87.9766 77.6857 85.1406 80.0277 81.8276 80.7427 78.3816 81.6997 73.7686 75.8947 71.3486 72.8587 74.5366M40.1927 142.228C37.6837 141.004 35.2877 142.252 33.9057 144.393 31.9027 147.495 30.2727 150.895 28.7697 154.264 26.1997 160.023 34.6857 164.191 37.5807 158.561 39.2687 155.277 40.9907 151.946 42.3577 148.515 43.2967 146.157 42.5947 143.399 40.1927 142.228M32.0452 173.1054C30.1152 172.1644 27.2332 172.9184 26.3942 175.0514 24.5802 179.6554 22.0962 183.9774 20.5792 188.6914 18.8982 193.9204 27.4052 196.6544 29.6192 191.7434 31.4932 187.5844 32.3882 183.0254 33.9902 178.7564 34.7922 176.6214 34.2332 174.1724 32.0452 173.1054M92.2591 53.4311C89.9281 52.2941 87.5301 53.4141 86.2801 55.4901 85.3271 57.0721 84.3881 58.6631 83.4141 60.2321 82.9591 60.9661 82.4951 61.6951 82.0361 62.4261 81.7931 62.8141 80.5741 64.0541 81.6521 63.2981 77.8331 65.9771 79.9921 71.9911 84.5851 71.8161 87.9791 71.6881 89.2931 68.8361 90.6571 66.2211 91.8501 63.9351 93.0831 61.6731 94.3191 59.4101 95.4761 57.2901 94.3601 54.4551 92.2591 53.4311M111.8324 36.2998C110.3974 35.3568 108.0224 35.1068 106.6104 36.3158 105.9284 36.9008 105.2814 37.4688 104.7624 38.2058 104.4214 38.6878 104.1164 39.1958 103.8004 39.6958 103.7634 39.7548 103.4744 40.2088 103.3524 40.4058 103.2464 40.5608 103.0754 40.8148 103.0494 40.8538 102.8654 41.1198 102.6784 41.3838 102.4894 41.6478 102.0624 42.2388 101.6214 42.8198 101.1734 43.3948 99.4984 45.5408 99.4424 48.9448 101.7264 50.7408 103.7524 52.3348 107.4164 52.5858 109.0724 50.1878 110.0604 48.7578 111.0204 47.3048 111.9014 45.8068 112.7484 44.3698 113.6864 42.7998 113.8804 41.1178 114.1024 39.1928 113.5154 37.4048 111.8324 36.2998M127.514 24.5005C125.977 27.4435 124.439 30.3865 122.901 33.3305 121.648 35.7285 122.824 38.8645 125.207 40.0275 127.581 41.1855 130.798 40.2005 131.905 37.7215 133.259 34.6885 134.613 31.6555 135.966 28.6235 138.435 23.0935 130.325 19.1225 127.514 24.5005M165.4739 11.4638C163.5299 9.7928 160.5439 10.0568 158.8639 11.9618 156.4949 14.6458 153.6359 18.2078 152.9749 21.8148 152.5939 23.8918 153.6359 26.0798 155.5499 27.0128 157.3529 27.8928 159.9809 27.5138 161.2319 25.8418 162.2919 24.4248 162.9239 22.8078 163.7859 21.2728 164.4499 20.0868 164.9809 19.3218 165.9719 18.0738 167.5439 16.0938 167.4469 13.1588 165.4739 11.4638M185.2581 6.9902C182.9491 6.2502 180.9951 7.3022 179.7451 9.2632 177.5371 12.7272 175.5171 16.7502 173.9991 20.5672 171.6031 26.5942 180.1101 30.9192 183.1421 25.0262 185.2021 21.0202 186.9981 16.4572 188.2661 12.1392 188.8951 9.9972 187.2391 7.6252 185.2581 6.9902M207.4671 5.6152C205.4591 5.2132 203.8531 6.3182 202.8071 7.9242 201.9701 9.2082 201.5011 10.7542 200.8601 12.1462 200.2081 13.5612 199.5071 14.9502 198.7711 16.3232 197.5251 18.6502 198.7121 21.7312 201.0211 22.8572 203.2791 23.9582 206.5471 23.0582 207.5541 20.6072 208.9951 17.0992 210.6421 13.3312 210.8821 9.5242 210.9991 7.6782 209.1481 5.9522 207.4671 5.6152M223.2708 12.9502C221.3968 16.0232 219.6818 19.1602 217.7118 22.1752 216.3318 24.2892 217.7938 27.4132 219.8628 28.4222 222.0248 29.4762 225.1428 28.6132 226.1088 26.2712 227.4778 22.9532 229.0928 19.7782 230.5638 16.5082 232.7438 11.6642 225.9548 8.5492 223.2708 12.9502M248.8607 20.3667C246.4647 19.3227 243.9027 20.2257 242.6547 22.5037 242.0327 23.6397 241.4167 24.7737 240.8377 25.9327 239.7277 28.1507 240.6877 31.2467 243.0157 32.2617 245.3857 33.2947 248.1617 32.4487 249.3447 30.0817 249.9237 28.9237 250.4627 27.7507 250.9967 26.5717 252.0007 24.3607 251.2027 21.3877 248.8607 20.3667M271.8968 24.5576C269.8658 23.6726 266.7728 24.2696 265.9168 26.6166L263.7778 32.4846C263.0128 34.5806 263.4788 37.2096 265.7448 38.1976 267.7958 39.0926 270.4988 38.4166 271.4578 36.2306 272.2908 34.3326 273.1228 32.4346 273.9558 30.5366 274.8948 28.3946 274.1718 25.5496 271.8968 24.5576M295.4808 38.8603C293.9228 38.3333 292.5008 38.8673 291.3478 39.9653 290.3688 40.8993 289.7798 42.2053 289.1418 43.3843 288.5798 44.4253 288.0608 45.4763 287.5848 46.5593 286.6428 48.7013 287.3688 51.5473 289.6428 52.5383 291.7928 53.4753 294.6178 52.7673 295.6238 50.4793 296.7428 47.9313 298.0478 45.0313 298.0978 42.2313 298.1258 40.7093 296.8258 39.3153 295.4808 38.8603M317.5179 57.6503C315.9259 56.6383 313.5389 56.7463 312.3089 58.3553 310.0989 61.2453 308.4559 64.6593 306.8269 67.8983 305.7259 70.0863 306.7329 72.8963 308.9139 73.9603 310.9219 74.9393 314.1529 74.1923 314.9749 71.8733 316.0949 68.7133 317.6719 65.8033 318.9309 62.7133 319.6789 60.8753 319.2639 58.7603 317.5179 57.6503M331.7679 74.2246C329.9849 73.0526 327.1139 73.1706 325.7589 75.0376 324.1069 77.3136 322.2299 79.5406 320.8509 81.9916 319.6689 84.0926 320.6609 86.8736 322.5619 88.1236 324.4889 89.3896 327.3729 89.1796 328.8719 87.2696 330.6039 85.0626 331.9309 82.4576 333.3979 80.0646 334.5949 78.1116 333.5249 75.3786 331.7679 74.2246M344.5657 83.7065C342.1087 82.6355 339.7077 83.6105 338.3797 85.8355 337.0757 88.0255 335.7317 90.1935 334.5387 92.4465 333.3807 94.6315 334.4267 97.7585 336.7107 98.7535 339.2237 99.8495 341.6557 98.8465 343.0187 96.5815 344.3317 94.4015 345.4947 92.1355 346.6947 89.8915 347.8387 87.7525 346.7967 84.6795 344.5657 83.7065M309.3978 103.7817C309.6808 101.5317 310.1058 99.3047 310.5878 97.0887 311.7718 91.6477 303.6688 90.1797 302.2078 95.4127 301.2278 98.9237 300.3668 102.5207 299.8828 106.1367 299.4128 109.6547 300.0588 112.4077 303.2238 114.3107 307.4478 116.8497 311.1568 111.2937 309.0318 107.6927 308.8708 106.5427 309.2558 104.9137 309.3978 103.7817M323.47 102.4169C321.321 102.3079 318.988 103.7539 318.673 106.0499 318.327 108.5769 317.685 111.0079 317.14 113.4929 316.583 116.0319 318.419 118.9259 321.034 119.3339 323.797 119.7639 326.202 118.1329 326.874 115.4389 327.581 112.6059 327.694 109.5699 327.736 106.6619 327.768 104.4089 325.584 102.5239 323.47 102.4169M348.386 105.2421C346.224 104.5501 344.251 105.5101 343.115 107.4151 341.119 110.7641 339.42 114.6761 338.337 118.4111 337.679 120.6791 339.416 123.1831 341.518 123.8571 343.799 124.5871 346.239 123.6271 347.348 121.4531 349.079 118.0581 350.444 113.8971 351.261 110.1651 351.719 108.0731 350.389 105.8841 348.386 105.2421M295.4222 131.5454C295.1102 125.9514 286.9832 126.6484 286.8612 132.0824 286.7862 135.4184 286.1652 138.6014 285.4512 141.8504 284.1522 147.7564 293.3582 149.5794 294.6442 143.6884 295.5052 139.7444 295.6472 135.5654 295.4222 131.5454M304.2532 129.4799C303.5142 132.6799 302.8622 136.0419 302.9422 139.3379 303.0712 144.6719 311.7332 145.4039 312.3992 139.9769 312.7552 137.0759 312.8192 134.1809 313.2952 131.2879 314.2612 125.4239 305.5912 123.6899 304.2532 129.4799M322.303 130.3603C320.114 129.9223 318.316 131.3813 317.744 133.3993 317.001 136.0273 316.594 138.6923 316.261 141.3993 315.957 143.8763 317.451 146.1783 320.082 146.3553 322.6 146.5243 324.632 144.4733 324.534 141.9573 324.442 139.5683 324.814 137.2463 325.342 134.9193 325.806 132.8783 324.316 130.7633 322.303 130.3603M347.929 136.3359C345.68 135.2389 343.359 136.3179 342.155 138.3239 340.165 141.6379 337.779 144.8399 336.026 148.2799 334.862 150.5649 335.936 153.5179 338.212 154.6279 340.718 155.8509 343.197 154.6239 344.561 152.4419 346.598 149.1839 348.108 145.5059 349.917 142.1099 351.014 140.0519 349.972 137.3329 347.929 136.3359M64.4408 286.2495C64.2658 284.2695 62.8278 282.5385 60.8528 282.1435 59.0498 281.7825 56.6268 282.7305 55.9578 284.5685 54.9108 287.4455 54.4178 289.9465 53.1558 292.6765 52.0708 295.0265 53.0018 297.9355 55.3638 299.0865 57.7598 300.2565 60.5578 299.1745 61.7738 296.8795 63.3848 293.8365 64.7478 289.7435 64.4408 286.2495M23.7347 262.2724C21.6947 261.5824 18.6887 262.4174 17.9047 264.6764 17.2027 266.7014 16.2997 268.6134 15.4477 270.5754 14.4007 272.9854 15.1987 276.1764 17.7607 277.2934 20.2157 278.3634 23.2997 277.5284 24.4797 274.9804 25.5437 272.6824 26.2697 270.1674 26.9157 267.7174 27.5247 265.4064 25.8677 262.9944 23.7347 262.2724M14.722 191.9516C12.575 190.2626 9.481 190.3626 7.636 192.4856 5.592 194.8366 4.04 197.7006 3.667 200.8186 3.364 203.3606 4.759 206.1586 7.514 206.5866 10.369 207.0316 12.463 205.3636 13.283 202.7416 12.922 203.8936 13.486 202.2906 13.57 202.0816 13.743 201.6476 13.906 201.2146 14.11 200.7916 14.285 200.4276 14.472 200.0056 14.717 199.6716 14.916 199.4386 15.19 199.1186 15.256 199.0376 16.943 197.0236 16.874 193.6446 14.722 191.9516M4.388 236.7797C2.842 239.7657 1.644 242.9347.423 246.0657-.561 248.5927.157 251.5257 2.737 252.7837 4.999 253.8877 8.495 253.0227 9.454 250.4707 10.783 246.9397 12.162 243.3777 13.11 239.7237 14.466 234.4987 6.751 232.2137 4.388 236.7797M36.3206 283.4609C33.5926 283.0359 31.6636 284.6279 30.8596 287.1019 30.1356 289.3289 29.2936 291.5549 28.7696 293.8369 28.2376 296.1569 29.7556 298.5119 31.9296 299.2479 33.9686 299.9379 36.9266 299.0989 37.7226 296.8589 38.6446 294.2629 39.2726 291.5879 39.9626 288.9219 40.5706 286.5659 38.7036 283.8319 36.3206 283.4609M80.2327 291.0449C78.6707 290.2839 76.3617 290.6019 75.2857 292.0649 74.3037 293.3979 73.6577 294.8809 72.9897 296.3869 72.7117 297.0119 72.4357 297.6359 72.1587 298.2609 71.6397 299.4309 71.4337 300.4739 71.3577 301.7529 71.2537 303.5039 72.8997 305.1669 74.4037 305.6749 76.0527 306.2329 78.0797 305.7869 79.2127 304.3889 80.3737 302.9589 80.7827 301.1979 81.3547 299.4799 81.7747 298.2189 82.3367 296.8969 82.4747 295.5719 82.6687 293.7199 81.9907 291.9019 80.2327 291.0449M97.7415 285.4453C95.9215 284.8293 93.5775 285.6083 92.7895 287.4873 91.9365 289.5203 91.0845 291.5543 90.2315 293.5883 89.2135 296.0163 90.2015 298.7883 92.7965 299.6663 95.4595 300.5673 97.7535 298.9073 98.5205 296.3863 99.1625 294.2813 99.8035 292.1763 100.4445 290.0713 101.0345 288.1333 99.4985 286.0393 97.7415 285.4453M118.6741 272.2583C116.5741 271.2343 113.6571 272.0923 112.6951 274.3173 111.5671 276.9223 110.2751 279.4403 108.9461 281.9463 107.7451 284.2123 108.8821 287.1973 111.1321 288.2953 113.4781 289.4393 116.3131 288.4003 117.4821 286.1093 118.7761 283.5723 119.8131 280.9313 120.7331 278.2383 121.5131 275.9553 121.0341 273.4093 118.6741 272.2583M18.6663 161.729C16.3703 160.729 12.8743 161.404 11.9063 164.057 11.4663 165.266 11.0253 166.475 10.5843 167.684 10.0713 169.091 9.3953 170.574 9.1973 172.063 8.9243 174.114 9.7733 176.43 11.7983 177.312 13.5923 178.094 16.3323 177.921 17.5343 176.129 19.1003 173.797 19.9683 171.093 20.9933 168.489 21.9613 166.03 21.3043 162.879 18.6663 161.729M30.0071 133.56C27.6351 132.526 24.9421 133.389 23.7391 135.718 22.5951 137.936 21.6101 140.237 20.5771 142.51 19.5761 144.714 20.3731 147.678 22.7071 148.695 25.0201 149.703 27.7391 148.88 28.8921 146.565 30.0031 144.331 31.1661 142.115 32.1641 139.827 33.1461 137.58 32.3951 134.601 30.0071 133.56M42.0775 106.226C39.6285 105.158 36.9255 106.065 35.6675 108.433 34.4575 110.71 33.5595 113.122 32.8555 115.601 32.1915 117.943 34.1545 120.697 36.4975 121.062 39.2445 121.49 41.1325 119.889 41.9585 117.421 41.6775 118.262 42.2675 116.66 42.3295 116.513 42.4945 116.111 42.6695 115.714 42.8525 115.321 43.2835 114.401 43.7665 113.51 44.2855 112.636 45.5685 110.471 44.3195 107.203 42.0775 106.226M56.7747 82.5517C54.4347 81.5317 51.6447 82.3567 50.4877 84.7167 49.4877 86.7567 48.4867 88.7977 47.4857 90.8377 46.4647 92.9197 47.3357 95.8017 49.5237 96.7557 51.8727 97.7797 54.1737 96.8477 55.4417 94.7177 56.6077 92.7587 57.7737 90.7987 58.9397 88.8387 60.2027 86.7177 58.9717 83.5097 56.7747 82.5517M74.4681 52.9277C72.1731 51.9277 69.5181 52.7517 68.3651 55.0287 67.2551 57.2217 66.1451 59.4157 65.0341 61.6097 64.0091 63.6357 64.9051 66.4777 67.0311 67.4047 69.3201 68.4027 71.5971 67.5017 72.8241 65.4087 74.0731 63.2827 75.3221 61.1567 76.5701 59.0307 77.7821 56.9637 76.6101 53.8607 74.4681 52.9277"/>
  </g>
</svg>
