<svg xmlns="http://www.w3.org/2000/svg" width="45" height="45" viewBox="0 0 45 45">
  <g fill="none" fill-rule="evenodd">
    <g stroke="#7289DA" stroke-width="2" transform="translate(2 5)" stroke-linecap="round" stroke-linejoin="round">
      <path d="M8.2587 29.2422C6.3317 29.9792 4.2407 30.3832 2.0557 30.3832 1.3607 30.3832.6747 30.3432-.0003 30.2632 3.8137 32.7072 8.3417 34.1342 13.2087 34.1342M37.7011 8.5024C39.3841 7.2864 40.8461 5.7694 42.0001 4.0414 40.4561 4.7274 38.7941 5.1894 37.0521 5.3974 38.8301 4.3314 40.1961 2.6434 40.8411.6304 39.1751 1.6184 37.3321 2.3354 35.3691 2.7224 33.7971 1.0474 31.5571.0004 29.0791.0004 24.3201.0004 20.4611 3.8584 20.4611 8.6164 20.4611 9.2924 20.5371 9.9504 20.6841 10.5814 13.5231 10.2214 7.1731 6.7924 2.9231 1.5784 2.1821 2.8514 1.7561 4.3314 1.7561 5.9094 1.7561 8.8984 3.2781 11.5374 5.5911 13.0814 4.1781 13.0384 2.8491 12.6494 1.6881 12.0034 1.6861 12.0394 1.6861 12.0754 1.6861 12.1134 1.6861 16.2874 4.6571 19.7714 8.5991 20.5614 7.8751 20.7584 7.1141 20.8644 6.3271 20.8644 5.7731 20.8644 5.2331 20.8094 4.7081 20.7094 5.8051 24.1324 8.9861 26.6244 12.7581 26.6934M13.2089 34.1338C27.3909 34.1338 35.8219 23.6208 37.4399 13.2518"/>
    </g>
    <rect width="45" height="45"/>
  </g>
</svg>
