<svg xmlns="http://www.w3.org/2000/svg" width="45" height="45" viewBox="0 0 45 45">
  <g fill="none" fill-rule="evenodd">
    <g stroke="#7289DA" stroke-width="2" transform="translate(2 9)" stroke-linecap="round" stroke-linejoin="round">
      <path d="M-.0001 5.9999L-.0001 25.1619C-.0001 26.2659.8959 27.1619 1.9999 27.1619L38.9999 27.1619C40.1039 27.1619 40.9999 26.2659 40.9999 25.1619L40.9999 1.9999C40.9999.8959 40.1039-.0001 38.9999-.0001L2.7679-.0001C1.7609-.0001 1.3849 1.3179 2.2399 1.8499L19.9009 12.8239C20.5659 13.2819 21.4419 13.2949 22.1209 12.8559L32.8709 5.9039M23.7421 11.8456C27.8631 15.3026 31.9841 18.7596 36.1041 22.2156M18.2582 11.8456C14.1502 15.2916 10.0422 18.7376 5.9352 22.1826"/>
    </g>
    <rect width="45" height="45"/>
  </g>
</svg>
