<?xml version="1.0" encoding="utf-8"?>
<!-- Generator: Adobe Illustrator 17.1.0, SVG Export Plug-In . SVG Version: 6.00 Build 0)  -->
<!DOCTYPE svg PUBLIC "-//W3C//DTD SVG 1.1//EN" "http://www.w3.org/Graphics/SVG/1.1/DTD/svg11.dtd">
<svg version="1.1" id="Layer_1" xmlns="http://www.w3.org/2000/svg" xmlns:xlink="http://www.w3.org/1999/xlink" x="0px" y="0px"
	 viewBox="0 0 94 39" enable-background="new 0 0 94 39" xml:space="preserve">
<path fill="#FFFFFF" d="M93.1,32.7l0.9,3c-0.1,0-14.1,4.4-31.7,3.1C46,37.5,23.7,30.3,6.5,7.1c-0.2-0.2-0.2-0.6,0-0.8
	C6.6,6,6.9,5.9,7.2,5.9l8.2,2.7L2.3,2c1.2,2.4,4.8,6.4,9.8,16.8l-3-0.1C4,5.8,0.1,1.2,0.1,1.1C-0.1,0.9,0,0.5,0.2,0.3
	C0.4,0,0.7-0.1,1,0l21.5,9.4c0.4,0.1,0.6,0.5,0.5,0.9C23,10.7,22.6,11,22.2,11L8.7,7.6c16.1,22.3,38,28.4,53.6,29.6
	C79.7,38.5,92.9,32.7,93.1,32.7z"/>
</svg>
